<svg width="40" height="24" viewBox="0 0 40 24" fill="none" xmlns="http://www.w3.org/2000/svg">
<g clip-path="url(#clip0_953_16498)">
<path d="M12 24C18.6274 24 24 18.6274 24 12C24 5.37258 18.6274 0 12 0C5.37258 0 0 5.37258 0 12C0 18.6274 5.37258 24 12 24Z" fill="white"/>
<g clip-path="url(#clip1_953_16498)">
<path d="M11.9985 4L11.8893 4.36451V14.9417L11.9985 15.0487L16.997 12.1466L11.9985 4Z" fill="#343434"/>
<path d="M11.9985 4L7 12.1466L11.9985 15.0488V9.91494V4Z" fill="#8C8C8C"/>
<path d="M11.9985 15.9784L11.937 16.052V19.8199L11.9985 19.9964L17 13.0776L11.9985 15.9784Z" fill="#3C3C3B"/>
<path d="M11.9985 19.9964V15.9784L7 13.0776L11.9985 19.9964Z" fill="#8C8C8C"/>
<path d="M11.9985 15.0488L16.9969 12.1467L11.9985 9.91504V15.0488Z" fill="#141414"/>
<path d="M7.00006 12.1467L11.9985 15.0488V9.91504L7.00006 12.1467Z" fill="#393939"/>
</g>
<path d="M28.0401 23.9598C34.6454 23.9377 39.9821 18.5651 39.9599 11.9598C39.9378 5.35456 34.5652 0.0178661 27.9599 0.0400004C21.3546 0.0621347 16.0179 5.43472 16.0401 12.04C16.0622 18.6453 21.4348 23.982 28.0401 23.9598Z" fill="#0074F0"/>
<path opacity="0.2" d="M35.4757 19.4278C39.5764 15.2996 39.5559 8.62482 35.4277 4.52408C31.2996 0.423334 24.6248 0.443872 20.524 4.572L35.4757 19.4278Z" fill="white"/>
<path d="M27.5117 7.27648C27.6722 7.26007 27.8351 7.25167 28 7.25167C30.6215 7.25167 32.7467 9.37682 32.7467 11.9983C32.7467 14.0426 31.4544 15.785 29.6422 16.4533L28.0316 18.7183C31.7285 18.7012 34.72 15.6991 34.72 11.9983C34.72 8.52323 32.0822 5.66422 28.6996 5.31431L27.5117 7.27648Z" fill="white"/>
<path d="M27.8475 5.28003C24.2066 5.36109 21.28 8.33794 21.28 11.9983C21.28 15.4228 23.8415 18.249 27.153 18.6655L28.5402 16.7146C28.3629 16.7347 28.1827 16.745 28 16.745C25.3785 16.745 23.2534 14.6198 23.2534 11.9983C23.2534 9.8976 24.618 8.1156 26.5092 7.4905L27.8475 5.28003Z" fill="white"/>
<path d="M29.6422 16.4532C31.4544 15.785 32.7467 14.0425 32.7467 11.9983H34.7201C34.7201 15.6991 31.7285 18.7012 28.0317 18.7182L29.6422 16.4532Z" fill="url(#paint0_linear_953_16498)"/>
<path d="M27.8475 5.28003C24.2066 5.36109 21.28 8.33794 21.28 11.9983C21.28 11.9983 23.2534 12.0267 23.2534 11.9983C23.2534 9.8976 24.618 8.1156 26.5092 7.4905L27.8475 5.28003Z" fill="url(#paint1_linear_953_16498)"/>
<path d="M27.9879 17.4918L31.362 12.7402L27.9879 14.7315L24.6155 12.7402L27.9879 17.4918Z" fill="white"/>
<path opacity="0.1" d="M27.9879 17.4918L31.3621 12.7402L27.9879 14.7315V17.4918Z" fill="#0074F0"/>
<path d="M27.9777 14.1008L31.3686 12.1059L27.9777 6.50513L24.5867 12.1059L27.9777 14.1008Z" fill="url(#paint2_linear_953_16498)"/>
<path d="M27.9777 14.1008L31.3686 12.1059L27.9777 6.50513L24.5867 12.1059L27.9777 14.1008Z" fill="white"/>
<path opacity="0.1" d="M27.9776 14.1007L24.5867 12.1059L27.9776 6.50513L27.9776 14.1007Z" fill="#0074F0"/>
<path opacity="0.1" d="M27.9776 14.1008V10.5161L24.5867 12.1058L27.9776 14.1008Z" fill="#0074F0"/>
<path opacity="0.1" d="M27.9777 14.1008V10.5161L31.3687 12.1058L27.9777 14.1008Z" fill="#0074F0"/>
</g>
<defs>
<linearGradient id="paint0_linear_953_16498" x1="23.5756" y1="20.4183" x2="30.9765" y2="15.5703" gradientUnits="userSpaceOnUse">
<stop stop-color="#1A82FF" stop-opacity="0.5"/>
<stop offset="1" stop-color="white"/>
</linearGradient>
<linearGradient id="paint1_linear_953_16498" x1="31.6267" y1="2.1868" x2="24.5455" y2="7.30317" gradientUnits="userSpaceOnUse">
<stop stop-color="#1A82FF" stop-opacity="0.5"/>
<stop offset="1" stop-color="white"/>
</linearGradient>
<linearGradient id="paint2_linear_953_16498" x1="20.7635" y1="8.53331" x2="26.7042" y2="12.1586" gradientUnits="userSpaceOnUse">
<stop stop-color="#1C313F"/>
<stop offset="1" stop-color="white"/>
</linearGradient>
<clipPath id="clip0_953_16498">
<rect width="40" height="24" fill="white"/>
</clipPath>
<clipPath id="clip1_953_16498">
<rect width="10" height="16" fill="white" transform="translate(7 4)"/>
</clipPath>
</defs>
</svg>
