<svg width="154" height="40" viewBox="0 0 154 40" fill="none" xmlns="http://www.w3.org/2000/svg">
<g opacity="0.8">
<path d="M29.922 17.791L27.5339 17.8507V19.5821L29.922 19.4627V17.791ZM3.53393 25.0149L3.77274 26.2687L2.99662 24.0597L2.75781 22.806L3.53393 25.0149ZM29.922 16.0597L27.5339 16V17.791L29.922 17.7313V16.0597Z" stroke="white" stroke-width="0.1" stroke-miterlimit="10"/>
<path d="M27.5341 16L25.6237 16.1194V18.0299L27.5938 17.8508L27.5341 16ZM32.5491 16.3582L29.9222 16.1194V17.7911L32.5491 17.9105V16.3582ZM35.2356 16.7164L32.5491 16.2985V17.8508L35.2356 18.1493V16.7164ZM29.9819 14.3881L27.5938 14.209V16.0597L29.9819 16.1194V14.3881ZM2.75802 22.806L2.99682 24.0597L2.45951 21.7911L2.2207 20.5373L2.75802 22.806Z" stroke="white" stroke-width="0.1" stroke-miterlimit="10"/>
<path d="M32.6684 14.7464L29.9819 14.3882L29.9222 16.1196L32.549 16.3584L32.6684 14.7464ZM32.6684 14.7464L35.355 15.2837L35.2953 16.7763L32.6087 16.3584L32.6684 14.7464ZM27.5938 14.1494H25.564L25.6237 16.1196L27.5938 16.0002V14.1494Z" stroke="white" stroke-width="0.1" stroke-miterlimit="10"/>
<path d="M25.5638 14.1491L24.0713 14.3282L24.131 16.4177L25.5638 16.1192C25.6235 16.1192 25.5638 14.1491 25.5638 14.1491ZM30.1011 12.6565L27.5937 12.2983V14.1491L29.9817 14.3282L30.1011 12.6565Z" stroke="white" stroke-width="0.1" stroke-miterlimit="10"/>
<path d="M32.7879 13.1941L30.0416 12.6568L29.9819 14.3882L32.6685 14.7464L32.7879 13.1941ZM27.5938 12.2986L25.5043 12.1792L25.564 14.1493H27.5938V12.2986ZM37.8625 15.9404L35.355 15.2837L35.2356 16.7165L37.7431 17.2538L37.8625 15.9404ZM3.77295 26.2688L4.19086 27.4628L3.41474 25.3135L2.99683 24.1195C2.99683 24.0598 3.77295 26.2688 3.77295 26.2688Z" stroke="white" stroke-width="0.1" stroke-miterlimit="10"/>
<path d="M35.534 13.8506L32.7878 13.1939L32.6684 14.7461L35.3549 15.2834L35.534 13.8506ZM2.28031 20.4775L2.51912 21.7312L2.28031 19.4028L2.0415 18.2088L2.28031 20.4775ZM35.8325 5.79091L31.6534 4.47747L31.4743 4.41777L35.4743 5.73121L35.8325 5.79091ZM30.1609 10.9849L27.534 10.5073V12.2984L30.0415 12.6566L30.1609 10.9849ZM25.5042 12.179L23.952 12.2387L24.1311 14.3282L25.6236 14.1491C25.5639 14.1491 25.5042 12.179 25.5042 12.179ZM27.4743 3.34315L23.6534 2.50732L23.952 2.74613L27.4743 3.58195V3.34315Z" stroke="white" stroke-width="0.1" stroke-miterlimit="10"/>
<path d="M31.4743 4.41789L27.4743 3.34326V3.58207L31.2355 4.59699L31.4743 4.41789ZM33.0266 11.6418L30.2206 10.9851L30.1012 12.6567L32.8475 13.194C32.7878 13.194 33.0266 11.6418 33.0266 11.6418ZM27.5937 10.5671L25.3848 10.3283L25.5042 12.2388L27.5937 12.3582V10.5671ZM38.1012 14.6268L35.534 13.8507L35.3549 15.2836L37.8624 15.9403L38.1012 14.6268Z" stroke="white" stroke-width="0.1" stroke-miterlimit="10"/>
<path d="M35.4744 5.73129L31.4744 4.41785L31.2953 4.59696L35.1162 5.85069C35.0565 5.85069 35.4744 5.73129 35.4744 5.73129ZM35.4744 5.73129L35.8326 5.79099L39.7729 7.28352L39.2356 7.16412L35.4744 5.73129ZM35.8326 12.4179L33.0266 11.6417L32.7878 13.1343L35.5341 13.791L35.8326 12.4179ZM30.34 9.43278L27.5938 8.83576V10.5074L30.2206 10.985C30.1609 10.985 30.34 9.43278 30.34 9.43278ZM31.2356 4.59696L27.4744 3.58203V4.11934L30.9968 5.07457L31.2356 4.59696Z" stroke="white" stroke-width="0.1" stroke-miterlimit="10"/>
<path d="M33.2655 10.2091L30.3401 9.43302L30.2207 10.9853L33.0267 11.642L33.2655 10.2091ZM27.4745 3.58227L23.9521 2.80615L24.2506 3.40317L27.5342 4.11959L27.4745 3.58227ZM25.3849 10.2688L23.6536 10.2091L23.8924 12.239L25.4446 12.1793C25.5043 12.1793 25.3849 10.2688 25.3849 10.2688Z" stroke="white" stroke-width="0.1" stroke-miterlimit="10"/>
<path d="M27.5937 8.89562L25.2056 8.53741L25.3847 10.3285L27.5937 10.5673V8.89562ZM2.99665 24.0598L3.41457 25.2538L2.93695 22.9852L2.51904 21.7314L2.99665 24.0598ZM35.0564 5.85084L31.2355 4.59711L31.0564 5.07472L34.6981 6.26875L35.0564 5.85084ZM30.4593 8.0598L27.534 7.34338V8.83592L30.2802 9.43293L30.4593 8.0598ZM36.1907 11.1643L33.2653 10.2688L33.0265 11.7016L35.8325 12.4777L36.1907 11.1643ZM31.0564 5.13442L27.534 4.1792V5.01502L30.8773 5.91054L31.0564 5.13442Z" stroke="white" stroke-width="0.1" stroke-miterlimit="10"/>
<path d="M30.4594 8.05947L33.5639 8.95499L33.2057 10.2087L30.2803 9.4326L30.4594 8.05947ZM30.4594 8.05947L27.534 7.34305V6.02962L30.6385 6.86544L30.4594 8.05947ZM24.2505 3.40275L27.534 4.11917L27.5937 4.95499L24.549 4.29827L24.2505 3.40275ZM24.2505 3.40275L21.3848 2.92514L20.8475 2.32812L23.952 2.80574L24.2505 3.40275ZM38.4594 13.3729L35.8325 12.4774L35.534 13.8505L38.1012 14.6266L38.4594 13.3729ZM39.2355 7.16395L35.4743 5.73111L35.0564 5.91021L38.6385 7.28335L39.2355 7.16395ZM2.0415 18.2087L2.28031 19.4625L2.34001 17.1938L2.10121 15.8804L2.0415 18.2087Z" stroke="white" stroke-width="0.1" stroke-miterlimit="10"/>
<path d="M30.8772 5.8506L27.534 4.95508V6.02971L30.6384 6.86553L30.8772 5.8506ZM30.8772 5.8506L31.0563 5.07448L34.6981 6.26851C34.6981 6.26851 34.2802 6.98493 34.2802 6.92523L30.8772 5.8506ZM27.534 7.34314L24.9668 6.86553L25.1459 8.47747L27.534 8.83568V7.34314Z" stroke="white" stroke-width="0.1" stroke-miterlimit="10"/>
<path d="M33.9222 7.88057L30.6386 6.86564L30.4595 8.05967L33.564 8.95519L33.9222 7.88057ZM40.2506 15.4627L38.1013 14.6268L37.8625 15.9403L39.9521 16.6567C40.0118 16.6567 40.2506 15.4627 40.2506 15.4627ZM20.2506 2.02982L17.3252 1.79102L18.161 2.08952L20.7879 2.26863L20.2506 2.02982Z" stroke="white" stroke-width="0.1" stroke-miterlimit="10"/>
<path d="M34.2803 6.98491L30.8773 5.91028L30.6982 6.92521L33.9221 7.94013L34.2803 6.98491ZM27.534 4.95506L24.4893 4.29834L24.7281 5.49237L27.534 6.08938V4.95506Z" stroke="white" stroke-width="0.1" stroke-miterlimit="10"/>
<path d="M36.6087 10.0298L33.5639 8.95519M36.6087 10.0298C36.6087 10.0298 36.1908 11.1641 36.1908 11.1044L33.2654 10.2089L33.5639 8.95519M36.6087 10.0298L37.0863 9.0149L33.9222 7.88057L33.5639 8.95519M27.5341 6.02982L24.7281 5.43281L24.9669 6.86564L27.5341 7.34325V6.02982ZM25.2057 8.47758L23.2953 8.35818L23.6535 10.2686L25.3848 10.3283L25.2057 8.47758ZM38.6983 7.28355L35.1162 5.91042L34.6983 6.32833L38.161 7.64176L38.6983 7.28355ZM16.549 1.85072L13.9819 1.97012L15.0565 1.91042L17.3848 1.79102L16.549 1.85072ZM38.8774 12.1791L36.1908 11.1642L35.8326 12.4776L38.4595 13.3731L38.8774 12.1791ZM43.1759 8.83579L39.7729 7.28355L39.2356 7.16415L42.5192 8.71639L43.1759 8.83579ZM24.2505 3.40296L21.3848 2.92534L21.9222 3.88057L24.4893 4.29848L24.2505 3.40296ZM2.93708 12.3582L2.45947 13.7313L3.11619 11.7015L3.5341 10.388C3.5341 10.3283 2.93708 12.3582 2.93708 12.3582Z" stroke="white" stroke-width="0.1" stroke-miterlimit="10"/>
<path d="M23.6534 10.2087L22.519 10.3878L22.937 12.4774L23.9519 12.2386C23.8922 12.2386 23.6534 10.2087 23.6534 10.2087ZM38.1011 7.64156L34.6384 6.32812L34.2802 6.98484L37.5638 8.23857L38.1011 7.64156Z" stroke="white" stroke-width="0.1" stroke-miterlimit="10"/>
<path d="M37.6236 8.23858L34.2803 6.98485L33.9221 7.88037L37.0863 9.0147L37.6236 8.23858ZM24.9669 6.86545L22.8773 6.62664L23.2953 8.35798L25.2057 8.53709L24.9669 6.86545ZM40.6087 14.3281L38.4594 13.3729L38.1012 14.6266L40.2505 15.4625L40.6087 14.3281ZM46.3997 26.6266L47.6535 26.149L48.3699 25.8505L47.1161 26.3878L46.3997 26.6266ZM24.4893 4.29828L21.9221 3.88037L22.4594 5.1341L24.7281 5.43261L24.4893 4.29828Z" stroke="white" stroke-width="0.1" stroke-miterlimit="10"/>
<path d="M39.3549 11.164L36.6086 10.0297M39.3549 11.164L38.8773 12.1789M39.3549 11.164L39.9519 10.2685L37.0862 9.01473L36.6086 10.0297M36.6086 10.0297L36.1907 11.164L38.8773 12.1789M38.8773 12.1789L41.0862 13.3132L40.6086 14.3282L38.4594 13.3729L38.8773 12.1789ZM24.728 5.43264L22.3997 5.07443L22.8773 6.56697L24.9668 6.80577C24.9668 6.86547 24.728 5.43264 24.728 5.43264ZM20.7877 2.26846L18.2206 2.08936L19.0564 2.74607L21.3848 2.92518L20.7877 2.26846ZM42.5191 8.71622L39.2355 7.16398L38.6982 7.28339L41.8624 8.77592L42.5191 8.71622ZM4.19072 27.4625L4.60863 28.5371L3.83251 26.3879L3.3549 25.2535L4.19072 27.4625ZM2.51908 21.7908L2.93699 23.0446L2.69818 20.7759L2.28027 19.5222L2.51908 21.7908ZM47.0564 26.3282L48.3101 25.7908L48.9668 25.3729L47.6534 25.97L47.0564 26.3282ZM23.2952 8.35801L21.9818 8.41771L22.5191 10.3879L23.6534 10.2088L23.2952 8.35801ZM46.5191 10.8058L43.7728 9.19383L43.1758 8.83562L45.8624 10.4476L46.5191 10.8058ZM40.5489 9.55204L37.5639 8.17891L37.0265 8.95503L39.8922 10.2088L40.5489 9.55204Z" stroke="white" stroke-width="0.1" stroke-miterlimit="10"/>
<path d="M41.2058 9.0746L38.161 7.64176L37.6237 8.23878L40.6088 9.61191L41.2058 9.0746ZM17.3849 1.79102L15.1162 1.91042L16.2506 2.20893L18.2804 2.08952L17.3849 1.79102ZM50.9968 22.5074L51.2953 21.6119L51.5342 20.6567L51.2356 21.6716L50.9968 22.5074ZM47.7133 25.9701L49.0267 25.3731L49.6237 24.8358L48.3103 25.4925C48.3103 25.4328 47.7133 25.9701 47.7133 25.9701ZM21.3849 2.92534L19.0565 2.74624L19.8924 3.76116L21.9222 3.88057L21.3849 2.92534ZM2.10132 15.8806L2.34012 17.194L2.69833 14.985L2.45953 13.7313L2.10132 15.8806ZM22.8774 6.62684H21.3252L21.9222 8.41788L23.2356 8.35818L22.8774 6.62684Z" stroke="white" stroke-width="0.1" stroke-miterlimit="10"/>
<path d="M21.9222 3.88063L19.8923 3.76123L20.6685 5.07466L22.4595 5.13436L21.9222 3.88063ZM41.6237 12.3582L39.355 11.1642L38.8774 12.1791L41.0864 13.3135L41.6237 12.3582ZM45.8028 10.4478L43.1162 8.83586L42.4595 8.71645L45.0864 10.3284C45.1461 10.2687 45.8028 10.4478 45.8028 10.4478ZM42.161 15.3433L40.6087 14.3284L40.2505 15.4627L41.7431 16.3582L42.161 15.3433Z" stroke="white" stroke-width="0.1" stroke-miterlimit="10"/>
<path d="M22.4595 5.13453L20.6685 5.07482L21.3849 6.62706H22.9371C22.8774 6.62706 22.4595 5.13453 22.4595 5.13453ZM48.3103 25.433L49.6237 24.7763L50.161 24.1196L48.8476 24.836L48.3103 25.433ZM51.1759 21.6121L51.4745 20.5972L51.5939 19.5823L51.2953 20.6569L51.1759 21.6121ZM13.9819 1.97035L12.0715 2.38826L13.3849 2.32855L15.0565 1.91064L13.9819 1.97035ZM42.2804 11.5823L39.9521 10.2689L39.4148 11.1644L41.6834 12.3584L42.2804 11.5823ZM45.1461 10.2689L42.5192 8.65691L41.8625 8.71661L44.37 10.2689H45.1461ZM3.41475 25.2539L3.83267 26.3883L3.35505 24.1793L2.87744 22.9853L3.41475 25.2539ZM3.53416 10.3286L3.11625 11.642L4.01177 9.79124L4.42968 8.47781L3.53416 10.3286ZM18.2207 2.08975L16.1909 2.20915L17.3252 2.86587L19.0565 2.74647L18.2207 2.08975Z" stroke="white" stroke-width="0.1" stroke-miterlimit="10"/>
<path d="M42.937 10.9849L40.5489 9.55206M42.937 10.9849L42.2803 11.5819L39.9519 10.2685L40.5489 9.55206M42.937 10.9849L43.6534 10.567L41.2056 9.07445L40.5489 9.55206M42.6385 14.4476L41.0862 13.3133L40.6086 14.3282L42.1012 15.3431L42.6385 14.4476ZM48.8474 24.8356L50.1609 24.1192L50.5788 23.3431L49.2056 24.1192L48.8474 24.8356ZM48.9668 12.8953L47.1161 11.3431L46.5191 10.8058L48.3698 12.4177L48.9668 12.8953ZM2.28027 19.4625L2.69818 20.7162L2.75789 18.5073L2.33997 17.1939L2.28027 19.4625ZM21.9818 8.41774L21.2653 8.71624L21.9818 10.7461L22.5191 10.3879L21.9818 8.41774ZM6.69818 5.79087L5.50415 6.9849L6.81759 5.73117L7.89221 4.59684L6.69818 5.79087ZM44.1907 27.164L46.3997 26.6267L47.1161 26.3879L44.9071 26.9849L44.1907 27.164ZM51.2952 20.6565L51.5937 19.5819V18.567L51.2952 19.7013V20.6565ZM19.0564 2.74609L17.325 2.8655L18.3997 3.88042L19.8325 3.76102L19.0564 2.74609ZM43.2355 13.6118L41.6833 12.358L41.1459 13.2536L42.6982 14.3879L43.2355 13.6118ZM48.3101 12.4177L46.4594 10.8058L45.8027 10.4476L47.5937 12.0595L48.3101 12.4177Z" stroke="white" stroke-width="0.1" stroke-miterlimit="10"/>
<path d="M19.4744 5.19423L18.4595 3.88079L19.8923 3.76139L20.6684 5.01512M19.4744 5.19423L20.6684 5.01512M19.4744 5.19423L20.4296 6.80617L21.3848 6.56736C21.3848 6.62706 20.6684 5.01512 20.6684 5.01512M49.2654 24.1196L50.6386 23.3435L50.9968 22.5077L49.6237 23.4032C49.6237 23.3435 49.2654 24.1196 49.2654 24.1196ZM44.8475 26.9256L47.0565 26.3286L47.7132 25.9106L45.4445 26.5077C45.5042 26.5674 44.8475 26.9256 44.8475 26.9256ZM21.3848 6.62706L20.4296 6.86587L21.2654 8.71661L21.9819 8.41811L21.3848 6.62706ZM10.758 2.86587L9.26544 3.64199L10.758 3.10467L12.0714 2.38826L10.758 2.86587ZM15.0565 1.91064L13.3848 2.32855L14.758 2.62706L16.1311 2.20915L15.0565 1.91064ZM43.8923 12.9554L42.2804 11.642L41.6834 12.4181L43.2356 13.6718C43.2356 13.6121 43.8923 12.9554 43.8923 12.9554ZM2.45947 13.7315L2.69828 15.045L3.35499 13.0151L3.11619 11.7017L2.45947 13.7315ZM51.2953 19.7614L51.5938 18.6271L51.4744 17.6121L51.1759 18.8062L51.2953 19.7614Z" stroke="white" stroke-width="0.1" stroke-miterlimit="10"/>
<path d="M45.5041 26.5669L47.7728 25.9699L48.3698 25.4923L46.1011 26.149L45.5041 26.5669ZM4.60858 28.5371L5.02649 29.4326L4.31007 27.343L3.83246 26.3878L4.60858 28.5371ZM44.6086 12.4177L42.9966 10.9848L42.3399 11.5819L43.9519 12.8953L44.6086 12.4177ZM46.8772 11.8804L45.1459 10.3281L44.4295 10.3878L46.1608 11.9401L46.8772 11.8804ZM2.87723 23.0445L3.35485 24.2386L3.11604 22.0296L2.63843 20.7759L2.87723 23.0445ZM49.6235 23.343L50.9966 22.4475L51.2354 21.552L49.8026 22.5669L49.6235 23.343ZM43.3548 15.5222L42.6384 14.4475L42.1608 15.4028L42.8772 16.4177L43.3548 15.5222Z" stroke="white" stroke-width="0.1" stroke-miterlimit="10"/>
<path d="M45.3251 12.0594L43.6534 10.5669L42.937 10.9848L44.549 12.4176L45.3251 12.0594Z" stroke="white" stroke-width="0.1" stroke-miterlimit="10"/>
<path d="M46.1013 11.8806L44.3699 10.3284L43.6535 10.5672L45.3252 12.0597L46.1013 11.8806ZM50.3401 15.0448L49.5043 13.5523L48.967 12.8956L49.7431 14.3881L50.3401 15.0448ZM4.42964 8.47764L4.01173 9.79107L5.14606 8.17913L5.50427 6.8657C5.56397 6.9254 4.42964 8.47764 4.42964 8.47764ZM46.0416 26.1493L48.3102 25.4926L48.8475 24.8956L46.5789 25.612L46.0416 26.1493ZM51.1759 18.806L51.4744 17.612L51.2356 16.6567L50.9371 17.9105L51.1759 18.806ZM16.1908 2.20898L14.8177 2.62689L16.1908 3.28361L17.3252 2.8657L16.1908 2.20898ZM43.952 14.806L43.2356 13.612L42.6386 14.4478L43.355 15.5821L43.952 14.806ZM2.34009 17.1941L2.758 18.5075L3.11621 16.3582L2.6983 15.0448L2.34009 17.1941ZM49.8028 22.5672L51.1759 21.612L51.2953 20.6567L49.9222 21.6717L49.8028 22.5672ZM7.89233 4.53734L6.8177 5.67167L8.36994 4.77615L9.26546 3.70152L7.89233 4.53734ZM49.7431 14.4478L48.967 12.9553L48.3102 12.4179L49.0864 13.9702C49.0864 13.9105 49.7431 14.4478 49.7431 14.4478ZM12.0714 2.38809L10.758 3.16421L12.3102 3.04481L13.3849 2.32839L12.0714 2.38809ZM41.2655 27.7612L44.2505 27.1642L44.9073 26.9254L41.9222 27.5224L41.2655 27.7612ZM46.5789 25.5523L48.8475 24.8358L49.2655 24.1194L46.9371 24.8956L46.5789 25.5523Z" stroke="white" stroke-width="0.1" stroke-miterlimit="10"/>
<path d="M44.6086 14.209L43.8922 12.8956L43.2354 13.612L43.9519 14.806L44.6086 14.209ZM50.8772 17.9702L51.1757 16.7165L50.8175 15.8806L50.519 17.1941L50.8772 17.9702ZM49.0862 13.9105L48.3101 12.3583L47.5937 12.0001L48.3698 13.5523L49.0862 13.9105ZM17.325 2.86572L16.1907 3.28363L17.5638 4.29856L18.4593 3.88065L17.325 2.86572ZM20.4295 6.86572L20.0116 7.34333L21.0265 9.25378L21.2653 8.71647L20.4295 6.86572Z" stroke="white" stroke-width="0.1" stroke-miterlimit="10"/>
<path d="M45.3252 13.7908L44.6087 12.4177L43.8923 12.955L44.6087 14.2684C44.6087 14.2087 45.3252 13.7908 45.3252 13.7908ZM41.8625 27.5819L44.8475 26.9848L45.5043 26.6266L42.4595 27.2834L41.8625 27.5819ZM49.9222 21.6714L51.2953 20.6565V19.7013L49.9222 20.7759V21.6714ZM18.4595 3.88037L17.564 4.29828L18.8774 5.67142L19.5341 5.25351L18.4595 3.88037Z" stroke="white" stroke-width="0.1" stroke-miterlimit="10"/>
<path d="M19.4744 5.19385L18.8177 5.61176L20.0117 7.2834L20.4296 6.80579L19.4744 5.19385ZM46.1013 13.4924L45.3849 12.0595L44.6087 12.4177L45.3252 13.7909L46.1013 13.4924ZM3.11621 11.6416L3.35502 12.955L4.25054 11.1043L4.01173 9.79086L3.11621 11.6416ZM46.9371 24.8953L49.2655 24.1192L49.564 23.3431L47.2356 24.1789L46.9371 24.8953ZM47.6535 13.373L46.8774 11.8804H46.1013L46.8774 13.373H47.6535Z" stroke="white" stroke-width="0.1" stroke-miterlimit="10"/>
<path d="M46.8773 13.3132L46.1012 11.8207L45.3251 11.9998L46.0415 13.4326C46.1012 13.4923 46.8773 13.3132 46.8773 13.3132ZM2.69824 20.7162L3.17585 21.9699L3.23556 19.761L2.75794 18.5072L2.69824 20.7162ZM50.5191 17.1341L50.8176 15.8207L50.34 15.0445L50.0415 16.4177L50.5191 17.1341ZM42.4594 27.2236L45.5042 26.5669L46.0415 26.149L42.9967 26.8057L42.4594 27.2236ZM13.3848 2.32812L12.3102 3.04454L13.9818 3.28335L14.8176 2.56693L13.3848 2.32812ZM49.9221 20.8356L51.2953 19.761L51.1759 18.8654L49.8027 19.9998L49.9221 20.8356ZM5.56391 6.92514L5.2057 8.23857L6.57884 6.92514L6.87735 5.67141L5.56391 6.92514Z" stroke="white" stroke-width="0.1" stroke-miterlimit="10"/>
<path d="M50.0415 16.4178L50.34 15.0447L49.743 14.3879L49.4445 15.7611C49.4445 15.8208 50.0415 16.4178 50.0415 16.4178ZM47.2953 24.179L49.6236 23.3432L49.8624 22.5073L47.5341 23.4029L47.2953 24.179ZM9.26541 3.70138L8.36988 4.776L10.0415 4.17899L10.7579 3.16406L9.26541 3.70138ZM5.0266 29.4327L5.32511 30.1491L4.60869 28.179L4.25048 27.3432L5.0266 29.4327ZM42.9967 26.8059L46.0415 26.0894L46.5191 25.5521L43.4744 26.2685L42.9967 26.8059ZM44.3699 15.4626L44.6087 14.2685L43.952 14.8656L43.7132 15.9999L44.3699 15.4626ZM2.69824 14.985L3.11615 16.2984L3.71317 14.3282L3.29526 12.9551L2.69824 14.985ZM37.743 28.4178L41.2654 27.7611L41.9221 27.582L38.34 28.2387L37.743 28.4178Z" stroke="white" stroke-width="0.1" stroke-miterlimit="10"/>
<path d="M49.4446 15.821L49.7431 14.4478L49.0864 13.9702L48.7879 15.4031L49.4446 15.821ZM49.7431 19.9404L51.1162 18.8061L50.8774 17.9105L49.5043 19.1046L49.7431 19.9404ZM3.35502 24.1792L3.83263 25.2538L3.59382 23.1046L3.11621 21.9702L3.35502 24.1792ZM45.0864 15.0449L45.3252 13.7911L44.6087 14.2687L44.3699 15.4628L45.0864 15.0449ZM14.8177 2.62695L13.9819 3.28367L15.5938 3.94039L16.1908 3.28367L14.8177 2.62695ZM47.4744 23.4031L49.8028 22.5075L49.9222 21.6717L47.5938 22.627L47.4744 23.4031Z" stroke="white" stroke-width="0.1" stroke-miterlimit="10"/>
<path d="M48.8476 15.3434L49.1461 13.9106L48.4296 13.5524L48.1311 14.9852L48.8476 15.3434ZM43.4744 26.2688L46.5789 25.5524L46.9968 24.8957L43.8923 25.6718L43.4744 26.2688ZM45.8028 14.8061L46.0416 13.4927L45.2655 13.7912L45.0267 15.0449L45.8028 14.8061ZM38.3401 28.2389L41.9222 27.5822L42.5192 27.2837L38.9371 28.0001L38.3401 28.2389Z" stroke="white" stroke-width="0.1" stroke-miterlimit="10"/>
<path d="M47.6533 13.3729L48.4295 13.552L48.1309 14.9849L47.3548 14.8058L47.6533 13.3729ZM47.6533 13.3729L47.3548 14.7461C47.3548 14.7461 46.5787 14.6864 46.6384 14.7461L46.8772 13.3729H47.6533ZM46.5787 14.6864L46.8175 13.3132L46.0414 13.4326L45.8026 14.7461L46.5787 14.6864ZM49.5041 19.1043L50.8772 17.9102L50.519 17.0744L49.1459 18.2684L49.5041 19.1043ZM20.0115 7.34307V7.99979L21.2056 9.91024L21.0265 9.19382L20.0115 7.34307ZM4.01154 9.79083L4.25035 11.1043L5.44438 9.55203L5.20557 8.23859L4.01154 9.79083ZM24.2503 17.4923L24.6683 18.567L24.9668 20.955L24.5489 19.8804L24.2503 17.4923ZM16.1906 3.28337L15.5936 3.94009L17.1459 4.95501L17.5638 4.2983L16.1906 3.28337ZM2.75781 18.5073L3.23542 19.761L3.59363 17.6714L3.11602 16.358L2.75781 18.5073ZM6.2802 32.0595L6.4593 32.4774L5.56378 30.6864L5.32498 30.149L6.2802 32.0595ZM47.5936 22.6267L49.922 21.6714V20.7759L47.5936 21.7311V22.6267ZM10.7578 3.16397L10.0414 4.17889L11.7727 3.99979L12.3101 2.98486C12.3698 3.04456 10.7578 3.16397 10.7578 3.16397ZM43.8921 25.6714L46.9966 24.8953L47.2951 24.1789L44.1906 24.955L43.8921 25.6714ZM38.8772 27.9401L42.4593 27.2237L42.9966 26.8058L39.3548 27.5222C39.4145 27.5222 38.8772 27.9401 38.8772 27.9401ZM4.31005 27.4028L4.66826 28.2386L4.19065 26.2087L3.83244 25.2535L4.31005 27.4028ZM11.5936 37.6714L11.4145 37.6117L10.0414 36.7162L10.1011 36.7759L11.5936 37.6714Z" stroke="white" stroke-width="0.1" stroke-miterlimit="10"/>
<path d="M10.1012 36.7759L10.0415 36.7162L8.72803 35.5818L10.1012 36.7759ZM49.1459 18.3878L50.5191 17.1938L50.0415 16.4774L48.6683 17.7311L49.1459 18.3878ZM18.8176 5.67139L18.6385 6.3281L20.0116 7.99974V7.34303L18.8176 5.67139Z" stroke="white" stroke-width="0.1" stroke-miterlimit="10"/>
<path d="M17.5638 4.29834L17.2056 4.95506L18.6982 6.32819L18.8773 5.67147C18.8176 5.67147 17.5638 4.29834 17.5638 4.29834ZM6.87727 5.67147L6.57877 6.92521L8.19071 5.96998L8.36981 4.77595L6.87727 5.67147ZM13.0862 38.3879L12.8474 38.2685L11.4146 37.6118L11.5937 37.6715L13.0862 38.3879ZM34.2206 29.0148L37.9817 28.2983L37.3847 28.4177L33.6235 29.1342L34.2206 29.0148ZM8.72802 35.5222L7.53399 34.2088L7.47429 34.0894L8.72802 35.5222ZM47.534 21.7909L49.8623 20.8357L49.7429 19.9998L47.4146 20.9551L47.534 21.7909ZM48.6683 17.6715L50.0415 16.4177L49.4444 15.8207L48.0713 17.0745L48.6683 17.6715ZM39.4146 27.5222L43.0564 26.8058L43.534 26.2685L39.8922 26.9849L39.4146 27.5222ZM44.131 25.0148L47.2355 24.2386L47.4146 23.4625L44.3101 24.2983L44.131 25.0148ZM43.8922 16.2386L45.0862 15.1043L44.3698 15.5222L43.1758 16.5968L43.8922 16.2386ZM14.6385 38.7461L14.34 38.6267L12.8474 38.2088L13.0862 38.3282L14.6385 38.7461ZM3.17578 21.97L3.65339 23.1043L3.71309 20.9551L3.23548 19.761L3.17578 21.97ZM3.29518 12.9551L3.71309 14.3282L4.60862 12.5371L4.19071 11.164L3.29518 12.9551Z" stroke="white" stroke-width="0.1" stroke-miterlimit="10"/>
<path d="M48.131 17.0748L49.5041 15.821L48.8474 15.3434L47.534 16.5972L48.131 17.0748ZM44.6086 16.0001L45.8623 14.8061L45.0862 15.0449L43.8922 16.1792L44.6086 16.0001ZM7.47429 34.0897L7.53399 34.2091L6.51906 32.6569L6.39966 32.4778L7.47429 34.0897ZM12.3698 3.04492L11.8325 4.05985L13.6235 4.29865L13.9817 3.28373L12.3698 3.04492ZM47.4146 20.9554L49.7429 19.9404L49.5041 19.1046L47.1758 20.1195C47.1758 20.1792 47.4146 20.9554 47.4146 20.9554ZM47.4743 16.5972L48.7877 15.3434L48.0713 14.9852L46.8176 16.239L47.4743 16.5972Z" stroke="white" stroke-width="0.1" stroke-miterlimit="10"/>
<path d="M45.3252 15.9401L46.5789 14.6864L45.8028 14.8058L44.5491 15.9998L45.3252 15.9401ZM39.8327 27.0446L43.4745 26.3282L43.8327 25.7312L40.1312 26.5073L39.8327 27.0446ZM46.8177 16.2386L48.1312 14.9849L47.3551 14.8058L46.0416 16.0595L46.8177 16.2386ZM46.1013 15.9998L47.4148 14.7461L46.6386 14.6864L45.3849 15.9401L46.1013 15.9998ZM44.37 24.2386L47.4745 23.4028L47.5939 22.567L44.4297 23.4625L44.37 24.2386ZM23.6536 15.164L24.0715 16.2386L24.6685 18.567L24.2506 17.4923L23.6536 15.164ZM16.1909 38.8058L15.773 38.6267L14.3401 38.567L14.6386 38.6864L16.1909 38.8058ZM3.83267 25.2535L4.19088 26.1491L4.01177 24.0595L3.65356 23.1043L3.83267 25.2535ZM5.1461 8.23862L5.38491 9.55205L6.75804 8.29832L6.51924 6.98489C6.57894 6.92518 5.1461 8.23862 5.1461 8.23862ZM47.176 20.1789L49.5043 19.1043L49.1461 18.3282L46.8177 19.4028L47.176 20.1789ZM11.4148 37.6118L11.2357 37.2535L9.92222 36.4177L9.98192 36.7162L11.4148 37.6118ZM19.5342 37.8506L19.1163 38.0297L17.6834 38.567L18.0416 38.4476L19.5342 37.8506Z" stroke="white" stroke-width="0.1" stroke-miterlimit="10"/>
<path d="M8.72815 35.3434L9.92218 36.418L10.0416 36.7165L8.72815 35.5822M8.72815 35.3434V35.5822M8.72815 35.3434L7.65352 34.0897L7.59382 34.2091C7.53412 34.2091 8.72815 35.5822 8.72815 35.5822M8.36994 4.77623L8.13114 5.97026L9.86248 5.37324L10.0416 4.17921L8.36994 4.77623ZM3.11621 16.3583L3.59382 17.6718L4.19084 15.7016L3.71323 14.3285L3.11621 16.3583ZM6.45949 32.4777L6.5789 32.6568L5.74308 30.9852L5.56397 30.6867L6.45949 32.4777ZM12.8476 38.2688L12.6087 37.9106L11.2356 37.3135L11.4147 37.6717L12.8476 38.2688ZM40.1908 26.4479L43.8923 25.6718L44.1908 24.9553L40.4893 25.7315L40.1908 26.4479ZM44.4296 23.4628L47.5938 22.627V21.7912L44.4296 22.6867V23.4628ZM13.9819 3.28369L13.6237 4.23892L15.4147 4.83593L15.5938 3.94041L13.9819 3.28369ZM35.8326 27.9404L39.5938 27.2837L39.1162 27.7613L35.355 28.418L35.8326 27.9404ZM30.9968 29.5523L34.8177 28.7762L34.2207 29.015L30.3998 29.7912L30.9968 29.5523ZM46.8177 19.4031L49.1461 18.3285L48.6684 17.612L46.3401 18.6867L46.8177 19.4031ZM20.0117 8.00011L20.3699 8.83593L21.6834 10.7464L21.2058 9.91056L20.0117 8.00011ZM4.60875 28.1792L4.84755 28.7762L4.42964 26.8658L4.13114 26.1494C4.19084 26.1494 4.60875 28.1792 4.60875 28.1792ZM14.3401 38.5673L13.9819 38.2091L12.6087 37.8509L12.8476 38.2091L14.3401 38.5673ZM17.6834 38.5673L17.2058 38.4479L15.7729 38.627L16.1908 38.8061L17.6834 38.5673Z" stroke="white" stroke-width="0.1" stroke-miterlimit="10"/>
<path d="M46.3401 18.7464L48.6684 17.6718L48.1311 17.0748L45.8625 18.2091L46.3401 18.7464ZM15.5938 3.94043L15.4147 4.83595L17.146 5.85088V4.95536C17.2057 4.95536 15.5938 3.94043 15.5938 3.94043ZM42.4595 17.0748L44.6087 16.0598L43.8923 16.2389L41.7431 17.2539L42.4595 17.0748ZM44.4296 22.6867L47.5938 21.7912L47.4147 20.9554L44.2505 21.8509L44.4296 22.6867ZM7.5938 34.2091L7.65351 34.0897L6.69828 32.6569L6.57888 32.7166C6.57888 32.6568 7.5938 34.2091 7.5938 34.2091ZM40.4893 25.7315L44.1908 24.9554L44.3699 24.1792L40.6684 24.9554L40.4893 25.7315ZM3.2356 19.7613L3.71321 20.9554L4.07142 18.9255L3.65351 17.6718L3.2356 19.7613ZM18.6983 6.32849L18.8774 7.22401L20.3699 8.89565L20.0117 8.05983C20.0117 8.00013 18.6983 6.32849 18.6983 6.32849ZM36.2505 27.4031L40.0117 26.7464L39.5938 27.2837L35.8326 27.9404L36.2505 27.4031ZM24.6684 18.627L24.8475 19.9404L25.146 22.3285L24.9669 21.0151L24.6684 18.627ZM31.5938 29.1942L35.4147 28.418L34.8774 28.7763L31.0565 29.5524C30.9968 29.5524 31.5938 29.1942 31.5938 29.1942Z" stroke="white" stroke-width="0.1" stroke-miterlimit="10"/>
<path d="M9.92213 36.4178L10.0415 35.9402L11.2356 36.7163V37.2536L9.92213 36.4178ZM9.92213 36.4178L9.98183 35.9402L8.8475 34.9252L8.6684 35.3431L9.92213 36.4178ZM17.2057 4.95508V5.8506L18.8774 7.16403L18.6982 6.26851C18.6982 6.32821 17.2057 4.95508 17.2057 4.95508ZM45.8027 18.2088L48.0714 17.0745L47.4147 16.5969L45.146 17.7312L45.8027 18.2088ZM4.25049 11.164L4.6087 12.5372L5.74303 10.9849L5.38482 9.55209L4.25049 11.164ZM43.1759 17.0148L45.3848 15.9402L44.6684 15.9999L42.5191 17.0148C42.4594 17.0745 43.1759 17.0148 43.1759 17.0148ZM22.8177 12.8954L23.1759 13.97L24.0714 16.2387L23.6535 15.164L22.8177 12.8954Z" stroke="white" stroke-width="0.1" stroke-miterlimit="10"/>
<path d="M45.2056 17.7313L47.4742 16.597L46.8175 16.2388L44.5489 17.3134L45.2056 17.7313ZM43.8921 17.1343L46.1011 16.0597L45.325 16L43.116 17.0746L43.8921 17.1343ZM15.7727 38.6269L15.3548 38.209H13.9817L14.3399 38.6269H15.7727Z" stroke="white" stroke-width="0.1" stroke-miterlimit="10"/>
<path d="M44.549 17.3731L46.8176 16.2985L46.1012 16.0597L43.8923 17.1343L44.549 17.3731ZM12.6087 37.8507L12.4893 37.2537L11.2355 36.7164V37.2537L12.6087 37.8507ZM10.0415 4.1791L9.86241 5.37313L11.7132 5.19403L11.7729 4L10.0415 4.1791ZM20.9072 36.9552L20.4296 37.1343L19.1161 37.9701L19.534 37.791L20.9072 36.9552ZM44.2505 21.8507L47.4146 20.9552L47.1758 20.1791L44.0714 21.0746L44.2505 21.8507ZM8.72808 35.3433L8.90718 34.9254L7.89226 33.7313L7.65345 34.0895L8.72808 35.3433ZM40.6684 25.0149L44.3699 24.2388L44.4296 23.4627L40.7281 24.2388L40.6684 25.0149ZM3.59375 23.1045L3.95196 24.0597L4.01166 22.0299L3.65345 20.9552L3.59375 23.1045ZM27.4146 30.3881L31.0564 29.5522L30.4594 29.791L26.8176 30.6269L27.4146 30.3881ZM36.549 26.7463L40.3102 26.0896L40.0117 26.7463L36.2505 27.403L36.549 26.7463ZM32.0714 28.7164L35.8326 28L35.3549 28.4776L31.534 29.194C31.5938 29.194 32.0714 28.7164 32.0714 28.7164ZM16.7281 31.6418L19.7729 30.7463L19.1161 30.1493L16.0117 30.9851L16.7281 31.6418ZM6.57882 32.6567L6.75793 32.597L5.92211 31.0448L5.743 30.9851L6.57882 32.6567ZM6.57882 6.92537L6.81763 8.23881L8.36987 7.28358L8.13106 5.97015C8.13106 6.02985 6.57882 6.92537 6.57882 6.92537Z" stroke="white" stroke-width="0.1" stroke-miterlimit="10"/>
<path d="M18.2802 32.4775L19.116 32.6566L19.9518 32.3581M13.9817 38.2088L13.7429 37.5521L12.4892 37.2536L12.6086 37.8506L13.9817 38.2088ZM16.0115 30.9849L19.116 30.1491L18.519 29.4327L15.3548 30.2088L16.0115 30.9849ZM19.116 38.0297L18.519 37.9103L17.2056 38.4476L17.6832 38.567L19.116 38.0297ZM44.0115 21.0745L47.116 20.179L46.8175 19.4028L43.713 20.3581L44.0115 21.0745ZM11.2354 36.7163L11.4742 35.9998L10.3399 35.2237L9.98169 35.8804C10.0414 35.9401 11.2354 36.7163 11.2354 36.7163Z" stroke="white" stroke-width="0.1" stroke-miterlimit="10"/>
<path opacity="0.1" d="M7.65347 34.0896L7.89227 33.7314L6.99675 32.418L6.69824 32.6568L7.65347 34.0896Z" stroke="white" stroke-width="0.1" stroke-miterlimit="10"/>
<path d="M4.19075 26.149L4.42955 26.8655L4.25045 24.8953L3.95194 24.0595L4.19075 26.149ZM10.0415 35.9401L10.3997 35.2834L9.38478 34.3879L8.96687 34.9849C8.90716 34.9252 10.0415 35.9401 10.0415 35.9401ZM3.71313 14.3282L4.19075 15.7013L5.08627 13.9102L4.60866 12.5371L3.71313 14.3282ZM15.3549 30.2087L18.5191 29.4326L18.0415 28.6565L14.8176 29.3729L15.3549 30.2087ZM15.1161 33.1341L17.5042 32.1192L16.7281 31.6416L14.2206 32.5968L15.1161 33.1341ZM27.9519 29.9699L31.534 29.1341L30.9967 29.4923L27.3549 30.3282C27.4146 30.3879 27.9519 29.9699 27.9519 29.9699Z" stroke="white" stroke-width="0.1" stroke-miterlimit="10"/>
<path d="M14.2207 32.5968L16.7282 31.6416L16.0117 30.9849L13.4446 31.8804L14.2207 32.5968ZM12.4893 37.2536L12.6088 36.4774L11.4744 35.9998L11.2356 36.7162L12.4893 37.2536ZM40.7282 24.2386L44.4296 23.4625V22.6864L40.7282 23.4625V24.2386ZM17.2058 38.4476L16.6685 38.0297L15.355 38.2685L15.7729 38.6864L17.2058 38.4476ZM21.6834 10.7461L21.9819 11.8207L23.1162 13.9103L22.758 12.8356L21.6834 10.7461ZM15.952 33.4924L18.2804 32.4774L17.4446 32.1192L15.0565 33.1342C15.1162 33.1342 15.952 33.4924 15.952 33.4924ZM32.4893 28.1192L36.2505 27.4028L35.8326 27.9401L32.0714 28.6565L32.4893 28.1192ZM36.7879 26.0297L40.549 25.373L40.3102 26.0894L36.549 26.7461L36.7879 26.0297ZM8.90726 34.9252L9.32517 34.3282L8.36995 33.2536L7.89233 33.7909L8.90726 34.9252ZM43.7132 20.358L46.8177 19.4028L46.3401 18.7461L43.2356 19.7013L43.7132 20.358Z" stroke="white" stroke-width="0.1" stroke-miterlimit="10"/>
<path d="M11.116 34.3879L12.1309 35.0446L11.4742 35.9402L10.3399 35.2237M11.116 34.3879L10.3399 35.2237M11.116 34.3879L10.1608 33.5521L9.32497 34.2685C9.32497 34.3282 10.3399 35.2237 10.3399 35.2237M13.4444 31.8805L16.0115 30.9849L15.3548 30.2088L12.728 31.0446L13.4444 31.8805ZM39.5339 17.9103L42.4593 17.0148L41.7429 17.1939L38.8772 18.0297L39.5339 17.9103ZM4.90706 28.8357L5.08616 29.2536L4.66825 27.4029L4.42944 26.8655L4.90706 28.8357ZM15.3548 38.2685L15.0563 37.6118L13.8026 37.5521L13.9817 38.2088L15.3548 38.2685ZM11.8324 4.05957L11.7727 5.2536L13.6832 5.4327V4.23867L11.8324 4.05957ZM13.325 34.0894L15.116 33.0745L14.2802 32.5372L12.4294 33.4924L13.325 34.0894Z" stroke="white" stroke-width="0.1" stroke-miterlimit="10"/>
<path d="M12.3699 33.4925L14.2207 32.5373L13.4446 31.8209L11.4744 32.7164L12.3699 33.4925ZM16.9073 33.7313L19.1759 32.6567L18.3401 32.4776L16.0117 33.4925L16.9073 33.7313ZM13.7431 37.5522L13.8028 36.7164L12.6087 36.4179L12.4893 37.194C12.4893 37.2537 13.7431 37.5522 13.7431 37.5522ZM24.0714 16.2388L24.2505 17.5522L24.8476 19.8806L24.6684 18.5671L24.0714 16.2388ZM23.4744 33.7313L23.1162 34.3283L22.1013 35.7612L22.4595 35.2238L23.4744 33.7313ZM12.1311 35.1044L13.3252 34.1492L12.3699 33.5522L11.1162 34.4477L12.1311 35.1044Z" stroke="white" stroke-width="0.1" stroke-miterlimit="10"/>
<path d="M14.2802 34.5673L15.9519 33.5524L15.0563 33.1942L13.2653 34.2091C13.325 34.0897 14.2802 34.5673 14.2802 34.5673ZM12.6086 36.4778L13.1459 35.5822L12.0713 35.1046L11.4145 36.0002C11.4742 35.9405 12.6086 36.4778 12.6086 36.4778ZM5.7429 30.9852L5.922 31.0449L5.32499 29.3733L5.08618 29.1942L5.7429 30.9852ZM43.2354 19.7017L46.3399 18.7464L45.8026 18.1494L42.7578 19.1046L43.2354 19.7017ZM11.116 34.4479L12.3698 33.5524L11.5339 32.7763L10.1608 33.6121L11.116 34.4479ZM12.728 31.0449L15.3548 30.2091L14.8175 29.3733L12.131 30.0897L12.728 31.0449Z" stroke="white" stroke-width="0.1" stroke-miterlimit="10"/>
<path d="M11.5339 32.7763L13.5041 31.8807L12.728 31.0449L10.6981 31.821L11.5339 32.7763ZM9.32497 34.3285L10.1608 33.6121L9.32497 32.5972L8.42944 33.2539L9.32497 34.3285Z" stroke="white" stroke-width="0.1" stroke-miterlimit="10"/>
<path opacity="0.1" d="M6.69824 32.6566L6.99675 32.4178L6.28033 30.9253L5.92212 31.0447L6.69824 32.6566Z" stroke="white" stroke-width="0.1" stroke-miterlimit="10"/>
<path d="M13.2057 35.5222L14.2803 34.5073L13.3251 34.0894L12.1311 35.0446C12.1311 35.1043 13.2057 35.5222 13.2057 35.5222ZM40.6684 23.4625L44.4296 22.6864L44.3102 21.9103L40.549 22.6864L40.6684 23.4625ZM7.89226 33.7312L8.36987 33.1939L7.53405 31.9401L6.93703 32.358L7.89226 33.7312ZM28.4893 29.4924L32.0714 28.7162L31.5937 29.1939L28.0117 30.0297C27.952 29.97 28.4893 29.4924 28.4893 29.4924ZM3.59375 17.6715L4.01166 18.9252L4.60868 17.0148L4.19076 15.7013L3.59375 17.6715ZM42.7579 19.1043L45.8624 18.1491L45.2654 17.6715L42.2206 18.6267L42.7579 19.1043ZM10.1609 33.5521L11.534 32.7163L10.7579 31.8207L9.32509 32.5371L10.1609 33.5521ZM40.9072 18.0297L43.8923 17.1342L43.1758 17.0148L40.1908 17.9103L40.9072 18.0297ZM15.2952 34.7461L16.9072 33.6715L16.0117 33.4327L14.34 34.4476L15.2952 34.7461ZM22.1012 35.761L21.5639 35.9998L20.4296 37.1342L20.9072 36.9551L22.1012 35.761ZM5.38479 9.55207L5.743 10.9849L7.11614 9.73118L6.81763 8.29834L5.38479 9.55207ZM36.9072 25.2536L40.6684 24.5968L40.549 25.373L36.7878 26.0297L36.9072 25.2536ZM13.8027 36.7759L14.2803 35.8207L13.2057 35.5819L12.6684 36.4774L13.8027 36.7759ZM42.1609 18.6267L45.2057 17.6715L44.549 17.3133L41.5042 18.2685L42.1609 18.6267ZM32.7878 27.4625L36.549 26.8058L36.2505 27.4625L32.4893 28.1192L32.7878 27.4625Z" stroke="white" stroke-width="0.1" stroke-miterlimit="10"/>
<path d="M41.5639 18.2688L44.6087 17.3135L43.8922 17.0747L40.9072 17.9703L41.5639 18.2688ZM14.34 28.418L17.6236 27.7613L17.3251 26.8658L14.0415 27.4628L14.34 28.418ZM14.2803 35.821L15.2952 34.8061L14.2803 34.5673L13.2057 35.5822L14.2803 35.821ZM10.6982 31.821L12.7281 31.0449L12.1311 30.0897L10.0415 30.8061L10.6982 31.821ZM20.3699 8.83594L20.6684 9.97027L22.0415 11.8807L21.6833 10.7464L20.3699 8.83594ZM15.0564 37.6121L14.9967 36.7762L13.8027 36.7165L13.743 37.5524L15.0564 37.6121Z" stroke="white" stroke-width="0.1" stroke-miterlimit="10"/>
<path d="M16.6685 38.0298L16.2506 37.4328L15.0565 37.6119L15.3551 38.2686L16.6685 38.0298ZM16.6685 38.0298L17.9222 37.5522L18.5192 37.9104L17.2058 38.4477L16.6685 38.0298ZM12.1312 30.0895L14.8177 29.3731L14.3401 28.4179L11.5939 29.0746L12.1312 30.0895ZM8.36998 33.2537L9.2655 32.597L8.54909 31.4627L7.53416 32C7.59386 32 8.36998 33.2537 8.36998 33.2537ZM20.4297 37.194L19.773 37.1343L18.5789 37.9104L19.176 38.0298L20.4297 37.194ZM8.13118 6.02981L8.36998 7.34325L10.1013 6.74623L9.86252 5.3731L8.13118 6.02981ZM13.6237 4.23877V5.4328L15.5342 6.02981L15.4745 4.89549L13.6237 4.23877ZM9.32521 32.597L10.758 31.8806L10.1013 30.8656L8.60879 31.5224L9.32521 32.597ZM40.5491 22.6865L44.2506 21.8507L44.0118 21.0746L40.3103 21.9104L40.5491 22.6865ZM3.65356 20.9552L4.01177 22.0298L4.31028 20.0597L3.95207 18.9253L3.65356 20.9552ZM16.2506 34.8059L17.8028 33.7313L16.9073 33.6716L15.2954 34.7462L16.2506 34.8059Z" stroke="white" stroke-width="0.1" stroke-miterlimit="10"/>
<path d="M6.28026 30.9254L6.93698 30.6269L7.5937 32L6.99668 32.4179L6.28026 30.9254ZM6.28026 30.9254L5.92205 31.0448L5.32504 29.3731M6.28026 30.9254L5.74295 29.3731H5.32504M15.3549 35.8209L14.9967 36.7761H13.8027L14.2803 35.8209M15.3549 35.8209H14.2803M15.3549 35.8209L16.2504 34.806L15.2952 34.7463L14.2803 35.8209M11.6534 29.0746L12.131 30.0895L10.0415 30.806L9.50414 29.6716L11.6534 29.0746ZM11.6534 29.0746L14.3997 28.4179L14.0415 27.403M11.6534 29.0746L11.2952 27.9403L14.0415 27.403M5.32504 29.3731L5.08623 29.194L4.72802 27.3433L4.96683 27.6418L5.32504 29.3731ZM14.0415 27.403L17.325 26.8657L17.1459 25.9104L13.8027 26.388L14.0415 27.403ZM28.9071 28.8358L32.4295 28.0597L32.0116 28.6567L28.4295 29.4328C28.4892 29.4925 28.9071 28.8358 28.9071 28.8358ZM18.8773 7.22387L19.1161 8.35819L20.6683 9.97014L20.3698 8.83581L18.8773 7.22387ZM36.9071 24.4776L40.6683 23.8806V24.6567L36.9071 25.3134V24.4776ZM3.9519 24.0597L4.25041 24.8358L4.31011 22.8657L4.01161 21.9701L3.9519 24.0597ZM15.4146 4.89551L15.4743 6.02984L17.325 6.98506L17.2056 5.85073L15.4146 4.89551ZM33.0265 26.6866L36.7877 26.0298L36.5489 26.7463L32.7877 27.4627L33.0265 26.6866ZM40.3101 21.9104L44.0116 21.1343L43.6534 20.4179L39.9519 21.194L40.3101 21.9104Z" stroke="white" stroke-width="0.1" stroke-miterlimit="10"/>
<path d="M7.59377 31.9998L8.549 31.4625L7.95198 30.2088L6.93706 30.6267L7.59377 31.9998ZM4.42959 26.8655L4.6684 27.3431L4.48929 25.4924L4.25049 24.8954L4.42959 26.8655ZM17.2057 5.85059L17.3251 6.98491L19.0565 8.29835L18.8177 7.16402L17.2057 5.85059Z" stroke="white" stroke-width="0.1" stroke-miterlimit="10"/>
<path d="M8.54894 31.4625L10.0415 30.8058L9.50416 29.6714L7.95193 30.2087L8.54894 31.4625ZM36.0116 18.6267L39.4743 17.9102L38.8176 18.0296L35.3549 18.6864C35.4146 18.7461 36.0116 18.6267 36.0116 18.6267ZM25.3251 30.3281L28.4892 29.4923L27.9519 30.0296L24.7877 30.9252C24.7877 30.8655 25.3251 30.3281 25.3251 30.3281ZM25.0266 29.1341L24.8474 30.0893L24.3101 31.9998L24.4892 31.1043C24.4295 31.164 25.0266 29.1341 25.0266 29.1341ZM16.2504 37.4326L16.131 36.6565L14.9967 36.8356L15.0564 37.6714L16.2504 37.4326ZM17.2057 34.6267L18.6385 33.552L17.743 33.6714L16.1907 34.7461C16.2504 34.8058 17.2057 34.6267 17.2057 34.6267ZM24.8474 19.9401L25.0266 21.2535L25.3251 23.5819L25.146 22.3281C25.146 22.2684 24.8474 19.9401 24.8474 19.9401ZM23.1758 13.9699L23.3549 15.2834L24.2504 17.552L24.0713 16.2386L23.1758 13.9699ZM4.60864 12.5371L5.02655 13.9699L6.22058 12.4177L5.80267 10.9849L4.60864 12.5371ZM40.0116 21.1341L43.7131 20.358L43.2355 19.7013L39.534 20.4774C39.5937 20.4774 40.0116 21.1341 40.0116 21.1341ZM36.6683 18.6267L40.1907 17.9102H39.534L36.0713 18.6267H36.6683Z" stroke="white" stroke-width="0.1" stroke-miterlimit="10"/>
<path d="M16.3699 35.6419L17.2057 34.627L16.2505 34.8061L15.355 35.821L16.3699 35.6419Z" stroke="white" stroke-width="0.1" stroke-miterlimit="10"/>
<path d="M17.9221 37.5524L17.4445 36.9554L16.3102 37.433L16.7281 38.03L17.9221 37.5524ZM17.9221 37.5524L19.0565 36.7763L19.7729 37.0748L18.5192 37.9106L17.9221 37.5524ZM16.1311 36.5972L16.4296 35.642L15.355 35.8211L14.9968 36.7763L16.1311 36.5972ZM36.8475 23.642L40.6087 23.0449L40.6684 23.8211L36.9072 24.4181L36.8475 23.642ZM9.50423 29.6718L11.6535 29.0748L11.2953 28.0002L9.14602 28.4778C9.08632 28.4778 9.50423 29.6718 9.50423 29.6718ZM29.2654 28.1793L32.7878 27.4629L32.4893 28.1196L28.9072 28.836L29.2654 28.1793ZM6.28035 30.9255L6.93706 30.627L6.45945 29.1942L5.80273 29.3733L6.28035 30.9255ZM33.146 25.9106L36.9072 25.3136L36.7878 26.0897L33.0266 26.7464L33.146 25.9106ZM24.3102 32.0002L23.8923 32.6569L23.1162 34.3285L23.4744 33.7315L24.3102 32.0002ZM39.5938 20.4778L43.2356 19.7017L42.6983 19.1047L39.0565 19.8808L39.5938 20.4778ZM13.8027 26.3882L17.146 25.9106L17.0863 24.9554L13.743 25.3733L13.8027 26.3882ZM37.3251 18.7464L40.9072 18.03L40.1908 17.9106L36.6684 18.627L37.3251 18.7464ZM11.2356 28.0002L13.9818 27.4629L13.743 26.4479L10.9968 26.8658L11.2356 28.0002ZM9.86244 5.43301L10.1012 6.80614L11.952 6.62704L11.7132 5.25391L9.86244 5.43301Z" stroke="white" stroke-width="0.1" stroke-miterlimit="10"/>
<path d="M7.95198 30.2089L9.50422 29.6716L9.08631 28.4775L7.47437 28.8954L7.95198 30.2089Z" stroke="white" stroke-width="0.1" stroke-miterlimit="10"/>
<path d="M6.93697 30.6268L7.9519 30.2089L7.47429 28.8955L6.39966 29.194L6.93697 30.6268ZM39.1161 19.8805L42.7579 19.1044L42.1608 18.6268L38.5191 19.4029L39.1161 19.8805ZM37.9817 19.0447L41.5638 18.2686L40.8474 18.0298L37.2653 18.7462C37.325 18.7462 37.9817 19.0447 37.9817 19.0447ZM23.1161 34.3283L22.5191 34.6865L21.5638 36.0596L22.1011 35.8208L23.1161 34.3283Z" stroke="white" stroke-width="0.1" stroke-miterlimit="10"/>
<path d="M38.5787 19.4031L42.2205 18.627L41.5638 18.2687L37.9817 19.0449L38.5787 19.4031ZM25.8026 29.6717L28.9071 28.8956L28.4892 29.4926L25.325 30.3285L25.8026 29.6717ZM21.5638 36.0598H20.8474L19.7728 37.1344L20.4295 37.1941L21.5638 36.0598ZM6.81754 8.2986L7.17575 9.73143L8.72799 8.83591L8.36978 7.40308C8.36978 7.34338 6.81754 8.2986 6.81754 8.2986ZM4.19067 15.7016L4.60858 17.015L5.50411 15.2837L5.0862 13.9105L4.19067 15.7016ZM5.325 29.3732H5.74291L5.3847 27.7613L4.96679 27.6419L5.325 29.3732ZM36.6683 22.8658L40.4892 22.2687L40.6683 23.0449L36.9071 23.6419C36.8474 23.6419 36.6683 22.8658 36.6683 22.8658ZM17.4444 36.9553L17.2056 36.1792L16.131 36.5971L16.2504 37.3732L17.4444 36.9553ZM29.5041 27.3434L33.0265 26.6867L32.7877 27.4628L29.2653 28.1792L29.5041 27.3434ZM17.3847 35.2837L18.1011 34.3285L17.2056 34.627L16.3698 35.6419L17.3847 35.2837ZM9.0862 28.4777L11.2354 28.0001L10.9966 26.8658L8.78769 27.224L9.0862 28.4777ZM33.1459 25.0747L36.9071 24.4777V25.2538L33.1459 25.8508V25.0747Z" stroke="white" stroke-width="0.1" stroke-miterlimit="10"/>
<path d="M17.2057 36.1789L17.3849 35.2834L16.3699 35.6416L16.0714 36.5968L17.2057 36.1789ZM4.66844 27.3431L4.90724 27.6416L4.72814 25.9102L4.42963 25.4923L4.66844 27.3431ZM22.0416 11.8804L22.2207 13.1938L23.355 15.2834L23.1759 13.9699L22.0416 11.8804ZM4.01172 18.9251L4.36993 20.0595L4.96694 18.2087L4.60873 17.0147L4.01172 18.9251ZM13.7431 25.3729L17.0863 24.955L17.146 23.9998L13.8028 24.2983L13.7431 25.3729ZM10.9968 26.8654L13.8028 26.4475L13.7431 25.4326L10.9371 25.7908C10.9371 25.7311 10.9968 26.8654 10.9968 26.8654ZM36.3699 22.0893L40.1908 21.4923L40.4893 22.2684L36.6684 22.8654L36.3699 22.0893ZM5.74306 29.3729L6.39978 29.1938L6.10127 27.7013L5.38485 27.761L5.74306 29.3729ZM4.25052 24.8953L4.48933 25.4923L4.54903 23.6416L4.31023 22.9251L4.25052 24.8953ZM4.07142 22.0296L4.36993 22.9251L4.66844 21.0744L4.42963 20.0595L4.07142 22.0296ZM7.47441 28.8953L9.08635 28.4774L8.84754 27.2237L7.2356 27.5222L7.47441 28.8953ZM31.8326 19.164L35.7132 18.6266L36.3699 18.5669L32.4893 19.164H31.8326ZM19.0565 36.7759L18.4595 36.2386L17.3849 36.955L17.8625 37.552L19.0565 36.7759ZM26.161 28.8953L29.2654 28.1789L28.9072 28.8356L25.8028 29.6117L26.161 28.8953Z" stroke="white" stroke-width="0.1" stroke-miterlimit="10"/>
<path d="M6.39975 29.1942L7.47438 28.8957L7.17587 27.5226L6.04154 27.7017L6.39975 29.1942ZM11.7132 5.25391L11.952 6.62704L13.8624 6.80614L13.6833 5.43301L11.7132 5.25391ZM24.2505 17.5524L24.4296 18.8658L25.0266 21.1942L24.8475 19.8808L24.2505 17.5524ZM36.0117 21.3733L39.8326 20.7763L40.1908 21.4927L36.3699 22.0897L36.0117 21.3733ZM29.6236 26.5076L33.146 25.9106L33.0266 26.6867L29.5042 27.3435L29.6236 26.5076ZM32.4893 19.1644L36.3699 18.627L37.0266 18.6867L33.146 19.2241L32.4893 19.1644ZM25.3251 26.9852L25.146 28.0002L24.8475 30.0897L25.0266 29.1345L25.3251 26.9852ZM5.80273 10.9852L6.22064 12.4181L7.59378 11.1644L7.17587 9.67182C7.17587 9.73152 5.80273 10.9852 5.80273 10.9852ZM8.84751 27.2241L10.9968 26.8658L10.8774 25.7315L8.66841 26.03C8.72811 25.9703 8.84751 27.2241 8.84751 27.2241ZM18.2803 34.6867L18.9371 33.7315L18.1012 34.2688L17.3848 35.2241C17.3848 35.2838 18.2803 34.6867 18.2803 34.6867ZM20.8475 36.0599L20.0714 35.8211L19.0565 36.836L19.7729 37.1345L20.8475 36.0599Z" stroke="white" stroke-width="0.1" stroke-miterlimit="10"/>
<path d="M35.5341 20.7762L39.355 20.2389L39.8326 20.8956L36.0117 21.4926L35.5341 20.7762ZM18.4595 36.2389L18.161 35.5225L17.2058 36.1792L17.4446 36.9553L18.4595 36.2389ZM20.6684 9.97021L20.8475 11.2836L22.2207 13.1941L22.0416 11.8807L20.6684 9.97021ZM4.96695 27.6419L5.38486 27.7613L5.20575 26.1493L4.78784 25.9105L4.96695 27.6419ZM33.146 19.2239L37.0266 18.6866L37.6834 18.8657L33.8625 19.403C33.8028 19.403 33.146 19.2239 33.146 19.2239ZM13.7431 24.3583L17.0863 24.0598L17.2655 23.1642L13.9222 23.4031C13.9222 23.3433 13.7431 24.3583 13.7431 24.3583Z" stroke="white" stroke-width="0.1" stroke-miterlimit="10"/>
<path d="M18.1609 35.5224L18.2803 34.6865L17.3848 35.2836L17.2057 36.1791L18.1609 35.5224ZM10.937 25.7313L13.743 25.3731L13.8027 24.3582L10.9967 24.597C10.937 24.597 10.937 25.7313 10.937 25.7313ZM34.9967 20.1791L38.8176 19.6418L39.3549 20.1791L35.5341 20.7164C35.5341 20.7761 34.9967 20.1791 34.9967 20.1791ZM33.8027 19.403L37.6236 18.8657L38.2206 19.1642L34.3997 19.7015L33.8027 19.403ZM8.36987 7.34327L8.72808 8.7761L10.4594 8.23879L10.1012 6.80595C10.1012 6.74625 8.36987 7.34327 8.36987 7.34327Z" stroke="white" stroke-width="0.1" stroke-miterlimit="10"/>
<path d="M34.3997 19.761L38.2206 19.2237L38.8176 19.6416L34.9967 20.1789L34.3997 19.761ZM24.8474 30.0893L24.4295 30.8058L23.8922 32.6565L24.3101 31.9998L24.8474 30.0893ZM32.8474 23.4028L36.6086 22.8655L36.7877 23.6416L33.0862 24.2386L32.8474 23.4028ZM22.5191 34.6863L21.743 34.746L20.8474 36.0595H21.5639L22.5191 34.6863ZM13.6236 5.43262L13.8027 6.80575L15.7131 7.40277L15.534 6.02963L13.6236 5.43262ZM7.1758 27.5222L8.78774 27.2237L8.66834 25.9699L7.0564 26.149L7.1758 27.5222Z" stroke="white" stroke-width="0.1" stroke-miterlimit="10"/>
<path d="M6.1012 27.7014L5.38478 27.7611C5.38478 27.7611 5.20568 26.1492 5.26538 26.1492L5.9818 26.2089M6.1012 27.7014L5.9818 26.2089M6.1012 27.7014L7.23553 27.5223L7.11612 26.1492L5.9818 26.2089M23.8922 32.6567L23.2355 33.0746L22.5191 34.6865L23.1161 34.3283L23.8922 32.6567ZM29.6236 25.6119L33.146 25.0746V25.9104L29.6236 26.5074V25.6119ZM19.0564 8.29844L19.2355 9.67158L20.7878 11.2835L20.6087 9.97008C20.6684 9.97008 19.0564 8.29844 19.0564 8.29844ZM4.48926 25.4925L4.78777 25.9104L4.84747 24.179L4.54896 23.6417L4.48926 25.4925ZM5.08627 13.9104L5.50418 15.2835L6.57881 13.791L6.2206 12.4178L5.08627 13.9104ZM15.4743 6.02979L15.6534 7.40292L17.5639 8.35814L17.3848 6.98501L15.4743 6.02979ZM32.549 22.6268L36.3699 22.1492L36.6684 22.9253L32.9072 23.4626L32.549 22.6268ZM20.0713 35.8208L19.4146 35.3432L18.4594 36.2387L19.0564 36.7761L20.0713 35.8208Z" stroke="white" stroke-width="0.1" stroke-miterlimit="10"/>
<path d="M4.60857 21.0744L4.84737 21.9102L4.54886 23.6416L4.31006 22.9252L4.60857 21.0744ZM4.60857 21.0744L4.36976 20.0595L4.90707 18.2684L5.14588 19.3431L4.60857 21.0744ZM17.325 6.98486L17.5638 8.358L19.2951 9.67143L19.116 8.2983C19.0563 8.2983 17.325 6.98486 17.325 6.98486ZM25.0265 21.1938L25.0862 22.4475L25.3847 24.7162L25.325 23.5222C25.325 23.5819 25.0265 21.1938 25.0265 21.1938ZM8.72797 25.9699L10.9369 25.6714L10.9966 24.5371L8.78767 24.7162L8.72797 25.9699ZM27.8324 19.5819L31.8324 19.2237L32.4892 19.164L28.5489 19.5222L27.8324 19.5819ZM13.922 23.3431L17.2653 23.1043L17.5638 22.2684L14.2802 22.4475L13.922 23.3431ZM19.0563 33.9102L19.6533 33.0147L18.9369 33.7311L18.2802 34.6864L19.0563 33.9102ZM23.3548 15.2834L23.5339 16.6565L24.4295 18.8655L24.2504 17.552L23.3548 15.2834ZM10.9966 24.5968L13.8026 24.358L13.9817 23.4028L11.1757 23.5819L10.9966 24.5968ZM4.60857 17.0147L4.96677 18.2087L5.8026 16.5968L5.50409 15.2834L4.60857 17.0147ZM26.5787 27.1043L29.6235 26.5073L29.5041 27.3431L26.4593 28.0595L26.5787 27.1043ZM32.1907 21.8505L36.0116 21.3729L36.3698 22.0893L32.5489 22.567L32.1907 21.8505ZM19.4145 35.3431L18.9966 34.6864L18.1608 35.5222L18.4593 36.2386L19.4145 35.3431Z" stroke="white" stroke-width="0.1" stroke-miterlimit="10"/>
<path d="M18.9968 34.6863V33.9102L18.2207 34.6863L18.161 35.5221L18.9968 34.6863ZM28.549 19.5221L32.4893 19.1639L33.146 19.2236L29.2058 19.5818L28.549 19.5221ZM4.78784 25.9102L5.20575 26.149L5.26545 24.537L4.84754 24.1788L4.78784 25.9102ZM7.0565 26.149L8.66844 25.9699L8.72814 24.7162L7.1162 24.7759L7.0565 26.149ZM21.7431 34.746L20.9072 34.5669L20.0714 35.7609L20.8475 35.9997C20.8475 36.0594 21.7431 34.746 21.7431 34.746ZM31.7132 21.1938L35.5341 20.7759L36.0117 21.4326L32.1908 21.9102L31.7132 21.1938ZM10.1013 6.746L10.4595 8.17883L12.2505 7.99973L11.952 6.56689L10.1013 6.746ZM7.1759 9.73107L7.59381 11.2236L9.14605 10.3281L8.78784 8.83555L7.1759 9.73107Z" stroke="white" stroke-width="0.1" stroke-miterlimit="10"/>
<path d="M29.2056 19.5818L33.1459 19.2236L33.8026 19.4027L29.8623 19.7609L29.2056 19.5818ZM25.325 24.7759L25.1459 25.8505V28.0595L25.325 27.0445V24.7759ZM31.116 20.5968L34.9966 20.1789L35.5339 20.7162L31.713 21.1341L31.116 20.5968ZM29.8623 19.8206L33.8026 19.4624L34.3996 19.8206L30.519 20.2386C30.519 20.1789 29.8623 19.8206 29.8623 19.8206ZM5.20557 26.149L5.92198 26.2087L5.98169 24.7759L5.26527 24.5371L5.20557 26.149Z" stroke="white" stroke-width="0.1" stroke-miterlimit="10"/>
<path d="M29.3252 23.8803L32.9073 23.4027L33.0864 24.2386L29.564 24.7759C29.564 24.7162 29.3252 23.8803 29.3252 23.8803ZM29.3252 23.8803L32.8476 23.343L32.5491 22.5669L28.967 22.9848L29.3252 23.8803ZM14.2804 22.4475L17.564 22.2684L17.9819 21.552L14.6983 21.6117C14.6983 21.6714 14.2804 22.4475 14.2804 22.4475ZM14.2804 22.4475L13.9819 23.343L11.1759 23.5221M14.2804 22.4475L11.5341 22.5072L11.1759 23.5221M11.1759 23.5221L10.9968 24.5968L8.78788 24.7759L8.96698 23.5818L11.1759 23.5221ZM23.2356 33.0744L22.3998 33.2535L21.7431 34.746L22.5192 34.6863L23.2356 33.0744ZM23.2356 33.0744L23.773 31.2833L24.4297 30.8057L23.8924 32.6565L23.2356 33.0744ZM5.92221 26.2087L7.05653 26.149L7.11624 24.8356L5.98191 24.7759L5.92221 26.2087ZM30.5192 20.1789L34.3998 19.7609L34.9968 20.1789L31.1162 20.5968L30.5192 20.1789ZM26.5789 26.149L29.6834 25.6117V26.5072L26.6386 27.1042L26.5789 26.149ZM25.1461 27.9998L24.7282 28.8356L24.4297 30.8654L24.8476 30.149C24.8476 30.0893 25.1461 27.9998 25.1461 27.9998ZM4.54907 23.6415L4.84758 24.1789L5.14609 22.5072L4.90728 21.8505L4.54907 23.6415ZM22.2207 13.1938L22.3998 14.5669L23.5341 16.6565L23.355 15.2833L22.2207 13.1938ZM20.9073 34.5669L20.1909 34.2087L19.4147 35.343L20.0715 35.8206L20.9073 34.5669ZM24.4297 18.9251L24.4894 20.2386L25.0864 22.5072L25.0267 21.2535C25.0267 21.1938 24.4297 18.9251 24.4297 18.9251ZM6.22071 12.4177L6.57892 13.8505L7.89236 12.6565L7.53415 11.2236L6.22071 12.4177ZM19.7133 33.6714L19.6535 32.955L18.9968 33.9102V34.6863L19.7133 33.6714Z" stroke="white" stroke-width="0.1" stroke-miterlimit="10"/>
<path d="M20.1908 34.2087L19.7132 33.6714L18.9968 34.6863L19.4147 35.343L20.1908 34.2087ZM7.11622 24.8355L8.72816 24.7758L8.90726 23.5818L7.29532 23.5221L7.11622 24.8355ZM11.952 6.56689L12.2505 7.99973L14.1013 8.17883L13.8028 6.6863L11.952 6.56689ZM26.4595 25.1938L29.564 24.7161L29.6834 25.6117L26.5789 26.149L26.4595 25.1938ZM4.66846 21.0744L4.90726 21.9102L5.44458 20.2982L5.26547 19.343C5.20577 19.343 4.66846 21.0744 4.66846 21.0744ZM28.5491 22.2087L32.1311 21.8505L32.5491 22.5669L28.967 22.9848L28.5491 22.2087ZM4.84756 24.1788L5.26547 24.537L5.50428 22.9848L5.08637 22.5072L4.84756 24.1788ZM5.50428 15.2833L5.80279 16.5967L6.87741 15.1639L6.63861 13.7908C6.5789 13.8505 5.50428 15.2833 5.50428 15.2833ZM8.96696 23.5818L11.1759 23.5221L11.5341 22.5072L9.38487 22.4475L8.96696 23.5818Z" stroke="white" stroke-width="0.1" stroke-miterlimit="10"/>
<path d="M6.22053 23.3432L7.35486 23.5224L7.11605 24.8358L5.98172 24.7761L6.22053 23.3432ZM6.22053 23.3432L5.98172 24.7164L5.2653 24.5373C5.2653 24.5373 5.56381 23.0447 5.50411 23.0447L6.22053 23.3432ZM4.9668 18.2089L5.2056 19.2835L5.98172 17.7313L5.80262 16.5373C5.80262 16.597 4.9668 18.2089 4.9668 18.2089ZM11.4743 22.5074L14.2205 22.4477L14.6384 21.6716H11.8922L11.4743 22.5074ZM20.8474 11.2835L21.0862 12.7164L22.4593 14.5671L22.2802 13.194L20.8474 11.2835ZM28.0713 21.4925L31.7131 21.194L32.1907 21.8507L28.6086 22.2089C28.5489 22.2089 28.0713 21.4925 28.0713 21.4925ZM22.4593 33.2537L21.5638 33.194L20.9071 34.6268L21.7429 34.8059L22.4593 33.2537ZM8.72799 8.77608L9.0862 10.2686L10.7578 9.73131L10.3996 8.23877L8.72799 8.77608ZM25.3847 19.8209L29.2056 19.5821L29.8623 19.8209L26.1011 20.0597L25.3847 19.8209ZM26.2205 24.2388L29.325 23.8209L29.5638 24.7164L26.4593 25.194L26.2205 24.2388Z" stroke="white" stroke-width="0.1" stroke-miterlimit="10"/>
<path d="M27.4743 20.8957L31.1758 20.5972L31.7131 21.1942L28.0713 21.4927L27.4743 20.8957ZM26.1011 20.0599L29.8623 19.8211L30.5191 20.1793L26.8176 20.4181L26.1011 20.0599ZM13.8026 6.80615L14.1011 8.29869L15.9519 8.8957L15.6534 7.46287C15.7131 7.40317 13.8026 6.80615 13.8026 6.80615ZM25.0265 22.4479L24.8474 23.5823L25.1459 25.7912L25.325 24.7166L25.0265 22.4479ZM19.2355 9.67182L19.4743 11.1047L21.0265 12.7166L20.7877 11.2838L19.2355 9.67182ZM21.5638 33.1942L20.7877 32.8957L20.1907 34.2091L20.9071 34.5673L21.5638 33.1942ZM23.7728 31.2838L22.937 31.5823L22.4594 33.2539L23.2952 33.0748L23.7728 31.2838ZM20.3101 32.4181L20.2504 31.8211L19.7728 32.8957L19.8325 33.6121L20.3101 32.4181ZM7.35487 23.5226L8.96682 23.5823L9.32502 22.5076L7.71308 22.3285L7.35487 23.5226ZM15.7131 7.40317L16.0116 8.836L17.8026 9.79123L17.5638 8.35839L15.7131 7.40317ZM4.84741 21.9106L5.08622 22.5673L5.62353 21.0151L5.38473 20.239L4.84741 21.9106ZM25.8623 23.3435L29.0265 22.9853L29.325 23.8211L26.2205 24.239L25.8623 23.3435ZM23.534 16.6569L23.5937 18.03L24.4295 20.239L24.3698 18.9256C24.4295 18.9256 23.534 16.6569 23.534 16.6569Z" stroke="white" stroke-width="0.1" stroke-miterlimit="10"/>
<path d="M11.952 21.6715H14.6982L15.2355 20.9551L12.549 20.8954L11.952 21.6715ZM11.952 21.6715L11.4744 22.567L9.3251 22.5073L9.86241 21.4924L11.952 21.6715ZM17.5639 8.35808L17.8027 9.79091L19.5341 11.1043L19.2952 9.67151L17.5639 8.35808ZM20.7878 32.8954L20.3102 32.4178L19.7729 33.6118L20.2505 34.1491L20.7878 32.8954ZM25.146 25.7909L24.7281 26.6864V28.776L25.146 27.9402V25.7909ZM24.7281 28.8357L24.0117 29.4327L23.7729 31.3432L24.4296 30.8655C24.4296 30.8058 24.7281 28.8357 24.7281 28.8357ZM7.59376 11.164L7.95197 12.5969L9.4445 11.7014L9.146 10.2088L7.59376 11.164ZM6.22062 23.3432L7.35495 23.5223L7.77286 22.3282L6.69824 22.0297C6.63853 22.0297 6.22062 23.3432 6.22062 23.3432ZM25.3848 22.5073L28.549 22.2685L28.9669 23.0446L25.8027 23.4029L25.3848 22.5073ZM5.146 22.567L5.56391 23.0446L6.04152 21.6118L5.68331 21.0148L5.146 22.567ZM10.4594 8.23867L10.8176 9.73121L12.6087 9.55211L12.3102 8.05957C12.2505 8.05957 10.4594 8.23867 10.4594 8.23867ZM5.2057 19.3432L5.3848 20.2984L6.16092 18.8058L6.04152 17.7909L5.2057 19.3432Z" stroke="white" stroke-width="0.1" stroke-miterlimit="10"/>
<path d="M6.8177 15.2238L6.57889 13.8506L7.83262 12.7163L8.07143 14.0894L6.8177 15.2238ZM6.8177 15.2238L6.9968 16.4775L5.98188 17.7909L5.80277 16.5969L6.8177 15.2238ZM5.56396 23.0447L6.22068 23.3432L6.63859 22.0297L5.98188 21.6118L5.56396 23.0447ZM22.9371 31.582L22.0416 31.6417L21.6237 33.1939L22.5192 33.2536L22.9371 31.582ZM12.549 20.8954L15.2356 20.9551L15.8923 20.4178L13.2655 20.2984L12.549 20.8954ZM7.71322 22.3282L9.32516 22.5074L9.86247 21.5521L8.31023 21.3133C8.31023 21.2536 7.71322 22.3282 7.71322 22.3282ZM22.3998 14.5671L22.5192 15.9402L23.6535 17.97L23.5341 16.6566L22.3998 14.5671ZM24.4893 20.179L24.3102 21.373L24.8475 23.582L25.0266 22.4477L24.4893 20.179ZM20.6684 31.1044L20.549 30.6268L20.1908 31.8805L20.2505 32.4775L20.6684 31.1044Z" stroke="white" stroke-width="0.1" stroke-miterlimit="10"/>
<path d="M9.8623 21.4926L12.0116 21.612L12.6086 20.8358L10.519 20.6567C10.4593 20.7164 9.8623 21.4926 9.8623 21.4926ZM21.9817 31.5821L21.2056 31.403L20.7877 32.8358L21.5638 33.1344L21.9817 31.5821Z" stroke="white" stroke-width="0.1" stroke-miterlimit="10"/>
<path d="M21.2057 31.4626L20.6683 31.1043L20.3101 32.4178L20.7878 32.8954L21.2057 31.4626ZM5.38477 20.2387L5.62357 21.0148L6.33999 19.6417L6.16088 18.8058L5.38477 20.2387ZM12.2504 8.05957L12.5489 9.55211L14.34 9.73121L14.1012 8.23867L12.2504 8.05957ZM6.6385 22.0297L7.71312 22.3282L8.25044 21.2536L7.29521 20.8954L6.6385 22.0297ZM9.08626 10.2685L9.38477 11.7611L10.9967 11.2237L10.7579 9.73121L9.08626 10.2685ZM24.9072 23.582L24.4892 24.5372L24.7878 26.6864L25.2057 25.7909L24.9072 23.582ZM24.728 26.6864L24.0116 27.4029V29.373L24.728 28.776V26.6864Z" stroke="white" stroke-width="0.1" stroke-miterlimit="10"/>
<path d="M5.62354 21.0148L5.98174 21.6118L6.63846 20.3581L6.28025 19.6417L5.62354 21.0148ZM21.0862 12.7163L21.2056 14.1491L22.5191 15.9999L22.3997 14.6268L21.0862 12.7163Z" stroke="white" stroke-width="0.1" stroke-miterlimit="10"/>
<path d="M5.98169 21.6118L6.63841 22.0297L7.23542 20.8357L6.63841 20.2983L5.98169 21.6118ZM8.31005 21.2536L9.86229 21.4924L10.519 20.6565L9.02647 20.2983L8.31005 21.2536Z" stroke="white" stroke-width="0.1" stroke-miterlimit="10"/>
<path d="M8.13094 14.0298L7.89214 12.6567L9.38467 11.7612L9.56378 13.194L8.13094 14.0298ZM8.13094 14.0298L8.25035 15.3432L7.05632 16.4179L6.87721 15.1641L8.13094 14.0298ZM10.4593 20.7164L12.5489 20.8955L13.2653 20.2985L11.2354 20.0597C11.2354 20 10.4593 20.7164 10.4593 20.7164ZM5.98169 17.791L6.10109 18.8059L7.05632 17.5522L6.93691 16.4776L5.98169 17.791ZM14.1011 8.23877L14.3399 9.73131L16.1906 10.3283L15.9518 8.83578L14.1011 8.23877ZM20.8474 29.6716L20.728 29.3134L20.5489 30.6268L20.6683 31.1044L20.8474 29.6716ZM23.1757 29.791L22.2802 29.9701L22.0414 31.6418L22.9369 31.5821L23.1757 29.791ZM23.6533 18.0298L23.5339 19.2835L24.3697 21.3731L24.5489 20.1791L23.6533 18.0298ZM19.4742 11.1044L19.6533 12.597L21.2056 14.2089L21.0862 12.7761C21.0862 12.7164 19.4742 11.1044 19.4742 11.1044ZM16.0115 8.83578L16.2503 10.3283L18.0414 11.2835L17.8623 9.79101L16.0115 8.83578Z" stroke="white" stroke-width="0.1" stroke-miterlimit="10"/>
<path d="M17.8027 9.79102L17.9818 11.2836L19.6535 12.5373L19.4744 11.0447L17.8027 9.79102ZM21.3848 29.8507L20.8475 29.6119L20.6684 31.0447L21.2057 31.403L21.3848 29.8507Z" stroke="white" stroke-width="0.1" stroke-miterlimit="10"/>
<path d="M9.02656 20.3582L8.31014 21.2537L7.29522 20.8955L8.01164 19.8806M9.02656 20.3582L8.01164 19.8806M9.02656 20.3582L10.5191 20.7164L11.2952 20.0597L9.86238 19.6418L9.02656 20.3582ZM8.01164 19.8806L7.23552 20.8955L6.6385 20.3582L7.47432 19.2836L8.01164 19.8806ZM22.2206 29.9105L21.3848 29.8508L21.2057 31.403L21.9818 31.5821L22.2206 29.9105ZM10.7579 9.73135L10.9967 11.2239L12.7281 11.0448L12.5489 9.55225L10.7579 9.73135ZM6.16089 18.806L6.33999 19.6418L7.23552 18.4478L7.11611 17.4925L6.16089 18.806ZM11.2355 20L13.2654 20.2388L14.0415 19.8209L12.131 19.5224L11.2355 20ZM24.0116 27.403L23.1758 27.8806V29.7313L24.0116 29.3731V27.403ZM24.3101 21.4328L23.8922 22.5075L24.4295 24.597L24.8475 23.6418L24.3101 21.4328Z" stroke="white" stroke-width="0.1" stroke-miterlimit="10"/>
<path d="M9.80277 19.6418L8.96695 20.3582L8.01173 19.8806L8.96695 19.1045L9.80277 19.6418ZM9.80277 19.6418L11.2356 20.0597L12.0714 19.5821L10.758 19.1045L9.80277 19.6418ZM21.3849 28.2388L20.8475 28.1791V29.6716L21.3849 29.9105V28.2388ZM21.3849 28.2388L22.2207 28.1791V29.9105L21.3849 29.8508V28.2388ZM6.34009 19.6418L6.6983 20.3582L7.53412 19.2836L7.29531 18.5075C7.23561 18.4478 6.34009 19.6418 6.34009 19.6418ZM24.4296 24.597L23.7729 25.3731L24.0117 27.403L24.7281 26.6866L24.4296 24.597ZM22.5192 16L22.3998 17.3134L23.4744 19.2836L23.5938 18.0299L22.5192 16ZM6.9968 16.4179L7.05651 17.4925L8.19083 16.4776V15.2836L6.9968 16.4179ZM9.38486 11.7612L9.56397 13.194L11.1162 12.7164L10.9968 11.2239L9.38486 11.7612ZM12.1311 19.5224L14.0416 19.8209L14.8774 19.5821L13.0267 19.2239L12.1311 19.5224ZM23.1759 27.8806L22.2804 28.1791V29.9105L23.1759 29.7313V27.8806ZM12.549 9.55225L12.7281 11.0448L14.5192 11.2239L14.3998 9.73135C14.3998 9.79105 12.549 9.55225 12.549 9.55225ZM8.13113 14.0299L8.25054 15.3433L9.62367 14.5672V13.2537C9.56397 13.194 8.13113 14.0299 8.13113 14.0299Z" stroke="white" stroke-width="0.1" stroke-miterlimit="10"/>
<path d="M21.2058 14.1492L21.1461 15.5224L22.4595 17.3134L22.5789 16C22.5192 16 21.2058 14.1492 21.2058 14.1492ZM7.11621 17.5522L7.23561 18.5074L8.31024 17.5522L8.25054 16.5373L7.11621 17.5522ZM23.4744 19.2836L23.1162 20.4179L23.8923 22.4477L24.3102 21.3731C24.3102 21.4328 23.4744 19.2836 23.4744 19.2836ZM7.47442 19.2836L8.01173 19.8806L8.90726 19.1044L8.42964 18.388L7.47442 19.2836ZM23.7729 25.3731L22.9371 25.9701L23.1759 27.8806L24.0117 27.403L23.7729 25.3731ZM14.3998 9.79102L14.5192 11.2836L16.3102 11.8209L16.2505 10.3283L14.3998 9.79102ZM20.6684 26.6268L20.549 26.5074L20.7282 27.8806L20.8476 28.1194L20.6684 26.6268Z" stroke="white" stroke-width="0.1" stroke-miterlimit="10"/>
<path d="M19.6535 12.5968V14.0296M19.6535 12.5968L21.2057 14.149L21.146 15.5222L19.6535 14.0296M19.6535 12.5968L17.9819 11.2833L18.0416 12.7759L19.6535 14.0296M11.1162 12.6565L10.9968 11.2236L12.7878 11.0445V12.5371L11.1162 12.6565ZM11.1162 12.6565L11.0565 14.0296L9.56395 14.5072V13.1938C9.56395 13.1938 11.1162 12.7162 11.1162 12.6565ZM10.758 19.1042L12.1311 19.5222L13.0266 19.2236L11.8326 18.746L10.758 19.1042ZM10.758 19.1042L9.80276 19.6416L8.96694 19.1042L9.98186 18.5072L10.758 19.1042ZM20.6684 26.6266L21.2654 26.5669L21.3848 28.2386L20.8475 28.1789L20.6684 26.6266ZM20.6684 26.6266L20.549 26.5072L20.1908 25.1341H20.2505L20.6684 26.6266ZM7.2356 18.4475L7.4744 19.2236L8.48933 18.3281L8.31022 17.4923C8.31022 17.552 7.2356 18.4475 7.2356 18.4475ZM23.8923 22.4475L23.2356 23.3431L23.7729 25.3729L24.4296 24.5968L23.8923 22.4475ZM16.1908 10.3281L16.2505 11.8207L17.9819 12.7162L17.9222 11.2236L16.1908 10.3281ZM8.19082 15.3431V16.5371L9.50425 15.8207L9.56395 14.6266L8.19082 15.3431ZM22.9371 25.9699L22.0416 26.3878L22.2804 28.1789L23.1759 27.8804L22.9371 25.9699ZM22.3998 17.3132L22.0416 18.5669L23.0565 20.4774L23.4147 19.3431C23.4744 19.2834 22.3998 17.3132 22.3998 17.3132Z" stroke="white" stroke-width="0.1" stroke-miterlimit="10"/>
<path d="M8.48929 18.3881L8.96691 19.1045L9.98183 18.5075L9.62362 17.7314L8.48929 18.3881ZM11.8326 18.7463L13.0863 19.2239L14.1012 19.1642L12.9669 18.6866C12.9072 18.6866 11.8326 18.7463 11.8326 18.7463ZM8.25049 16.5373L8.31019 17.5523L9.50422 16.8358L9.56392 15.7612C9.50422 15.7612 8.25049 16.5373 8.25049 16.5373ZM12.7281 11.1045V12.597L14.4594 12.7761L14.5191 11.2836L12.7281 11.1045ZM23.2356 23.403L22.3997 24.1194L22.8774 26.0299L23.7132 25.4328C23.7729 25.3731 23.2356 23.403 23.2356 23.403Z" stroke="white" stroke-width="0.1" stroke-miterlimit="10"/>
<path d="M11.0563 14.0897L10.9369 15.3434L9.50409 15.7613L9.56379 14.5673L11.0563 14.0897ZM11.0563 14.0897L11.116 12.7165L12.7877 12.5374L12.6086 13.9703L11.0563 14.0897ZM8.31006 17.5523L8.48916 18.3882L9.62349 17.7315L9.50409 16.8359L8.31006 17.5523ZM9.9817 18.5076L10.7578 19.1046L11.7727 18.8061L11.0563 18.1494C11.116 18.1494 9.9817 18.5076 9.9817 18.5076ZM23.116 20.418L22.519 21.4329L23.2951 23.3434L23.9518 22.4479C23.8921 22.4479 23.116 20.418 23.116 20.418ZM21.1459 15.5225L20.8474 16.8359L22.1011 18.5673L22.4593 17.3135C22.3996 17.3135 21.1459 15.5225 21.1459 15.5225ZM12.9071 18.6867L14.0414 19.1643L15.0563 19.2837L13.9817 18.8061L12.9071 18.6867ZM19.6533 23.7016V23.8807L20.1907 25.1941H20.2504L19.6533 23.7016ZM22.3996 24.1195L21.5041 24.6568L21.9817 26.4479L22.8772 26.03L22.3996 24.1195ZM14.519 11.2837L14.4593 12.7762L16.131 13.3135L16.2504 11.8807C16.3101 11.821 14.519 11.2837 14.519 11.2837Z" stroke="white" stroke-width="0.1" stroke-miterlimit="10"/>
<path d="M19.6535 14.0298L19.4147 15.4029M19.6535 14.0298L21.1461 15.5223L20.8476 16.8954L19.4147 15.4029M19.6535 14.0298L18.0416 12.776L17.8625 14.2089L19.4147 15.4029M9.56398 17.7312L9.92219 18.5074L11.0565 18.1492L10.758 17.373L9.56398 17.7312ZM11.1162 18.1492L11.8326 18.7462L12.9073 18.6268L12.3103 17.9701L11.1162 18.1492ZM16.3103 11.8208L16.1908 13.2536L17.8625 14.1492L18.0416 12.7163L16.3103 11.8208ZM9.50428 15.7611L9.44458 16.8357L10.758 16.4178L10.8774 15.3432C10.9371 15.3432 9.50428 15.7611 9.50428 15.7611ZM22.1013 18.5671L21.5043 19.6417L22.5192 21.4327L23.1162 20.4178L22.1013 18.5671ZM22.4595 21.4327L21.6834 22.2686L22.3998 24.1193L23.2356 23.4029L22.4595 21.4327Z" stroke="white" stroke-width="0.1" stroke-miterlimit="10"/>
<path opacity="0.1" d="M9.50415 16.8359L9.62355 17.7314L10.8176 17.3732V16.418L9.50415 16.8359Z" stroke="white" stroke-width="0.1" stroke-miterlimit="10"/>
<path d="M18.937 22.3282L18.9967 22.567L19.6534 23.8207V23.6416C19.6534 23.7013 18.937 22.3282 18.937 22.3282ZM12.7878 12.5371L12.6684 13.9102L14.2803 14.0893L14.5191 12.7162L12.7878 12.5371ZM12.3101 18.0296L12.9072 18.6864L14.0415 18.8058L13.5639 18.2088L12.3101 18.0296ZM11.0564 14.0893L10.937 15.3431L12.4295 15.2237L12.6684 13.9699C12.6684 13.9102 11.0564 14.0893 11.0564 14.0893ZM21.6833 22.2685L20.8475 22.9252L21.5042 24.5968L22.3997 24.0595L21.6833 22.2685Z" stroke="white" stroke-width="0.1" stroke-miterlimit="10"/>
<path d="M10.8176 17.373L11.1161 18.1491L12.3102 18.0297L12.1311 17.2536C12.0714 17.2536 10.8176 17.373 10.8176 17.373ZM18.0415 21.1342L18.1609 21.4924L18.9967 22.6267L18.937 22.3879L18.0415 21.1342ZM20.8475 16.8357L20.3102 18.0297L21.5042 19.6417L22.1012 18.567L20.8475 16.8357ZM13.5042 18.2088L13.9818 18.8059L15.1161 19.1641L14.6982 18.567L13.5042 18.2088ZM10.937 15.3432L10.8176 16.4178L12.1908 16.2984L12.4296 15.1641L10.937 15.3432Z" stroke="white" stroke-width="0.1" stroke-miterlimit="10"/>
<path opacity="0.1" d="M10.8176 16.4177V17.373L12.1311 17.2536L12.2505 16.2983C12.1908 16.2983 10.8176 16.4177 10.8176 16.4177Z" stroke="white" stroke-width="0.1" stroke-miterlimit="10"/>
<path d="M21.5043 19.6416L20.7879 20.5968L21.7431 22.2684L22.5192 21.4326C22.4595 21.4326 21.5043 19.6416 21.5043 19.6416ZM14.4595 12.7759L14.2207 14.149L15.8326 14.6863L16.1312 13.3132L14.4595 12.7759ZM17.0267 20.0595L17.2058 20.5371L18.161 21.4923L18.0416 21.1341L17.0267 20.0595ZM14.6983 18.5669L15.1162 19.1639L16.1909 19.761L15.8923 19.2236L14.6983 18.5669Z" stroke="white" stroke-width="0.1" stroke-miterlimit="10"/>
<path d="M19.4146 15.3433L18.9967 16.5971M19.4146 15.3433L20.9071 16.7762L20.3698 17.9702L18.9967 16.5971M19.4146 15.3433L17.8623 14.1493L17.5041 15.4627L18.9967 16.5971M20.7877 20.5971L20.0116 21.3732L20.9071 22.9851L21.7429 22.3284C21.6832 22.2687 20.7877 20.5971 20.7877 20.5971ZM20.7877 20.5971L19.6534 19.0448L20.3101 18.0299L21.5041 19.6418L20.7877 20.5971ZM15.8922 19.2239L16.1907 19.7612L17.2056 20.5374L17.0265 20.0597L15.8922 19.2239ZM12.0713 17.2538L12.2504 18.0299L13.4444 18.1493L13.3847 17.3732C13.4444 17.4329 12.0713 17.2538 12.0713 17.2538ZM12.6683 13.9105L12.4295 15.1642L13.9817 15.3433L14.2802 14.0896L12.6683 13.9105ZM16.1907 13.3135L15.8922 14.6866L17.4444 15.5224L17.8026 14.209L16.1907 13.3135ZM18.3399 20.5971L18.0414 21.1344L18.937 22.3284L19.3549 21.9105L18.3399 20.5971Z" stroke="white" stroke-width="0.1" stroke-miterlimit="10"/>
<path d="M12.1907 16.2987L12.0713 17.2539L13.3847 17.433L13.5638 16.4778L12.1907 16.2987ZM12.1907 16.2987L12.4295 15.1643L13.9817 15.4031L13.6235 16.4778L12.1907 16.2987ZM13.4444 17.433L13.5041 18.2091L14.6982 18.627V17.8509L13.4444 17.433ZM17.2653 19.4628L17.0265 20.0599L18.0414 21.1345L18.3399 20.5972L17.2653 19.4628ZM14.2802 14.1494L13.9817 15.3434L15.534 15.8211L15.9519 14.627C15.8922 14.627 14.2802 14.1494 14.2802 14.1494ZM14.7579 17.8509V18.627L15.9519 19.2837L16.0713 18.5673L14.7579 17.8509Z" stroke="white" stroke-width="0.1" stroke-miterlimit="10"/>
<path d="M15.4744 15.821L15.8923 14.627L17.4446 15.4031L16.967 16.5971L15.4744 15.821ZM15.4744 15.821L15.0565 16.8956L13.6237 16.418L13.9819 15.3434C13.9819 15.3434 15.4744 15.8807 15.4744 15.821ZM16.0117 18.5076L15.8923 19.224L17.0267 20.0598L17.2655 19.4628L16.0117 18.5076ZM19.6535 19.0449L18.9371 19.8807L20.0117 21.3135L20.7879 20.5374L19.6535 19.0449ZM18.9371 16.5971L18.3401 17.7314L19.5938 19.0449L20.2505 18.0299L18.9371 16.5971ZM13.6237 16.4777L13.4446 17.4329L14.758 17.8508L15.0565 16.9553L13.6237 16.4777Z" stroke="white" stroke-width="0.1" stroke-miterlimit="10"/>
<path d="M17.4444 15.4629L16.9668 16.6569L18.3399 17.7315L18.9369 16.5972L17.4444 15.4629ZM17.7429 18.6868L17.2653 19.4629L18.3996 20.5972L18.9966 19.8808L17.7429 18.6868Z" stroke="white" stroke-width="0.1" stroke-miterlimit="10"/>
<path d="M18.3997 17.7314L17.8027 18.6867L18.9968 19.9404L19.7132 19.1046C19.6535 19.0449 18.3997 17.7314 18.3997 17.7314Z" stroke="white" stroke-width="0.1" stroke-miterlimit="10"/>
<path opacity="0.1" d="M15.0563 16.9551L14.7578 17.8506L16.0712 18.567L16.4892 17.7312C16.4295 17.6715 15.0563 16.9551 15.0563 16.9551Z" stroke="white" stroke-width="0.1" stroke-miterlimit="10"/>
<path d="M16.4295 17.6714L16.0116 18.5072L17.2057 19.4625L17.6833 18.6863C17.743 18.6863 16.4295 17.6714 16.4295 17.6714ZM16.4295 17.6714L15.0564 16.955L15.4743 15.8804L16.9668 16.6565L16.4295 17.6714Z" stroke="white" stroke-width="0.1" stroke-miterlimit="10"/>
<path d="M19.7729 30.6866L20.549 30.5075L20.6684 29.7911L19.1162 30.1493L19.7729 30.6866ZM19.7729 30.6866L20.4296 31.1045M19.1759 22.9851L17.2654 23.1045L17.0863 24L19.5938 23.7612M20.8475 22.9254L19.952 23.4627L19.6535 23.7015M17.0266 24.9552L19.952 24.6567M21.5639 24.597L20.6684 25.0149L20.2505 25.1344M18.5191 29.4329L20.7281 28.9552M18.2803 32.4776L20.1908 31.8209M17.5042 32.1194L20.3699 31.2239M19.0565 33.9105L19.7132 32.9552M17.8027 33.7314L19.7729 32.7761M19.1162 32.6567L19.8326 32.7164M19.1162 33.4926L18.1012 34.2687L17.2057 34.6269L18.6385 33.612L19.2953 33.3135L18.6982 33.5523L19.4744 33.1941M24.549 31.1642L27.4147 30.3881L27.952 29.9702L24.7878 30.8657L24.549 31.1045M20.6087 27.2239L17.6236 27.7612L18.0415 28.6567L20.7281 28.1194M17.3251 26.8657L20.4893 26.3284M17.146 25.9105L20.2505 25.4926M18.6982 22.209L17.5639 22.3284L17.9818 21.5523M17.9818 21.5523H18.2206M17.9818 21.5523L18.1012 21.4329M17.9818 21.5523L14.6982 21.6717L15.2356 20.9552M15.2356 20.9552H17.6236M15.2356 20.9552L15.8923 20.4179H17.0863M16.9669 16.6567L16.4296 17.6717L17.743 18.6866L18.34 17.7314L16.9669 16.6567ZM20.7281 29.3135V27.9403L20.8475 28.1791V29.6717L20.7281 29.3135Z" stroke="white" stroke-width="0.1" stroke-miterlimit="10"/>
<path d="M20.0117 21.3135L19.355 21.9105L20.1311 23.403L20.7878 24.9553L21.2654 26.5672M21.2654 26.5672L21.3848 28.2388M21.2654 26.5672L21.9818 26.3881M26.161 28.8956L25.8027 29.6717L28.9072 28.8359L29.2654 28.1791L26.161 28.8956Z" stroke="white" stroke-width="0.1" stroke-miterlimit="10"/>
<path d="M25.8026 29.6716L24.8474 30.0895L24.9668 29.2537L26.1608 28.8955L25.8026 29.6716Z" stroke="white" stroke-width="0.1" stroke-miterlimit="10"/>
<path d="M25.8028 29.6715L25.3252 30.3282L24.6685 30.7461L24.8476 30.0894L25.8028 29.6715ZM24.967 29.2536L26.161 28.8954L26.3998 28.0596L25.1461 28.4178L24.967 29.2536Z" stroke="white" stroke-width="0.1" stroke-miterlimit="10"/>
<path d="M26.3997 28.0597L25.146 28.4179L25.2654 27.4627L26.5788 27.1045L26.3997 28.0597Z" stroke="white" stroke-width="0.1" stroke-miterlimit="10"/>
<path d="M25.2654 27.4628L26.5788 27.1046V26.1494L25.3251 26.3882V26.9852L25.2654 27.4628Z" stroke="white" stroke-width="0.1" stroke-miterlimit="10"/>
<path d="M26.5789 26.1491L26.4595 25.1938L25.3252 25.373V26.3879L26.5789 26.1491Z" stroke="white" stroke-width="0.1" stroke-miterlimit="10"/>
<path d="M25.8624 23.3432L25.2654 23.4029M25.0863 21.7313L28.0714 21.4925L28.549 22.2089L25.3848 22.5074L25.146 22.1492M27.1161 19.582L27.534 19.5223V17.791L25.6236 18.0298M25.6236 18.0298L25.5639 19.7014M25.6236 18.0298L24.6087 18.2686L24.1908 16.7164V16.3581L25.6236 16.1193M33.0863 24.2387L33.146 25.0746M39.5937 17.791L37.743 17.2537V18.2686M35.2355 18.1492L36.9072 18.388L35.2952 18.6865L35.2355 18.1492ZM35.2355 18.1492L32.549 17.9104L32.6087 19.0447V19.1044M41.5042 17.3134L41.743 16.3581M41.743 16.3581L40.2505 15.4626L40.0116 16.6567M41.743 16.3581L42.2206 17.0149M41.743 16.3581L42.1609 15.3432L42.8773 16.3581L42.6982 16.7761M40.0116 16.6567L41.3251 17.3731M40.0116 16.6567L39.8325 17.791M22.6982 12.7164L22.937 12.4775L23.1758 13.9104M24.0714 14.3283L23.4146 14.5671M21.9221 11.1641V10.7462L21.2654 8.71635L21.0266 9.19396M23.6534 2.5074L20.2505 2.02979M41.8624 8.77605L41.2057 9.07456M47.5937 12.0596L46.8773 11.8805M38.5191 28.1193L34.8176 28.7761M26.7579 30.6268L24.4893 31.2835M24.9072 20.4178H26.8176L27.4743 20.8955L24.9669 21.0149M26.1012 20.0596H24.8475M15.8923 20.4178L16.549 19.9999M14.0415 19.8208L16.4893 19.9402M15.0564 19.2835L15.6534 19.4626L15.1161 19.1641M14.8773 19.582L15.7131 19.5223M25.3251 25.3731L26.4594 25.194L26.2206 24.2387L25.3251 24.3581V25.3731Z" stroke="white" stroke-width="0.1" stroke-miterlimit="10"/>
<path d="M43.3549 15.5225L43.1758 16.418M43.7131 15.9404L42.9967 16.5971M10.8176 16.418V17.3732M25.3848 19.821L24.9072 19.7016L28.6684 19.5225L29.2057 19.5822L25.3848 19.821Z" stroke="white" stroke-width="0.1" stroke-miterlimit="10"/>
</g>
<path d="M68.7877 30.806C67.7728 30.806 66.6982 30.6866 65.8026 30.2687C65.0265 30.0299 64.2504 29.4926 63.5937 28.8358C62.937 28.1791 62.5788 27.5224 62.1608 26.6269C61.7429 25.7314 61.6235 24.8358 61.6235 23.7612V14.0299C61.6235 13.1343 61.7429 12.0597 62.1608 11.1642C62.5788 10.3881 63.0564 9.61195 63.5937 8.95524C64.2504 8.41793 65.0265 7.94031 65.8026 7.64181C66.6982 7.2239 67.5937 7.10449 68.7877 7.10449C70.7579 7.10449 72.4295 7.64181 73.6235 8.77613C74.8176 9.79106 75.5937 11.403 75.8325 13.3134H72.9668C72.8474 12.1194 72.4295 11.2239 71.6534 10.5672C70.8773 9.91046 69.9817 9.67166 68.7877 9.67166C67.4743 9.67166 66.4594 10.0896 65.6832 10.8657C65.0265 11.5224 64.6683 12.6567 64.6683 13.9702V23.8209C64.6683 25.1343 65.0862 26.1493 65.6832 26.9254C66.4594 27.7015 67.4743 28.1194 68.7877 28.1194C69.9817 28.1194 70.8773 27.8806 71.6534 27.1045C72.4295 26.4478 72.8474 25.5523 72.9668 24.3582H75.8325C75.5937 26.3284 74.937 27.8806 73.6235 28.8955C72.4295 30.3284 70.7579 30.806 68.7877 30.806ZM83.8325 12.8955V24.3582C83.8325 26.9851 85.1459 28.3582 87.5937 28.3582C90.2205 28.3582 91.4743 27.0448 91.4743 24.3582V12.8955H94.34V24.3582C94.34 26.4478 93.8026 28 92.6683 29.194C91.4743 30.3881 89.8026 30.8657 87.7131 30.8657C85.6235 30.8657 83.9519 30.3284 82.7579 29.194C81.5638 28 81.0862 26.4478 81.0862 24.3582V12.8955H83.8325ZM103.594 12.8955V15.8806H103.832C104.071 14.8657 104.728 14.0896 105.504 13.4329C106.4 12.7761 107.474 12.5373 108.728 12.5373C110.519 12.5373 111.952 13.0746 113.146 14.209C114.161 15.403 114.698 16.9552 114.698 19.0448V20.2388H111.832V19.5821C111.832 18.1493 111.415 17.1343 110.818 16.3582C110.221 15.5821 109.146 15.1642 107.832 15.1642C106.519 15.1642 105.624 15.5821 104.847 16.3582C104.071 17.1343 103.653 18.1493 103.653 19.4627V30.4478H100.788V12.8955H103.594ZM118.041 12.8955H121.027L125.325 25.3731C125.444 25.7911 125.564 26.2687 125.743 26.6866C125.862 27.1045 125.862 27.3433 125.862 27.5821C125.862 27.8209 125.862 28.1194 125.982 28.3582H126.221V27.5821L126.34 26.6866C126.459 26.2687 126.579 25.7911 126.758 25.3731L130.758 12.8955H133.862L127.653 30.4478H124.43L118.041 12.8955ZM140.131 14.4478C138.818 15.6418 138.34 17.3134 138.34 19.403V24.0597C138.34 26.1493 138.997 27.8209 140.131 29.0149C141.325 30.209 143.116 30.806 145.325 30.806C147.116 30.806 148.549 30.3881 149.862 29.612C151.176 28.8358 151.952 27.8209 152.31 26.5075H149.325C148.907 27.0448 148.43 27.5224 147.773 27.8209C147.116 28.0597 146.221 28.2388 145.325 28.2388C144.012 28.2388 142.997 27.8209 142.34 27.0448C141.564 26.2687 141.325 25.2537 141.325 23.9403V22.5075H152.489V19.2836C152.489 17.194 151.832 15.5224 150.698 14.3284C149.385 13.1343 147.713 12.5373 145.504 12.5373C142.997 12.597 141.325 13.1343 140.131 14.4478ZM149.385 19.2239V20.1194H141.086V19.2239C141.086 17.9105 141.504 16.8955 142.101 16.1194C142.877 15.3433 143.773 15.1045 145.206 15.1045C146.519 15.1045 147.534 15.5224 148.31 16.1194C148.967 16.8955 149.385 17.9702 149.385 19.2239Z" fill="white"/>
</svg>
