<svg width="62" height="62" viewBox="0 0 62 62" fill="none" xmlns="http://www.w3.org/2000/svg">
<path d="M31.5 55C44.7548 55 55.5 44.2548 55.5 31C55.5 17.7452 44.7548 7 31.5 7C18.2452 7 7.5 17.7452 7.5 31C7.5 44.2548 18.2452 55 31.5 55Z" fill="white"/>
<g clip-path="url(#clip0_524_16523)">
<path d="M31.4969 15L31.2786 15.729V36.8834L31.4969 37.0975L41.494 31.2931L31.4969 15Z" fill="#343434"/>
<path d="M31.497 15L21.5 31.2931L31.497 37.0976V26.8299V15Z" fill="#8C8C8C"/>
<path d="M31.4971 38.9567L31.374 39.1041V46.6397L31.4971 46.9928L41.5 33.1553L31.4971 38.9567Z" fill="#3C3C3B"/>
<path d="M31.497 46.9928V38.9567L21.5 33.1553L31.497 46.9928Z" fill="#8C8C8C"/>
<path d="M31.4971 37.0974L41.4939 31.2931L31.4971 26.8298V37.0974Z" fill="#141414"/>
<path d="M21.5 31.2931L31.4969 37.0974V26.8298L21.5 31.2931Z" fill="#393939"/>
</g>
<circle cx="31" cy="31" r="30" stroke="#5B7FFF" stroke-width="2"/>
<defs>
<clipPath id="clip0_524_16523">
<rect width="20" height="32" fill="white" transform="translate(21.5 15)"/>
</clipPath>
</defs>
</svg>
