<svg width="112" height="32" viewBox="0 0 112 32" fill="none" xmlns="http://www.w3.org/2000/svg">
<g clip-path="url(#clip0_524_16700)">
<path d="M15.6932 10.3999C15.2925 14.927 10.7708 19.023 9.24219 21.61C7.77642 24.0906 7.26583 26.4352 8.33804 30.9637C8.39496 31.2041 8.15434 31.4142 7.92984 31.3111C6.01428 30.4319 1.13916 27.7945 1.13916 21.5068C1.13916 12.6378 10.9498 12.321 10.4887 0.317255C10.4795 0.0759615 10.7434 -0.0880324 10.9409 0.0509805C14.1505 2.31074 16.0753 6.0849 15.6932 10.3999Z" fill="white"/>
<path d="M9.29385 31.6699C9.17876 31.6347 9.09851 31.5298 9.09395 31.4096C8.9823 28.4674 10.5653 26.5447 12.3403 25.1183C16.2802 21.952 18.7095 17.676 17.748 12.7286C17.6906 12.4335 18.0365 12.2387 18.2297 12.469C19.1565 13.5739 20.1006 15.0712 20.6231 16.1628C23.1431 21.5763 21.7982 27.7803 15.768 30.9109C13.8802 31.8482 11.6384 32.3862 9.29385 31.6699Z" fill="white"/>
<path fill-rule="evenodd" clip-rule="evenodd" d="M41.4782 8.04688V17.3948H32.5043V9.24963C32.5043 8.58525 31.9804 8.04688 31.3337 8.04688H28.3049V30.3236C28.3049 30.9877 28.8292 31.5264 29.4755 31.5264H32.5043V21.1654H41.4782V30.3236C41.4782 30.9877 42.0022 31.5264 42.6488 31.5264H45.6776V9.24963C45.6776 8.58525 45.1533 8.04688 44.5067 8.04688H41.4782Z" fill="white"/>
<path fill-rule="evenodd" clip-rule="evenodd" d="M59.4523 13.5751V24.714C59.4523 25.7262 58.9399 26.6857 58.071 27.1918C55.6444 28.6052 53.1339 26.8399 53.1339 24.5119V14.7789C53.1339 14.1137 52.5993 13.5747 51.9394 13.5747H48.8366H48.8362V24.9094C48.8362 28.556 51.7962 31.5396 55.4134 31.5396H57.1723C60.7898 31.5396 63.7494 28.556 63.7494 24.9091V14.7789C63.7494 14.1137 63.2148 13.5747 62.5553 13.5747H59.4523V13.5751Z" fill="white"/>
<path fill-rule="evenodd" clip-rule="evenodd" d="M107.131 31.5257H110.168V15.7275C110.168 15.0613 109.642 14.5215 108.994 14.5215H105.957V30.3194C105.957 30.9856 106.482 31.5257 107.131 31.5257Z" fill="white"/>
<path fill-rule="evenodd" clip-rule="evenodd" d="M108.088 12.7322C109.381 12.7322 110.43 11.6835 110.43 10.3896C110.43 9.09564 109.381 8.04688 108.088 8.04688C106.794 8.04688 105.745 9.09564 105.745 10.3896C105.745 11.6835 106.794 12.7322 108.088 12.7322Z" fill="white"/>
<path fill-rule="evenodd" clip-rule="evenodd" d="M78.8358 24.0777C78.8358 26.2179 77.1104 27.6426 75.0015 27.6426C72.8924 27.6426 71.167 26.2179 71.167 24.0777V21.0236C71.167 18.8834 72.8924 17.4585 75.0015 17.4585C77.1104 17.4585 78.8358 18.8834 78.8358 21.0236V24.0777ZM75.0015 13.5747C70.5427 13.5747 66.894 16.8116 66.894 21.3364V23.7838C66.894 28.3089 70.5427 31.5265 75.0015 31.5265C79.4606 31.5265 83.1086 28.3089 83.1086 23.7838V21.3364C83.1086 16.8116 79.4606 13.5747 75.0015 13.5747Z" fill="white"/>
<path fill-rule="evenodd" clip-rule="evenodd" d="M98.2835 24.0826C98.2835 26.2213 96.5466 27.6452 94.4242 27.6452C92.3016 27.6452 90.565 26.2213 90.565 24.0826V21.0304C90.565 18.8917 92.3016 17.4679 94.4242 17.4679C96.5466 17.4679 98.2835 18.8917 98.2835 21.0304V24.0826ZM94.4242 13.5867C93.0214 13.5867 91.6987 13.9025 90.5427 14.4751V9.24828C90.5427 8.58479 90.0085 8.04688 89.3499 8.04688H86.2642V23.7888C86.2642 28.3109 89.9362 31.5264 94.4242 31.5264C98.9119 31.5264 102.584 28.3109 102.584 23.7888V21.3431C102.584 16.8214 98.9119 13.5867 94.4242 13.5867Z" fill="white"/>
</g>
<defs>
<clipPath id="clip0_524_16700">
<rect width="110.769" height="32" fill="white" transform="translate(0.401123)"/>
</clipPath>
</defs>
</svg>
