<svg width="111" height="32" viewBox="0 0 111 32" fill="none" xmlns="http://www.w3.org/2000/svg">
<path d="M15.2921 10.3999C14.8914 14.927 10.3696 19.023 8.84107 21.61C7.37529 24.0906 6.86471 26.4352 7.93692 30.9637C7.99384 31.2041 7.75321 31.4142 7.52872 31.3111C5.61315 30.4319 0.73804 27.7945 0.738037 21.5068C0.738035 12.6378 10.5487 12.321 10.0876 0.317255C10.0784 0.0759615 10.3423 -0.0880324 10.5398 0.0509805C13.7493 2.31074 15.6741 6.0849 15.2921 10.3999Z" fill="url(#paint0_linear_645_16163)"/>
<path d="M8.89288 31.6697C8.77779 31.6345 8.69753 31.5296 8.69298 31.4094C8.58132 28.4672 10.1643 26.5445 11.9393 25.118C15.8792 21.9518 18.3085 17.6758 17.347 12.7284C17.2897 12.4332 17.6355 12.2384 17.8287 12.4688C18.7555 13.5737 19.6996 15.071 20.2221 16.1626C22.7421 21.5761 21.3972 27.7801 15.3671 30.9106C13.4792 31.848 11.2374 32.386 8.89288 31.6697Z" fill="url(#paint1_linear_645_16163)"/>
<path fill-rule="evenodd" clip-rule="evenodd" d="M41.0772 8.04688V17.3948H32.1033V9.24964C32.1033 8.58525 31.5794 8.04688 30.9327 8.04688H27.9039V30.3236C27.9039 30.9877 28.4282 31.5264 29.0745 31.5264H32.1033V21.1654H41.0772V30.3236C41.0772 30.9877 41.6012 31.5264 42.2478 31.5264H45.2766V9.24964C45.2766 8.58525 44.7523 8.04688 44.1057 8.04688H41.0772Z" fill="url(#paint2_linear_645_16163)"/>
<path fill-rule="evenodd" clip-rule="evenodd" d="M59.0513 13.5749V24.7138C59.0513 25.726 58.5389 26.6855 57.67 27.1916C55.2434 28.605 52.7329 26.8398 52.7329 24.5118V14.7787C52.7329 14.1135 52.1982 13.5745 51.5384 13.5745H48.4355L48.4351 24.9092C48.4351 28.5558 51.3951 31.5394 55.0124 31.5394H56.7713C60.3887 31.5394 63.3484 28.5558 63.3484 24.9089V14.7787C63.3484 14.1135 62.8137 13.5745 62.1543 13.5745L59.0513 13.5749Z" fill="url(#paint3_linear_645_16163)"/>
<path fill-rule="evenodd" clip-rule="evenodd" d="M106.729 31.5258H109.767V15.7276C109.767 15.0614 109.241 14.5216 108.593 14.5216H105.555V30.3195C105.555 30.9857 106.081 31.5258 106.729 31.5258Z" fill="url(#paint4_linear_645_16163)"/>
<path fill-rule="evenodd" clip-rule="evenodd" d="M107.687 12.7322C108.98 12.7322 110.029 11.6835 110.029 10.3896C110.029 9.09564 108.98 8.04688 107.687 8.04688C106.393 8.04688 105.344 9.09564 105.344 10.3896C105.344 11.6835 106.393 12.7322 107.687 12.7322Z" fill="url(#paint5_linear_645_16163)"/>
<path fill-rule="evenodd" clip-rule="evenodd" d="M78.4346 24.0775C78.4346 26.2177 76.7092 27.6425 74.6003 27.6425C72.4913 27.6425 70.7658 26.2177 70.7658 24.0775V21.0234C70.7658 18.8832 72.4913 17.4583 74.6003 17.4583C76.7092 17.4583 78.4346 18.8832 78.4346 21.0234V24.0775ZM74.6003 13.5745C70.1415 13.5745 66.4929 16.8114 66.4929 21.3362V23.7836C66.4929 28.3087 70.1415 31.5263 74.6003 31.5263C79.0594 31.5263 82.7074 28.3087 82.7074 23.7836V21.3362C82.7074 16.8114 79.0594 13.5745 74.6003 13.5745Z" fill="url(#paint6_linear_645_16163)"/>
<path fill-rule="evenodd" clip-rule="evenodd" d="M97.8824 24.0826C97.8824 26.2213 96.1455 27.6452 94.0231 27.6452C91.9005 27.6452 90.1639 26.2213 90.1639 24.0826V21.0304C90.1639 18.8917 91.9005 17.4679 94.0231 17.4679C96.1455 17.4679 97.8824 18.8917 97.8824 21.0304V24.0826ZM94.0231 13.5867C92.6204 13.5867 91.2976 13.9025 90.1416 14.4751V9.24828C90.1416 8.5848 89.6074 8.04688 88.9488 8.04688H85.8631V23.7888C85.8631 28.3109 89.5351 31.5264 94.0231 31.5264C98.5108 31.5264 102.183 28.3109 102.183 23.7888V21.3431C102.183 16.8214 98.5108 13.5867 94.0231 13.5867Z" fill="url(#paint7_linear_645_16163)"/>
<defs>
<linearGradient id="paint0_linear_645_16163" x1="-4.22974" y1="18.7013" x2="134.371" y2="28.2963" gradientUnits="userSpaceOnUse">
<stop stop-color="#FEDBA8"/>
<stop offset="0.878478" stop-color="#CF75D5"/>
</linearGradient>
<linearGradient id="paint1_linear_645_16163" x1="-4.22974" y1="18.7013" x2="134.371" y2="28.2963" gradientUnits="userSpaceOnUse">
<stop stop-color="#FEDBA8"/>
<stop offset="0.878478" stop-color="#CF75D5"/>
</linearGradient>
<linearGradient id="paint2_linear_645_16163" x1="-4.22974" y1="18.7013" x2="134.371" y2="28.2963" gradientUnits="userSpaceOnUse">
<stop stop-color="#FEDBA8"/>
<stop offset="0.878478" stop-color="#CF75D5"/>
</linearGradient>
<linearGradient id="paint3_linear_645_16163" x1="-4.22974" y1="18.7013" x2="134.371" y2="28.2963" gradientUnits="userSpaceOnUse">
<stop stop-color="#FEDBA8"/>
<stop offset="0.878478" stop-color="#CF75D5"/>
</linearGradient>
<linearGradient id="paint4_linear_645_16163" x1="-4.22974" y1="18.7013" x2="134.371" y2="28.2963" gradientUnits="userSpaceOnUse">
<stop stop-color="#FEDBA8"/>
<stop offset="0.878478" stop-color="#CF75D5"/>
</linearGradient>
<linearGradient id="paint5_linear_645_16163" x1="-4.22974" y1="18.7013" x2="134.371" y2="28.2963" gradientUnits="userSpaceOnUse">
<stop stop-color="#FEDBA8"/>
<stop offset="0.878478" stop-color="#CF75D5"/>
</linearGradient>
<linearGradient id="paint6_linear_645_16163" x1="-4.22974" y1="18.7013" x2="134.371" y2="28.2963" gradientUnits="userSpaceOnUse">
<stop stop-color="#FEDBA8"/>
<stop offset="0.878478" stop-color="#CF75D5"/>
</linearGradient>
<linearGradient id="paint7_linear_645_16163" x1="-4.22974" y1="18.7013" x2="134.371" y2="28.2963" gradientUnits="userSpaceOnUse">
<stop stop-color="#FEDBA8"/>
<stop offset="0.878478" stop-color="#CF75D5"/>
</linearGradient>
</defs>
</svg>
