<svg width="140" height="32" viewBox="0 0 140 32" fill="none" xmlns="http://www.w3.org/2000/svg">
<g clip-path="url(#clip0_524_16709)">
<path d="M109.125 15.9851C109.125 15.1689 109.125 14.4012 109.098 13.6923C109.08 13.0234 109.014 12.3567 108.9 11.6974C108.793 11.0953 108.605 10.5106 108.341 9.95941C108.062 9.39108 107.688 8.87396 107.237 8.42987C106.597 7.77391 105.835 7.2489 104.994 6.88418C104.084 6.51569 103.11 6.33302 102.129 6.34693C101.144 6.3342 100.166 6.5168 99.2516 6.88418C98.4059 7.24392 97.6393 7.76664 96.9955 8.42253C96.5449 8.86636 96.1731 9.38358 95.896 9.95207C95.6337 10.5034 95.4485 11.0882 95.3456 11.6901C95.2342 12.3496 95.1704 13.0162 95.1547 13.6849C95.1371 14.3939 95.1283 15.1616 95.1327 15.9778C95.1371 16.7939 95.1327 17.5557 95.1547 18.2691C95.1704 18.9378 95.2342 19.6045 95.3456 20.264C95.4485 20.8658 95.6337 21.4506 95.896 22.002C96.1742 22.5698 96.5459 23.0869 96.9955 23.5315C97.6382 24.1879 98.4051 24.7099 99.2516 25.0669C100.165 25.4367 101.143 25.6204 102.129 25.6071C103.11 25.6216 104.085 25.4379 104.994 25.0669C105.835 24.7071 106.597 24.1854 107.237 23.5315C107.687 23.0866 108.06 22.5696 108.341 22.002C108.605 21.4508 108.793 20.866 108.9 20.264C109.013 19.6065 109.078 18.9418 109.095 18.275C109.117 17.5616 109.128 16.7983 109.122 15.9836L109.125 15.9851ZM105.426 15.9851C105.426 16.8893 105.412 17.6423 105.382 18.2412C105.364 18.7332 105.315 19.2235 105.235 19.7091C105.18 20.0327 105.081 20.3472 104.941 20.6442C104.828 20.8835 104.679 21.1046 104.501 21.3003C104.225 21.6158 103.883 21.8664 103.5 22.0343C103.068 22.219 102.603 22.313 102.133 22.3103C101.661 22.3123 101.194 22.2184 100.759 22.0343C100.366 21.8695 100.015 21.6187 99.7316 21.3003C99.552 21.1055 99.4035 20.8842 99.2912 20.6442C99.1554 20.3469 99.0615 20.0322 99.0123 19.7091C98.934 19.2232 98.885 18.733 98.8656 18.2412C98.8391 17.6423 98.8259 16.8903 98.8259 15.9851C98.8259 15.0809 98.8391 14.3264 98.8656 13.7275C98.885 13.2357 98.934 12.7455 99.0123 12.2596C99.0615 11.9365 99.1554 11.6218 99.2912 11.3245C99.4038 11.0847 99.5523 10.8635 99.7316 10.6684C100.015 10.3505 100.366 10.0997 100.759 9.93445C101.193 9.74821 101.661 9.65423 102.133 9.65849C102.603 9.65361 103.069 9.74764 103.5 9.93445C103.883 10.1028 104.225 10.3534 104.501 10.6684C104.679 10.8643 104.827 11.0854 104.941 11.3245C105.081 11.6215 105.18 11.936 105.235 12.2596C105.315 12.7452 105.364 13.2355 105.382 13.7275C105.414 14.3249 105.426 15.0794 105.426 15.9851Z" fill="white"/>
<path d="M138.6 6.8371C138.598 6.6586 138.454 6.51429 138.275 6.5127H135.224C135.045 6.5135 134.9 6.65827 134.899 6.8371V18.1105L127.457 6.6037C127.407 6.52591 127.363 6.5127 127.253 6.5127H124.423C124.245 6.51507 124.101 6.65893 124.098 6.8371V25.1299C124.101 25.3079 124.245 25.4513 124.423 25.4529H127.473C127.651 25.4521 127.795 25.308 127.796 25.1299V13.8272L135.24 25.3604C135.291 25.4382 135.332 25.4514 135.444 25.4514H138.272C138.451 25.4506 138.595 25.3067 138.597 25.1285L138.6 6.8371Z" fill="white"/>
<path d="M118.143 6.8371C118.142 6.65827 117.998 6.5135 117.819 6.5127H114.77C114.591 6.5135 114.446 6.65827 114.446 6.8371V25.1285C114.446 25.3073 114.591 25.4521 114.77 25.4529H117.819C117.998 25.4521 118.142 25.3073 118.143 25.1285V6.8371Z" fill="white"/>
<path d="M81.6457 15.9852C81.6457 15.0751 81.6559 14.3177 81.6824 13.7144C81.7003 13.2225 81.7493 12.7322 81.8292 12.2465C82.111 10.6171 83.3587 9.65568 84.9514 9.65568C85.9906 9.66449 86.933 10.0491 87.5348 10.9239C87.8074 11.3324 88.0061 11.7855 88.122 12.2627C88.1309 12.3129 88.1768 12.348 88.2277 12.3434H91.8167C91.8681 12.3434 91.8871 12.3082 91.8783 12.2583C91.4864 10.0373 90.3018 8.04247 88.2086 7.05458C87.1799 6.57827 86.057 6.33995 84.9235 6.35733C82.9027 6.35733 81.2004 7.0492 79.8167 8.43293C79.0267 9.20288 78.4874 10.1933 78.2695 11.2748C78.0581 12.3395 77.9515 13.9091 77.9495 15.9838C77.9476 18.0584 78.0542 19.6275 78.2695 20.6913C78.4856 21.7741 79.0233 22.7665 79.8123 23.539C81.195 24.9217 82.8973 25.6131 84.9191 25.6131C86.0524 25.6303 87.1751 25.3925 88.2042 24.9173C90.2974 23.9294 91.482 21.9346 91.8739 19.7137C91.8827 19.6623 91.8636 19.6285 91.8123 19.6285H88.2218C88.1708 19.6232 88.1244 19.6586 88.1161 19.7093C88 20.1859 87.8013 20.6385 87.529 21.0465C86.9271 21.9272 85.9847 22.3074 84.9455 22.3148C83.3528 22.3148 82.1051 21.3548 81.8233 19.7254C81.7435 19.2397 81.6945 18.7494 81.6765 18.2575C81.6559 17.6513 81.6457 16.8924 81.6457 15.9852Z" fill="white"/>
<path d="M43.7389 6.8371C43.7381 6.65827 43.5933 6.5135 43.4145 6.5127H40.3657C40.1868 6.5135 40.0421 6.65827 40.0413 6.8371V25.1299C40.0429 25.3082 40.1874 25.4521 40.3657 25.453H43.4145C43.5927 25.4521 43.7373 25.3082 43.7389 25.1299V19.7604L46.1858 16.8349L51.2119 25.356C51.2506 25.4188 51.3202 25.4559 51.3939 25.453H55.0989C55.2691 25.453 55.3 25.3472 55.2148 25.2019L48.6343 14.0459L54.6717 6.80334C54.7936 6.65655 54.7422 6.5171 54.5513 6.5171H50.5014C50.4522 6.5142 50.4047 6.53626 50.3752 6.57581L43.7389 14.5347V6.8371Z" fill="white"/>
<path d="M65.951 22.3145C64.235 22.3145 62.6791 20.7263 62.6791 18.8298V6.8371C62.6783 6.65827 62.5335 6.5135 62.3547 6.5127H59.3058C59.127 6.5135 58.9822 6.65827 58.9814 6.8371V18.7828C58.9814 22.9589 62.1051 25.6129 65.951 25.6129C69.7969 25.6129 72.9205 22.9589 72.9205 18.7828V6.8371C72.9189 6.6586 72.7746 6.51429 72.5961 6.5127H69.5459C69.3676 6.5143 69.2237 6.65884 69.2229 6.8371V18.8298C69.2229 20.7248 67.6655 22.3145 65.951 22.3145Z" fill="white"/>
<path fill-rule="evenodd" clip-rule="evenodd" d="M9.39463 15.9851L18.8596 25.4516L24.8339 19.4772C25.9022 18.5153 27.5365 18.5581 28.553 19.5746C29.5695 20.5911 29.6123 22.2255 28.6504 23.2938L20.7664 31.1793C19.7074 32.2208 18.0089 32.2208 16.9499 31.1793L5.57518 19.8016V26.5642C5.57518 28.0567 4.36528 29.2666 2.8728 29.2666C1.38031 29.2666 0.17041 28.0567 0.17041 26.5642V5.39724C0.17041 3.90475 1.38031 2.69486 2.8728 2.69486C4.36528 2.69486 5.57518 3.90475 5.57518 5.39724V12.1598L16.9484 0.785131C18.0071 -0.257153 19.7062 -0.257153 20.7649 0.785131L28.6548 8.66917C29.6167 9.73745 29.5739 11.3718 28.5574 12.3883C27.541 13.4048 25.9066 13.4476 24.8383 12.4857L18.864 6.51137L9.39463 15.9851ZM18.864 13.2798C17.7697 13.2792 16.7827 13.938 16.3636 14.9488C15.9444 15.9597 16.1754 17.1235 16.9491 17.8976C17.7227 18.6716 18.8864 18.9033 19.8975 18.4847C20.9086 18.066 21.5678 17.0795 21.5678 15.9851C21.5682 15.2676 21.2836 14.5794 20.7765 14.0718C20.2694 13.5641 19.5815 13.2787 18.864 13.2783V13.2798Z" fill="white"/>
</g>
<defs>
<clipPath id="clip0_524_16709">
<rect width="139.429" height="32" fill="white" transform="translate(0.17041)"/>
</clipPath>
</defs>
</svg>
