<svg width="139" height="32" viewBox="0 0 139 32" fill="none" xmlns="http://www.w3.org/2000/svg">
<path d="M108.954 15.9853C108.954 15.1692 108.954 14.4015 108.928 13.6925C108.91 13.0236 108.843 12.3569 108.73 11.6976C108.623 11.0956 108.435 10.5109 108.17 9.95963C107.891 9.3913 107.518 8.87419 107.066 8.43009C106.426 7.77413 105.664 7.24913 104.823 6.8844C103.914 6.51591 102.94 6.33324 101.958 6.34715C100.973 6.33442 99.9952 6.51702 99.0811 6.8844C98.2354 7.24415 97.4687 7.76687 96.8249 8.42275C96.3744 8.86658 96.0026 9.3838 95.7255 9.95229C95.4632 10.5036 95.278 11.0884 95.175 11.6903C95.0637 12.3498 94.9999 13.0165 94.9842 13.6851C94.9666 14.3941 94.9578 15.1618 94.9622 15.978C94.9666 16.7941 94.9622 17.556 94.9842 18.2694C94.9999 18.938 95.0637 19.6047 95.175 20.2642C95.278 20.8661 95.4632 21.4509 95.7255 22.0022C96.0037 22.57 96.3754 23.0871 96.8249 23.5317C97.4677 24.1882 98.2346 24.7101 99.0811 25.0672C99.9946 25.4369 100.973 25.6206 101.958 25.6073C102.94 25.6218 103.914 25.4381 104.823 25.0672C105.665 24.7073 106.427 24.1856 107.066 23.5317C107.517 23.0868 107.89 22.5699 108.17 22.0022C108.435 21.451 108.623 20.8663 108.73 20.2642C108.842 19.6068 108.907 18.9421 108.925 18.2752C108.947 17.5618 108.957 16.7985 108.951 15.9839L108.954 15.9853ZM105.255 15.9853C105.255 16.8895 105.242 17.6426 105.211 18.2415C105.194 18.7334 105.145 19.2237 105.064 19.7094C105.009 20.0329 104.91 20.3475 104.771 20.6444C104.657 20.8837 104.509 21.1049 104.33 21.3005C104.055 21.616 103.713 21.8666 103.329 22.0345C102.897 22.2193 102.432 22.3132 101.963 22.3105C101.491 22.3125 101.023 22.2187 100.589 22.0345C100.196 21.8697 99.8444 21.6189 99.5611 21.3005C99.3815 21.1057 99.233 20.8844 99.1207 20.6444C98.9848 20.3472 98.891 20.0325 98.8418 19.7094C98.7635 19.2235 98.7144 18.7333 98.695 18.2415C98.6686 17.6426 98.6554 16.8905 98.6554 15.9853C98.6554 15.0811 98.6686 14.3266 98.695 13.7277C98.7145 13.2359 98.7635 12.7457 98.8418 12.2598C98.891 11.9367 98.9848 11.622 99.1207 11.3248C99.2333 11.0849 99.3818 10.8637 99.5611 10.6686C99.8448 10.3507 100.196 10.1 100.589 9.93468C101.023 9.74844 101.49 9.65446 101.963 9.65871C102.432 9.65384 102.898 9.74786 103.329 9.93468C103.713 10.1031 104.054 10.3536 104.33 10.6686C104.508 10.8646 104.657 11.0856 104.771 11.3248C104.91 11.6217 105.009 11.9363 105.064 12.2598C105.145 12.7455 105.194 13.2358 105.211 13.7277C105.243 14.3251 105.255 15.0796 105.255 15.9853Z" fill="url(#paint0_linear_645_16165)"/>
<path d="M138.429 6.83743C138.428 6.65893 138.283 6.51462 138.105 6.51303H135.053C134.874 6.51383 134.73 6.6586 134.729 6.83743V18.1108L127.287 6.60404C127.237 6.52624 127.193 6.51303 127.083 6.51303H124.252C124.074 6.5154 123.93 6.65926 123.928 6.83743V25.1303C123.93 25.3082 124.075 25.4516 124.252 25.4532H127.303C127.481 25.4524 127.625 25.3083 127.626 25.1303V13.8275L135.069 25.3607C135.121 25.4385 135.162 25.4517 135.273 25.4517H138.102C138.28 25.4509 138.425 25.3071 138.426 25.1288L138.429 6.83743Z" fill="url(#paint1_linear_645_16165)"/>
<path d="M117.973 6.83743C117.972 6.6586 117.827 6.51383 117.648 6.51303H114.6C114.421 6.51383 114.276 6.6586 114.275 6.83743V25.1288C114.276 25.3076 114.421 25.4524 114.6 25.4532H117.648C117.827 25.4524 117.972 25.3076 117.973 25.1288V6.83743Z" fill="url(#paint2_linear_645_16165)"/>
<path d="M81.4752 15.9853C81.4752 15.0752 81.4855 14.3178 81.5119 13.7145C81.5299 13.2226 81.5789 12.7323 81.6587 12.2466C81.9406 10.6172 83.1883 9.65578 84.7809 9.65578C85.8202 9.66459 86.7626 10.0492 87.3644 10.924C87.637 11.3325 87.8357 11.7856 87.9516 12.2628C87.9605 12.313 88.0064 12.3481 88.0573 12.3435H91.6462C91.6976 12.3435 91.7167 12.3083 91.7079 12.2583C91.316 10.0374 90.1314 8.04257 88.0382 7.05468C87.0094 6.57836 85.8866 6.34004 84.753 6.35743C82.7322 6.35743 81.03 7.0493 79.6462 8.43303C78.8562 9.20297 78.317 10.1934 78.0991 11.2749C77.8877 12.3396 77.781 13.9092 77.7791 15.9839C77.7771 18.0585 77.8838 19.6276 78.0991 20.6914C78.3152 21.7742 78.8528 22.7666 79.6418 23.5391C81.0246 24.9218 82.7269 25.6132 84.7486 25.6132C85.882 25.6304 87.0047 25.3926 88.0338 24.9174C90.127 23.9295 91.3116 21.9347 91.7035 19.7138C91.7123 19.6624 91.6932 19.6286 91.6418 19.6286H88.0514C88.0003 19.6233 87.954 19.6587 87.9457 19.7094C87.8295 20.186 87.6308 20.6386 87.3585 21.0466C86.7567 21.9273 85.8143 22.3075 84.775 22.3149C83.1824 22.3149 81.9347 21.3549 81.6528 19.7255C81.5731 19.2398 81.5241 18.7495 81.5061 18.2576C81.4855 17.6514 81.4752 16.8925 81.4752 15.9853Z" fill="url(#paint3_linear_645_16165)"/>
<path d="M43.5684 6.83743C43.5676 6.6586 43.4229 6.51383 43.244 6.51303H40.1952C40.0164 6.51383 39.8716 6.6586 39.8708 6.83743V25.1303C39.8724 25.3085 40.017 25.4524 40.1952 25.4534H43.244C43.4223 25.4524 43.5668 25.3085 43.5684 25.1303V19.7607L46.0154 16.8352L51.0415 25.3563C51.0802 25.4192 51.1497 25.4562 51.2235 25.4534H54.9284C55.0987 25.4534 55.1295 25.3475 55.0444 25.2022L48.4639 14.0462L54.5013 6.80367C54.6231 6.65688 54.5717 6.51743 54.3809 6.51743H50.331C50.2817 6.51453 50.2343 6.53659 50.2048 6.57615L43.5684 14.535V6.83743Z" fill="url(#paint4_linear_645_16165)"/>
<path d="M65.7806 22.3149C64.0646 22.3149 62.5086 20.7266 62.5086 18.8301V6.83743C62.5078 6.6586 62.363 6.51383 62.1842 6.51303H59.1354C58.9566 6.51383 58.8118 6.6586 58.811 6.83743V18.7831C58.811 22.9593 61.9347 25.6132 65.7806 25.6132C69.6264 25.6132 72.7501 22.9593 72.7501 18.7831V6.83743C72.7485 6.65893 72.6042 6.51462 72.4257 6.51303H69.3754C69.1972 6.51463 69.0533 6.65917 69.0525 6.83743V18.8301C69.0525 20.7251 67.495 22.3149 65.7806 22.3149Z" fill="url(#paint5_linear_645_16165)"/>
<path fill-rule="evenodd" clip-rule="evenodd" d="M9.22422 15.9853L18.6892 25.4517L24.6635 19.4774C25.7318 18.5155 27.3661 18.5583 28.3826 19.5748C29.3991 20.5913 29.4419 22.2257 28.48 23.2939L20.596 31.1795C19.537 32.2209 17.8385 32.2209 16.7794 31.1795L5.40477 19.8018V26.5644C5.40477 28.0569 4.19487 29.2668 2.70238 29.2668C1.2099 29.2668 0 28.0569 0 26.5644V5.39743C0 3.90494 1.2099 2.69505 2.70238 2.69505C4.19487 2.69505 5.40477 3.90494 5.40477 5.39743V12.16L16.778 0.78532C17.8367 -0.256964 19.5358 -0.256964 20.5945 0.78532L28.4844 8.66936C29.4463 9.73764 29.4035 11.372 28.387 12.3885C27.3705 13.405 25.7362 13.4478 24.6679 12.4859L18.6936 6.51156L9.22422 15.9853ZM18.6936 13.28C17.5992 13.2794 16.6123 13.9382 16.1931 14.949C15.7739 15.9599 16.005 17.1237 16.7786 17.8978C17.5522 18.6718 18.716 18.9035 19.7271 18.4849C20.7381 18.0662 21.3974 17.0797 21.3974 15.9853C21.3978 15.2678 21.1132 14.5796 20.6061 14.0719C20.099 13.5643 19.4111 13.2789 18.6936 13.2785V13.28Z" fill="url(#paint6_linear_645_16165)"/>
<defs>
<linearGradient id="paint0_linear_645_16165" x1="-23.7922" y1="21.4026" x2="194.01" y2="33.2277" gradientUnits="userSpaceOnUse">
<stop stop-color="#FEDBA8"/>
<stop offset="0.878478" stop-color="#CF75D5"/>
</linearGradient>
<linearGradient id="paint1_linear_645_16165" x1="-23.7922" y1="21.4026" x2="194.01" y2="33.2277" gradientUnits="userSpaceOnUse">
<stop stop-color="#FEDBA8"/>
<stop offset="0.878478" stop-color="#CF75D5"/>
</linearGradient>
<linearGradient id="paint2_linear_645_16165" x1="-23.7922" y1="21.4026" x2="194.01" y2="33.2277" gradientUnits="userSpaceOnUse">
<stop stop-color="#FEDBA8"/>
<stop offset="0.878478" stop-color="#CF75D5"/>
</linearGradient>
<linearGradient id="paint3_linear_645_16165" x1="-23.7922" y1="21.4026" x2="194.01" y2="33.2277" gradientUnits="userSpaceOnUse">
<stop stop-color="#FEDBA8"/>
<stop offset="0.878478" stop-color="#CF75D5"/>
</linearGradient>
<linearGradient id="paint4_linear_645_16165" x1="-23.7922" y1="21.4026" x2="194.01" y2="33.2277" gradientUnits="userSpaceOnUse">
<stop stop-color="#FEDBA8"/>
<stop offset="0.878478" stop-color="#CF75D5"/>
</linearGradient>
<linearGradient id="paint5_linear_645_16165" x1="-23.7922" y1="21.4026" x2="194.01" y2="33.2277" gradientUnits="userSpaceOnUse">
<stop stop-color="#FEDBA8"/>
<stop offset="0.878478" stop-color="#CF75D5"/>
</linearGradient>
<linearGradient id="paint6_linear_645_16165" x1="-23.7922" y1="21.4026" x2="194.01" y2="33.2277" gradientUnits="userSpaceOnUse">
<stop stop-color="#FEDBA8"/>
<stop offset="0.878478" stop-color="#CF75D5"/>
</linearGradient>
</defs>
</svg>
