<svg width="182" height="24" viewBox="0 0 182 24" fill="none" xmlns="http://www.w3.org/2000/svg">
<path d="M35.4017 23.3539L30.9397 15.6817C30.8374 15.6817 30.7735 15.6817 30.684 15.6817H27.2832V23.3539H22.834V0.875096H30.684C36.1944 0.875096 39.4929 3.85947 39.4929 8.38085C39.4929 11.4677 37.9843 13.7092 35.261 14.8363L40.3878 23.3411H35.4017V23.3539ZM27.296 11.6982H31.2721C33.7396 11.6982 34.8903 10.0972 34.8903 8.39366C34.8903 6.62609 33.7013 5.05065 31.2721 5.05065H27.296V11.6982ZM42.4334 23.3539V0.875096H46.8826V23.3411H42.4334V23.3539ZM67.5176 21.01C66.303 22.3933 63.6438 23.8022 60.7288 23.8022C54.2851 23.8022 49.0944 18.8966 49.0944 12.1209C49.0944 5.34525 54.2851 0.439608 60.7288 0.439608C65.178 0.478033 68.8984 2.78356 70.9184 6.38273L66.367 7.57392C65.1524 5.90882 62.9406 4.84572 60.7288 4.84572C56.5353 4.84572 53.7482 7.86852 53.7482 12.1337C53.7482 16.5911 56.8294 19.4474 60.9845 19.4474C64.8328 19.4474 66.8528 17.334 67.556 15.592V14.6314H61.3425V10.9938H71.3659V23.3539H67.5176C67.5176 21.4967 67.556 21.0484 67.556 21.01H67.5176ZM74.4982 23.3539V0.875096H78.9474V23.3411H74.4982V23.3539ZM101.922 0.875096V23.3411H97.7286L91.3489 14.6698C89.3288 11.9032 86.8613 8.38085 86.8358 8.38085H86.7974C86.7718 8.38085 86.8358 11.6214 86.8358 16.0787V23.3283H82.3866V0.875096H86.5801L93.0876 9.63608C94.6218 11.6598 97.4473 15.6689 97.4729 15.6689H97.5113C97.5496 15.6689 97.4729 12.0056 97.4729 8.22715V0.875096H101.922ZM19.6506 6.10095L16.0196 9.73855C16.1602 10.4558 16.237 11.2499 16.237 12.1081C16.237 16.7064 14.0763 19.4602 10.4581 19.4602C8.9495 19.4602 7.68379 18.9735 6.72491 18.0512L19.3054 5.44772C18.9729 4.84572 18.5894 4.29496 18.1547 3.78262C17.9757 3.56487 17.7839 3.37275 17.5922 3.16781C17.5666 3.14219 17.541 3.11658 17.5155 3.09096C17.4515 3.03973 17.4004 2.97568 17.3365 2.92445C15.4954 1.20812 13.1558 0.311523 10.4581 0.311523C7.35138 0.311523 4.6921 1.50271 2.78713 3.76981C0.984445 5.90882 0 8.86758 0 12.1081C0 14.2599 0.43469 16.2837 1.25293 18.0256L4.90944 14.3624C4.78159 13.6707 4.71767 12.915 4.71767 12.0953C4.71767 9.98191 5.15236 8.26558 5.99617 6.99754C6.9934 5.52457 8.54039 4.74325 10.4581 4.74325C11.954 4.74325 13.2069 5.21716 14.153 6.10095L1.59813 18.6789C1.94332 19.3065 2.33966 19.8957 2.78713 20.4208C2.87663 20.5233 2.96612 20.6257 3.0684 20.7282C3.17068 20.8435 3.28575 20.9588 3.40081 21.074C3.4136 21.0868 3.42638 21.0997 3.43917 21.1125C3.47752 21.1509 3.50309 21.1893 3.54145 21.2149C5.3697 22.9569 7.73493 23.8791 10.4581 23.8791C13.5777 23.8791 16.237 22.6879 18.1547 20.4208C19.9574 18.2818 20.9546 15.3358 20.9546 12.0953C20.9546 9.91787 20.4944 7.85571 19.6506 6.10095Z" fill="#0074F0"/>
<path d="M124.688 0.903034H110.567V23.3765H124.688V20.1917H114.143V13.3415H123.366V10.2469H114.143V4.05773H124.688V0.903034Z" fill="white"/>
<path d="M134.898 20.5823C133.516 20.5823 132.344 19.9514 132.344 17.9384L132.374 10.8779H136.31V7.96353H132.404L132.435 2.73576H129.039L129.009 7.96353H126.155V10.8779H129.009L128.979 18.6294C128.949 22.1146 131.052 23.6168 134.087 23.6168C135.169 23.6168 135.769 23.5267 136.34 23.4365V20.4321C135.98 20.4922 135.529 20.5823 134.898 20.5823Z" fill="white"/>
<path d="M142.772 0.0317383H139.407V23.3765H142.772V14.5734C142.772 12.4402 144.214 10.8178 146.347 10.8178C148.39 10.8178 149.712 12.2299 149.712 14.5433V23.3765H153.107V14.0926C153.107 10.0967 150.614 7.69313 147.098 7.69313C144.935 7.69313 143.493 8.62452 142.772 9.70613V0.0317383Z" fill="white"/>
<path d="M170.827 15.2944C170.827 10.6075 168.033 7.69313 163.617 7.69313C159.14 7.69313 155.925 10.6676 155.925 15.685C155.925 20.6724 159.17 23.6769 163.707 23.6769C167.282 23.6769 170.076 21.4836 170.677 18.7496L167.282 18.5693C166.862 19.9514 165.57 20.7626 163.617 20.7626C161.273 20.7626 159.681 19.2904 159.501 16.9469H170.827V15.2944ZM163.587 10.5774C166.08 10.5774 167.342 12.0797 167.432 14.303H159.531C159.681 11.8994 161.333 10.5774 163.587 10.5774Z" fill="white"/>
<path d="M181.276 7.78327C178.812 7.78327 177.46 8.92496 176.889 10.1268V7.96353H173.615V23.3765H176.98V14.994C176.98 12.7406 178.632 11.0581 181.276 11.0581V7.78327Z" fill="white"/>
</svg>
