<svg width="16" height="11" viewBox="0 0 16 11" fill="none" xmlns="http://www.w3.org/2000/svg">
    <path d="M1.15084 4.84916L5.05391 0.946094C5.44569 0.554307 6.06337 0.569035 6.43974 0.945404C6.81611 1.32177 6.81579 1.95449 6.43905 2.33124L4.2238 4.54649L14.1498 4.55661C14.6919 4.55634 15.1286 4.99298 15.1283 5.53511C15.1282 5.80618 15.0226 6.06239 14.8418 6.24318C14.661 6.42396 14.4048 6.52958 14.1337 6.52972L4.22275 6.53465L6.4358 8.7477C6.8272 9.13909 6.81185 9.75679 6.43511 10.1335C6.04333 10.5253 5.42565 10.5106 5.04928 10.1342L1.1502 6.23494C0.758808 5.84354 0.759108 5.24111 1.15089 4.84932L1.15084 4.84916Z"
          fill="#FAFBFB"/>
</svg>
