<svg width="16" height="11" viewBox="0 0 16 11" fill="none" xmlns="http://www.w3.org/2000/svg">
    <path d="M14.8492 4.84916L10.9461 0.946094C10.5543 0.554307 9.93663 0.569035 9.56026 0.945404C9.18389 1.32177 9.18421 1.95449 9.56095 2.33124L11.7762 4.54649L1.85019 4.55661C1.30806 4.55634 0.87142 4.99298 0.87169 5.53511C0.871825 5.80618 0.977448 6.06239 1.15823 6.24318C1.33901 6.42396 1.59523 6.52958 1.86629 6.52972L11.7772 6.53465L9.5642 8.7477C9.1728 9.13909 9.18814 9.75679 9.56489 10.1335C9.95667 10.5253 10.5744 10.5106 10.9507 10.1342L14.8498 6.23494C15.2412 5.84354 15.2409 5.24111 14.8491 4.84932L14.8492 4.84916Z"
          fill="#FAFBFB"/>
</svg>
