<svg width="62" height="62" viewBox="0 0 62 62" fill="none" xmlns="http://www.w3.org/2000/svg">
<g clip-path="url(#clip0_524_16498)">
<path d="M31.5 55C28.2606 55 25.1177 54.365 22.1577 53.1136C19.2993 51.9045 16.7339 50.1739 14.5291 47.9709C12.3261 45.7678 10.5955 43.2007 9.3864 40.3423C8.13501 37.3823 7.5 34.2394 7.5 31C7.5 27.7606 8.13501 24.6177 9.3864 21.6577C10.5955 18.7993 12.3261 16.2339 14.5291 14.0291C16.7339 11.8261 19.2993 10.0955 22.1577 8.8864C25.1177 7.63501 28.2606 7 31.5 7C34.7394 7 37.8823 7.63501 40.8423 8.8864C43.7007 10.0955 46.2661 11.8261 48.4709 14.0291C50.6739 16.2322 52.4045 18.7993 53.6136 21.6577C54.865 24.6177 55.5 27.7606 55.5 31C55.5 34.2394 54.865 37.3823 53.6136 40.3423C52.4045 43.2007 50.6739 45.7661 48.4709 47.9709C46.2678 50.1739 43.7007 51.9045 40.8423 53.1136C37.8823 54.3667 34.7394 55 31.5 55Z" fill="white"/>
<path d="M31.5 53.7283C44.0525 53.7283 54.2283 43.5525 54.2283 31C54.2283 18.4475 44.0525 8.27173 31.5 8.27173C18.9475 8.27173 8.77173 18.4475 8.77173 31C8.77173 43.5525 18.9475 53.7283 31.5 53.7283Z" fill="black"/>
<path d="M32.0588 26.731V37.2027L42.3104 30.9898L32.0588 26.731Z" fill="white"/>
<path d="M32.0588 25.549L42.2173 29.7705L39.789 25.8114L44.9521 20.6484L41.8668 17.5614L37.4437 21.9861L32.0588 13.2078V25.549Z" fill="white"/>
<path d="M30.9682 37.2027V26.731L20.7166 30.9898L30.9682 37.2027Z" fill="white"/>
<path d="M20.8097 29.7705L30.9682 25.549V13.2078L25.585 21.9861L21.1603 17.5614L18.075 20.6484L23.238 25.8098L20.8097 29.7705Z" fill="white"/>
<path d="M42.1953 34.2495L32.0588 40.393V48.5296L36.2296 42.652L40.5832 47.0056L43.6685 43.9203L38.7916 39.0434L42.1953 34.2495Z" fill="white"/>
<path d="M30.9681 40.393L20.8316 34.2495L24.2353 39.0434L19.3584 43.9203L22.4437 47.0056L26.7973 42.6537L30.9681 48.5279V40.393Z" fill="white"/>
</g>
<circle cx="31" cy="31" r="30" stroke="#E85BFF" stroke-width="2"/>
<defs>
<clipPath id="clip0_524_16498">
<rect width="48" height="48" fill="white" transform="translate(7.5 7)"/>
</clipPath>
</defs>
</svg>
