<svg width="62" height="62" viewBox="0 0 62 62" fill="none" xmlns="http://www.w3.org/2000/svg">
<circle cx="31" cy="31" r="30" stroke="#66C8FF" stroke-width="2"/>
<rect x="7.5" y="7" width="48" height="48" rx="24" fill="white"/>
<g clip-path="url(#clip0_524_16486)">
<path d="M20.0592 28.446L19.7582 28.8934C16.2958 34.2614 17.0485 41.2697 21.7151 45.7431C24.2743 48.4271 27.8872 49.7691 31.5001 49.7691C31.5001 49.7691 31.5001 49.7691 20.0592 28.446Z" fill="#00A3FF"/>
<path opacity="0.6" d="M31.4999 34.8581L20.0591 28.2971C31.4999 49.7693 31.4999 49.7693 31.4999 49.7693C31.4999 45.1468 31.4999 39.7788 31.4999 34.8581Z" fill="#00A3FF"/>
<path opacity="0.6" d="M42.9409 28.446L43.2419 28.8934C46.7043 34.2614 45.9516 41.2697 41.2849 45.7431C38.5753 48.4271 35.1129 49.7691 31.5 49.7691C31.5 49.7691 31.5 49.7691 42.9409 28.446Z" fill="#00A3FF"/>
<path opacity="0.2" d="M31.5 34.8581L42.9409 28.2971C31.5 49.7693 31.5 49.7693 31.5 49.7693C31.5 45.1468 31.5 39.7788 31.5 34.8581Z" fill="#00A3FF"/>
<path opacity="0.2" d="M31.5 20.394V31.5775L41.4355 26.0603L31.5 20.394Z" fill="#00A3FF"/>
<path opacity="0.6" d="M31.4999 20.394L21.5645 26.0603L31.4999 31.5775V20.394Z" fill="#00A3FF"/>
<path d="M31.4999 11L21.5645 26.0604L31.4999 20.3941V11Z" fill="#00A3FF"/>
<path opacity="0.6" d="M31.5 20.3941L41.4355 26.0604L31.5 11V20.3941Z" fill="#00A3FF"/>
</g>
<defs>
<clipPath id="clip0_524_16486">
<rect width="28" height="38.7692" fill="white" transform="translate(17.5 11)"/>
</clipPath>
</defs>
</svg>
