<svg width="28" height="9" viewBox="0 0 28 9" fill="none" xmlns="http://www.w3.org/2000/svg">
<path d="M12.5858 6.58579L9.74904 3.74903C8.36542 2.36542 7.67361 1.67361 6.86628 1.17888C6.1505 0.740249 5.37015 0.417015 4.55386 0.221041C3.63316 0 2.65479 0 0.698068 0H27.3019C25.3452 0 24.3668 0 23.4461 0.221041C22.6299 0.417015 21.8495 0.740249 21.1337 1.17888C20.3264 1.67361 19.6346 2.36542 18.251 3.74903L15.4142 6.58579C14.6332 7.36684 13.3668 7.36683 12.5858 6.58579Z" fill="#1E1F25"/>
<path d="M27.3019 1C25.2976 1 24.4584 1.00643 23.6796 1.19341C22.9653 1.36489 22.2825 1.64772 21.6562 2.03152C20.9733 2.45003 20.3753 3.03887 18.9581 4.45614L16.1213 7.2929C14.9497 8.46447 13.0503 8.46446 11.8787 7.29289L9.04193 4.45614C7.62466 3.03887 7.02672 2.45003 6.34378 2.03152C5.71748 1.64772 5.03466 1.36489 4.32041 1.19341C3.54157 1.00643 2.70239 1 0.698068 1H0V0H0.698068C2.65479 0 3.63315 0 4.55386 0.221041C5.37015 0.417014 6.1505 0.74025 6.86628 1.17888C7.67361 1.67361 8.36542 2.36542 9.74904 3.74903L12.5858 6.58579C13.3668 7.36683 14.6332 7.36684 15.4142 6.58579L18.251 3.74903C19.6346 2.36542 20.3264 1.67361 21.1337 1.17888C21.8495 0.74025 22.6299 0.417014 23.4461 0.221041C24.3668 0 25.3452 0 27.3019 0H28V1H27.3019Z" fill="#252833"/>
</svg>
