<svg width="182" height="40" viewBox="0 0 182 40" fill="none" xmlns="http://www.w3.org/2000/svg">
<g clip-path="url(#clip0_524_16698)">
<path fill-rule="evenodd" clip-rule="evenodd" d="M1.389 0.883976C5.89224 6.40468 10.8367 13.3404 11.6364 14.4622C11.6791 14.522 11.7099 14.5653 11.7283 14.5909C12.1546 15.1861 12.5066 15.6285 12.7738 15.9645L12.7739 15.9646C13.3672 16.7105 13.5432 16.9318 13.1892 17.1351C12.9036 17.299 12.609 17.3531 12.3151 17.3531C11.9826 17.3531 11.608 17.1914 11.3353 16.93C11.1425 16.7454 9.8233 14.8101 8.02698 11.9949C6.65256 9.84068 5.50232 8.05369 5.47094 8.02377C5.3984 7.95457 5.39964 7.95692 7.88685 12.452C9.4486 15.2746 10.5169 17.3605 10.5169 17.494C10.5169 17.7654 10.4436 17.9081 10.1121 18.2816C9.55941 18.9044 9.31235 19.6041 9.13402 21.0522C8.9341 22.6755 8.37192 23.8223 6.81395 25.7848C5.90197 26.9337 5.75275 27.1442 5.52262 27.6073C5.23278 28.1904 5.15307 28.517 5.12077 29.2533C5.08662 30.0319 5.15312 30.5348 5.3886 31.2791C5.59476 31.9307 5.80993 32.3611 6.36003 33.2218C6.83477 33.9643 7.10813 34.5162 7.10813 34.7322C7.10813 34.904 7.1406 34.9042 7.87624 34.7365C9.63673 34.3348 11.0662 33.6287 11.8702 32.7632C12.3678 32.2274 12.4846 31.9316 12.4884 31.1976C12.4909 30.7174 12.4742 30.6169 12.3457 30.3407C12.1365 29.8909 11.7557 29.5172 10.9164 28.9377C9.81663 28.1782 9.34693 27.5669 9.21718 26.7262C9.11076 26.0364 9.23423 25.5497 9.84261 24.2618C10.4723 22.9286 10.6284 22.3606 10.7339 21.0167C10.8021 20.1485 10.8965 19.8062 11.1435 19.5315C11.401 19.2449 11.6329 19.1478 12.2702 19.0597C13.3094 18.9164 13.971 18.6449 14.5149 18.1386C14.9867 17.6995 15.1842 17.2763 15.2145 16.6393L15.2375 16.1564L14.9738 15.846C14.019 14.7214 0.749554 0 0.690793 0C0.67824 0 0.992444 0.397816 1.389 0.883976ZM7.64413 30.1343C7.86001 29.748 7.74531 29.2516 7.38418 29.009C7.04298 28.7799 6.51295 28.8879 6.51295 29.1865C6.51295 29.2776 6.56283 29.3438 6.67528 29.4024C6.8646 29.5008 6.87834 29.6115 6.72938 29.8376C6.57853 30.0667 6.5907 30.268 6.76373 30.4047C7.04261 30.6254 7.43737 30.504 7.64413 30.1343ZM14.1421 9.07502C13.7161 9.00828 13.6981 9.00045 13.8986 8.96933C14.2828 8.90965 15.1899 8.99098 15.815 9.14113C17.2743 9.49149 18.6022 10.3891 20.0196 11.9832L20.3961 12.4067L20.9349 12.3192C23.2044 11.9508 25.5131 12.2436 27.4442 13.1446C27.9755 13.3925 28.813 13.886 28.9176 14.0128C28.9509 14.0532 29.0123 14.3133 29.0536 14.5909C29.1971 15.5513 29.1253 16.2874 28.8345 16.8372C28.6763 17.1364 28.6675 17.2312 28.7738 17.4873C28.8587 17.6916 29.0955 17.8428 29.33 17.8425C29.8099 17.8418 30.3263 17.0583 30.5657 15.968L30.6607 15.5349L30.8491 15.7504C31.882 16.9326 32.6934 18.5447 32.8328 19.6922L32.869 19.9914L32.6955 19.7194C32.3965 19.2515 32.0964 18.9328 31.7118 18.6758C31.0189 18.2126 30.2859 18.055 28.3453 17.9517C26.5924 17.8584 25.6005 17.7071 24.6168 17.3831C22.943 16.832 22.0994 16.0979 20.1113 13.4633C19.2283 12.2931 18.6825 11.6456 18.1396 11.1242C16.9059 9.93947 15.6938 9.31814 14.1421 9.07502ZM29.313 11.6878C29.3571 10.9037 29.4624 10.3865 29.6741 9.91412C29.7578 9.72715 29.8363 9.57412 29.8484 9.57412C29.8606 9.57412 29.8241 9.71213 29.7674 9.88077C29.6136 10.3392 29.5883 10.9662 29.6944 11.6957C29.8288 12.6213 29.9054 12.7548 30.8739 13.7546C31.3282 14.2236 31.8566 14.8151 32.0482 15.069L32.3965 15.5308L32.0482 15.2008C31.6222 14.7973 30.6427 14.0103 30.4264 13.8978C30.2812 13.8223 30.2596 13.8236 30.1702 13.9136C30.0878 13.9965 30.0703 14.1211 30.0589 14.71C30.041 15.6279 29.9173 16.217 29.6183 16.8061C29.4566 17.1247 29.4311 17.0567 29.5774 16.6971C29.6867 16.4286 29.6977 16.3105 29.697 15.422C29.6953 13.6367 29.4853 13.2075 28.2547 12.4722C27.9432 12.286 27.4294 12.0173 27.1133 11.8752C26.7975 11.7331 26.5464 11.6094 26.5554 11.6002C26.5903 11.5651 27.7905 11.9189 28.2735 12.1066C28.992 12.3858 29.1105 12.422 29.1978 12.3883C29.2562 12.3657 29.2846 12.1936 29.313 11.6878ZM13.6855 10.3172C13.5697 11.6956 14.1047 13.5394 14.9695 14.742C15.6399 15.6742 16.6791 16.3986 17.4463 16.4686C17.9486 16.5144 18.0996 16.3555 17.8723 16.0204C17.5568 15.5549 17.1688 14.8383 17.0661 14.5315C17.0023 14.3408 16.8637 13.7778 16.758 13.2803C16.3973 11.5817 16.0427 10.9202 15.2237 10.4178C14.9252 10.2347 14.2878 9.99506 13.9182 9.92697L13.7213 9.89067L13.6855 10.3172ZM28.2641 23.6922C24.2226 22.0486 22.7992 20.622 22.7992 18.2148C22.7992 17.8605 22.8114 17.5707 22.826 17.5707C22.8408 17.5707 22.9971 17.6876 23.1734 17.8305C23.993 18.4944 24.9107 18.778 27.4514 19.1523C28.9462 19.3728 29.7875 19.5506 30.5637 19.8107C33.0303 20.637 34.5565 22.3138 34.9205 24.5979C35.0262 25.2616 34.9642 26.5061 34.7928 27.1621C34.6574 27.6802 34.2442 28.6139 34.1347 28.6498C34.1043 28.6597 34.0745 28.5422 34.0668 28.3822C34.0253 27.5245 33.5961 26.6896 32.8756 26.064C32.0562 25.3529 30.9554 24.7869 28.2641 23.6922ZM25.2316 23.5114C25.2884 23.6821 25.3762 24.0706 25.4268 24.375C25.7505 26.3209 24.7392 27.8931 22.7721 28.5023C22.5638 28.5668 21.7436 28.729 20.9492 28.8625C19.3412 29.133 18.6235 29.3245 17.9025 29.6753C17.3912 29.9241 16.7722 30.2967 16.809 30.3337C16.8208 30.3457 16.9375 30.3176 17.0683 30.2712C17.9775 29.9487 18.9893 29.7818 20.5267 29.701C21.1368 29.6691 21.8307 29.618 22.0688 29.5878C23.4384 29.4135 24.3877 28.9932 25.1259 28.2344C25.5366 27.812 25.7815 27.4186 25.9789 26.8638C26.1039 26.5119 26.1208 26.3812 26.1218 25.7577C26.1229 25.1224 26.1077 25.0062 25.9721 24.6154C25.7946 24.1031 25.5853 23.7187 25.3201 23.418L25.1285 23.2009L25.2316 23.5114ZM27.2795 27.6984C26.7424 26.5324 26.6192 25.4068 26.9133 24.357C26.9449 24.2447 26.9954 24.1529 27.026 24.1529C27.0564 24.1529 27.183 24.2222 27.3075 24.3067C27.5548 24.4749 28.0512 24.7583 29.3732 25.4864C31.0232 26.3949 31.9638 27.0984 32.6035 27.9023C33.1637 28.6062 33.5103 29.4079 33.6771 30.3855C33.7717 30.9393 33.7163 32.2719 33.5757 32.8295C33.1321 34.5878 32.1011 35.9688 30.6307 36.7748C30.4153 36.8928 30.2219 36.9897 30.2008 36.9902C30.18 36.9906 30.2585 36.7891 30.3753 36.5422C30.8699 35.4977 30.9263 34.4817 30.5524 33.351C30.3233 32.6586 29.8564 31.8137 28.9137 30.3857C27.8177 28.7256 27.549 28.2838 27.2795 27.6984ZM17.165 31.5226C15.4653 31.8015 13.5992 32.71 12.0995 33.9891L11.653 34.37L12.0454 34.4319C14.0931 34.7547 14.6445 35.0411 16.0648 36.5191C16.8822 37.3694 17.1583 37.5587 17.8363 37.7335C18.8321 37.9902 19.8136 37.5185 20.1503 36.6212C20.3007 36.2203 20.2807 35.5564 20.1081 35.2231C19.6976 34.4293 18.5016 34.1728 17.9232 34.7542C17.4415 35.2385 17.5818 35.9681 18.181 36.0935C18.3181 36.1224 18.3142 36.1162 18.146 36.0394C17.8838 35.9196 17.7699 35.7536 17.7684 35.4894C17.7651 34.8699 18.467 34.5221 19.1199 34.8195C19.598 35.0376 19.7879 35.3223 19.7879 35.8214C19.7879 36.59 19.1402 37.1692 18.3865 37.0746C17.9836 37.0238 17.4909 36.7636 17.2267 36.462C16.562 35.7027 16.8209 34.5046 17.7491 34.0449C18.4557 33.695 19.3949 33.7812 20.1233 34.2629C20.9601 34.8165 21.316 35.3224 22.0367 36.9829C22.2715 37.5236 22.5734 38.1322 22.7077 38.3354C23.3905 39.3677 24.2085 39.874 25.1939 39.874C25.7374 39.874 26.1462 39.7737 26.6606 39.5144C27.0427 39.3215 27.5845 38.9551 27.5454 38.9159C27.5344 38.9048 27.3759 38.9546 27.1931 39.0265C26.1173 39.4503 25.0236 39.4212 24.3884 38.9515C23.9884 38.656 23.6658 38.067 23.5 37.3305C23.4713 37.203 23.3766 36.64 23.2895 36.0792C23.0686 34.658 22.8566 34.0192 22.3622 33.286C21.8562 32.536 20.8837 31.9065 19.7963 31.6254C19.1179 31.45 17.8976 31.4023 17.165 31.5226ZM14.7844 20.5343C14.9312 19.9867 15.4054 19.4644 15.8933 19.3131C16.2035 19.2169 16.8446 19.2783 17.1461 19.4331C17.7304 19.7331 18.1545 20.4165 18.0625 20.9099C17.9502 21.5114 16.9844 21.9927 15.8735 22.0006C15.3061 22.0045 15.0965 21.9275 14.8798 21.6353C14.7457 21.4543 14.6949 20.8684 14.7844 20.5343ZM16.9969 19.6475C17.2883 19.8272 17.3632 20.093 17.1919 20.3388C17.0739 20.5082 16.7086 20.6691 16.4416 20.6691C16.0405 20.6691 15.603 20.3814 15.603 20.1179C15.603 19.5885 16.4421 19.3052 16.9969 19.6475ZM104.077 21.1634C103.17 18.1488 104.665 15.6483 107.854 14.8448C108.769 14.6143 112.91 14.7183 113.62 14.9897C113.88 15.0892 113.994 15.471 113.996 16.2556C113.998 16.8736 114.065 17.6241 114.146 17.9233C114.268 18.377 114.196 18.4663 113.718 18.459C113.285 18.4522 113.023 18.1985 112.657 17.4308C112.073 16.2046 111.366 15.8146 109.719 15.81C107.615 15.8039 106.077 17.22 106.327 18.9311C106.49 20.0445 107.603 21.1401 110.099 22.6462C112.475 24.0789 113.861 25.2571 114.413 26.3127C115.891 29.1348 114.629 32.1549 111.338 33.6766C109.649 34.4577 106.817 34.5384 104.827 33.8623L103.552 33.4293V31.3925C103.552 29.5478 103.596 29.3553 104.016 29.3553C104.368 29.3553 104.52 29.5878 104.643 30.3161C104.951 32.1269 106.327 33.2263 108.287 33.2263C110.207 33.2263 111.549 32.1773 112.063 30.2751C112.282 29.4648 112.244 29.166 111.81 28.2721C111.289 27.2004 110.393 26.4892 107.349 24.733C105.66 23.7583 104.465 22.4552 104.077 21.1634ZM44.3997 16.0483C43.9843 16.0483 43.8223 15.9125 43.8223 15.5644C43.8223 15.1035 43.9843 15.0805 47.2393 15.0805C50.2606 15.0805 50.6472 15.126 50.5779 15.4727C50.5345 15.6885 50.1171 15.9878 49.6497 16.138L48.7997 16.4112L48.7272 22.5808C48.6786 26.6977 48.7469 29.0725 48.9323 29.7181C49.4835 31.6383 51.1648 32.7425 53.537 32.7425C55.1884 32.7425 56.1531 32.3564 57.3652 31.2098C58.6688 29.9771 58.8767 28.8058 58.8726 22.7183C58.8686 16.7137 58.764 16.2181 57.4745 16.0935C56.8876 16.0367 56.691 15.8999 56.691 15.5491C56.691 15.1117 56.8846 15.0805 59.6046 15.0805C62.3563 15.0805 62.5182 15.1073 62.5182 15.5644C62.5182 15.8625 62.355 16.0497 62.0932 16.0519C60.9687 16.0618 60.9481 16.1688 60.7967 22.7531C60.6397 29.5906 60.493 30.4002 59.1073 32.0751C58.7077 32.5583 57.7546 33.2599 56.9896 33.6344C55.7428 34.2445 55.3462 34.3146 53.1702 34.3106C51.1644 34.3065 50.5312 34.2096 49.5282 33.7531C48.0641 33.0866 47.112 32.224 46.41 30.9279C45.9201 30.0231 45.8782 29.5335 45.7648 23.4034C45.6348 16.3865 45.5719 16.0483 44.3997 16.0483ZM67.1201 16.0483C66.565 16.0483 66.4031 15.9389 66.4031 15.5644C66.4031 15.1107 66.5582 15.0817 68.8917 15.1003L71.3806 15.1202L72.5714 16.4915C73.2258 17.2457 75.3599 19.6049 77.3131 21.7339C79.2666 23.8631 81.5092 26.3399 82.2966 27.2381C83.0842 28.1365 83.8254 28.8714 83.9439 28.8714C84.0656 28.8714 84.1263 26.3339 84.0829 23.0434L84.0063 17.2154L83.325 16.6318C82.9503 16.3108 82.377 16.0483 82.0504 16.0483C81.6161 16.0483 81.457 15.9166 81.457 15.5576C81.457 15.0851 81.5809 15.0694 84.7954 15.1342C87.5287 15.1894 88.134 15.2656 88.134 15.5545C88.134 15.7604 87.796 15.9764 87.3223 16.073C86.8762 16.1639 86.3843 16.3643 86.2298 16.5181C86.0303 16.7168 85.9287 19.2851 85.8793 25.375L85.8097 33.9521H85.106C84.5002 33.9521 83.7791 33.2704 79.9237 29.0528C77.4604 26.3579 74.5851 23.1553 73.5342 21.9358C72.4831 20.7161 71.5413 19.7089 71.4412 19.6978C71.1593 19.6663 71.2275 30.5632 71.5158 31.5976C71.7406 32.4036 71.8951 32.5423 72.85 32.797C73.6191 33.0019 73.93 33.2098 73.93 33.5185C73.93 33.9149 73.6369 33.9521 70.5308 33.9521C67.3689 33.9521 67.1315 33.9206 67.1315 33.4986C67.1315 33.1897 67.3603 32.9994 67.8489 32.902C69.3315 32.6066 69.4299 32.1376 69.5131 24.9696C69.5597 20.9549 69.4914 18.146 69.3323 17.5578C69.0529 16.5235 68.3565 16.0483 67.1201 16.0483ZM92.5796 16.0483C92.0594 16.0483 91.8976 15.9334 91.8976 15.5644C91.8976 15.102 92.0594 15.0805 95.5396 15.0805C99.0196 15.0805 99.1817 15.102 99.1817 15.5644C99.1817 15.9193 99.0196 16.0483 98.5745 16.0483C98.2408 16.0483 97.7447 16.2704 97.4722 16.5419C96.9913 17.0211 96.9789 17.2595 97.0474 24.6669C97.1141 31.8978 97.1426 32.3162 97.589 32.6413C97.8484 32.83 98.3126 32.9844 98.6209 32.9844C99.0196 32.9844 99.1817 33.1239 99.1817 33.4684C99.1817 33.9307 99.0196 33.9521 95.5396 33.9521C92.1423 33.9521 91.8976 33.9217 91.8976 33.4993C91.8976 33.1587 92.1359 33.0083 92.8594 32.893C94.2962 32.664 94.3697 32.1953 94.2801 23.8312C94.2085 17.1329 94.1777 16.7153 93.7329 16.3913C93.4735 16.2026 92.9546 16.0483 92.5796 16.0483ZM117.985 16.0483C117.653 16.0483 117.4 15.8642 117.321 15.5644C117.199 15.0965 117.314 15.0805 120.814 15.0805C124.271 15.0805 124.433 15.102 124.433 15.5644C124.433 15.9362 124.271 16.0483 123.734 16.0483C122.206 16.0483 122.24 16.325 124.554 22.6524C125.731 25.8732 126.874 28.9328 127.094 29.4513L127.494 30.3942L129.348 25.4592C131.531 19.6501 131.815 18.5759 131.444 17.5164C131.186 16.778 130.181 16.0483 129.423 16.0483C129.209 16.0483 129.046 15.8402 129.046 15.5644C129.046 15.1013 129.209 15.0805 132.81 15.0805C136.412 15.0805 136.573 15.1013 136.573 15.5644C136.573 15.9087 136.412 16.0483 136.013 16.0483C134.992 16.0483 134.542 16.5907 134.689 17.6446C134.84 18.7295 139.015 30.3895 139.191 30.215C139.476 29.9313 144.1 17.3792 144.1 16.89C144.1 16.3038 143.689 16.0483 142.745 16.0483C142.32 16.0483 142.158 15.915 142.158 15.5644C142.158 15.1073 142.32 15.0805 145.072 15.0805C147.543 15.0805 147.985 15.1376 147.985 15.456C147.985 15.6626 147.683 15.9367 147.312 16.0652C146.48 16.3543 146.271 16.6843 145.227 19.3576C144.769 20.5315 143.334 24.2054 142.038 27.5215C140.743 30.8379 139.627 33.696 139.559 33.8727C139.491 34.0496 139.089 34.1942 138.666 34.1942H137.898L136.154 29.6577C135.194 27.1628 134.061 24.2069 133.636 23.0892C132.906 21.1739 132.845 21.0907 132.57 21.6374C132.41 21.9568 131.258 24.9179 130.009 28.2178L127.739 34.2178L126.892 34.1455L126.045 34.0732L122.814 25.624C121.009 20.9035 119.349 16.926 119.052 16.6115C118.76 16.3016 118.28 16.0483 117.985 16.0483ZM166.534 16.1509C166.493 16.059 166.494 15.7287 166.494 15.7287C166.494 15.7287 166.484 15.6095 166.534 15.546C166.584 15.4826 166.602 15.481 166.78 15.464L166.782 15.4638C167.438 15.4015 168.753 15.2965 169.851 15.2486C169.951 15.2442 170.063 15.2392 170.184 15.2337L170.187 15.2336L170.188 15.2335L170.189 15.2334C171.397 15.1786 173.559 15.1053 175.045 15.1796C177.895 15.322 179.923 16.7 180.614 18.9771C181.305 21.2541 180.94 23.3915 179.998 24.7521C179.056 26.1127 177.472 27.2841 174.84 27.2079C172.667 27.145 172.085 26.738 171.62 26.413C171.522 26.3442 171.429 26.2791 171.328 26.2218V29.1256C171.351 31.1061 171.367 32.0573 171.52 32.4094C171.727 32.8834 172.194 33.1754 173.104 33.3992C173.104 33.3992 173.516 33.4958 173.622 33.5987C173.728 33.7016 173.728 33.9301 173.728 33.9301C173.728 33.9301 173.75 34.1438 173.665 34.2528C173.579 34.3617 173.415 34.3399 173.415 34.3399L169.385 34.3074L166.955 34.301C166.955 34.301 166.7 34.3499 166.604 34.2473C166.508 34.1446 166.517 33.9307 166.517 33.9307C166.517 33.9307 166.538 33.7003 166.65 33.5972C166.761 33.4939 167.176 33.3786 167.176 33.3786C168.113 33.1155 168.52 32.8372 168.732 32.3129C168.903 31.8901 168.904 31.1063 168.903 24.7095C168.901 18.6432 168.892 17.5116 168.753 17.1861C168.547 16.7044 168.032 16.5767 167.298 16.395L167.297 16.3949C167.152 16.3589 166.998 16.3207 166.836 16.2773C166.836 16.2773 166.575 16.2428 166.534 16.1509ZM178.268 21.1008C178.268 22.0956 178.251 23.653 177.192 24.6485C176.133 25.6439 174.048 25.9164 172.633 25.6392C172.186 25.5519 171.931 25.4173 171.735 25.3134L171.715 25.3031L171.353 25.1123L171.332 21.6173C171.319 19.4274 171.342 18.0007 171.393 17.7967C171.44 16.642 173.143 16.4984 173.976 16.5411C177.536 16.5411 178.165 19.541 178.268 21.1008ZM155.354 15.216C155.354 15.216 155.18 15.2827 154.916 15.3827L153.966 15.8737L153.281 17.5828C152.905 18.5227 152.216 20.2483 151.751 21.4173C150.903 23.5465 150.344 24.9454 149.755 26.4054C149.582 26.8349 149.059 28.1427 148.592 29.3117C148.126 30.4806 147.661 31.593 147.557 31.7838C147.54 31.8156 147.522 31.8498 147.503 31.8858C147.242 32.3756 146.79 33.2263 145.99 33.3549C145.99 33.3549 145.551 33.3981 145.388 33.5589C145.225 33.7198 145.241 33.8513 145.241 33.8513V34.0539C145.241 34.0539 145.256 34.1521 145.348 34.2009C145.44 34.25 145.565 34.2528 145.565 34.2528L148.489 34.2195H151.511C151.511 34.2195 151.725 34.2445 151.808 34.1762C151.89 34.1078 151.913 34.0064 151.913 34.0064V33.793C151.913 33.793 151.871 33.5617 151.751 33.4714C151.631 33.3812 151.183 33.3194 151.183 33.3194C149.973 33.1604 149.765 32.2453 149.914 31.4223C149.987 31.018 150.474 29.5224 151.021 28.0167L151.211 27.4963L154.377 27.4721C156.119 27.4588 157.623 27.4678 157.719 27.4922C157.857 27.5269 158.049 27.9177 158.614 29.3097C159.47 31.4186 159.539 31.6755 159.349 32.07C159.338 32.0941 159.325 32.1206 159.312 32.1491C159.134 32.5307 158.789 33.2721 157.919 33.3476C157.919 33.3476 157.457 33.3636 157.342 33.5016C157.227 33.6398 157.252 33.7987 157.252 33.7987V34.0098C157.252 34.0098 157.283 34.1335 157.342 34.1825C157.401 34.2315 157.502 34.2192 157.502 34.2192L160.376 34.1985L164.417 34.1983C164.417 34.1983 164.575 34.2152 164.619 34.1544C164.662 34.0933 164.671 34.0216 164.671 34.0216V33.7412C164.671 33.7412 164.653 33.5921 164.575 33.5099C164.498 33.4278 163.974 33.341 163.974 33.341C163.304 33.2331 162.971 32.6806 162.723 32.2691C162.659 32.1641 162.602 32.0684 162.545 31.9915C162.43 31.8347 162.019 30.9754 161.697 30.1489C161.376 29.3224 160.65 27.4554 160.084 26.0002C159.519 24.545 158.729 22.5149 158.33 21.4892C157.931 20.4633 157.173 18.5114 156.645 17.1515C156.558 16.9283 156.481 16.7279 156.411 16.5484L156.411 16.5476C156.057 15.6344 155.914 15.2659 155.875 15.216C155.748 15.054 155.354 15.216 155.354 15.216ZM155.166 20.773C155.038 20.4629 154.813 19.9067 154.667 19.5369C154.4 18.8648 154.299 18.71 154.216 18.8488C154.192 18.8894 154.024 19.3487 153.843 19.8697C152.671 23.2424 152.141 24.7611 152.034 25.0473C151.967 25.2272 151.913 25.4126 151.913 25.4593C151.913 25.5131 152.866 25.5444 154.499 25.5444C155.921 25.5444 157.085 25.5268 157.085 25.5052C157.085 25.4836 156.958 25.1617 156.803 24.7895C156.648 24.4173 156.268 23.4883 155.96 22.7249C155.651 21.9615 155.293 21.0832 155.166 20.773Z" fill="white"/>
</g>
<defs>
<clipPath id="clip0_524_16698">
<rect width="180.469" height="40" fill="white" transform="translate(0.683105)"/>
</clipPath>
</defs>
</svg>
