<svg width="181" height="40" viewBox="0 0 181 40" fill="none" xmlns="http://www.w3.org/2000/svg">
<g clip-path="url(#clip0_645_16022)">
<path fill-rule="evenodd" clip-rule="evenodd" d="M0.705891 0.883976C5.20913 6.40468 10.1536 13.3404 10.9533 14.4622C10.996 14.522 11.0268 14.5653 11.0452 14.5909C11.4715 15.1861 11.8235 15.6285 12.0907 15.9645L12.0908 15.9646C12.6841 16.7105 12.8601 16.9318 12.5061 17.1351C12.2205 17.299 11.9259 17.3531 11.632 17.3531C11.2995 17.3531 10.9249 17.1914 10.6522 16.93C10.4594 16.7454 9.1402 14.8101 7.34388 11.9949C5.96945 9.84068 4.81922 8.05369 4.78784 8.02377C4.71529 7.95457 4.71653 7.95692 7.20374 12.452C8.76549 15.2746 9.83379 17.3605 9.83379 17.494C9.83379 17.7654 9.76046 17.9081 9.42895 18.2816C8.87631 18.9044 8.62925 19.6041 8.45092 21.0522C8.25099 22.6755 7.68882 23.8223 6.13084 25.7848C5.21886 26.9337 5.06964 27.1442 4.83952 27.6073C4.54968 28.1904 4.46996 28.517 4.43766 29.2533C4.40352 30.0319 4.47002 30.5348 4.70549 31.2791C4.91165 31.9307 5.12682 32.3611 5.67693 33.2218C6.15167 33.9643 6.42502 34.5162 6.42502 34.7322C6.42502 34.904 6.45749 34.9042 7.19313 34.7365C8.95362 34.3348 10.3831 33.6287 11.1871 32.7632C11.6847 32.2274 11.8015 31.9316 11.8053 31.1976C11.8078 30.7174 11.791 30.6169 11.6626 30.3407C11.4534 29.8909 11.0726 29.5172 10.2333 28.9377C9.13353 28.1782 8.66382 27.5669 8.53407 26.7262C8.42765 26.0364 8.55112 25.5497 9.1595 24.2618C9.78919 22.9286 9.94525 22.3606 10.0508 21.0167C10.119 20.1485 10.2134 19.8062 10.4603 19.5315C10.7179 19.2449 10.9498 19.1478 11.5871 19.0597C12.6263 18.9164 13.2879 18.6449 13.8318 18.1386C14.3036 17.6995 14.5011 17.2763 14.5314 16.6393L14.5544 16.1564L14.2907 15.846C13.3359 14.7214 0.0664481 0 0.00768765 0C-0.00486525 0 0.309339 0.397816 0.705891 0.883976ZM6.96102 30.1343C7.17691 29.748 7.0622 29.2516 6.70108 29.009C6.35988 28.7799 5.82985 28.8879 5.82985 29.1865C5.82985 29.2776 5.87973 29.3438 5.99218 29.4024C6.18149 29.5008 6.19524 29.6115 6.04628 29.8376C5.89543 30.0667 5.90759 30.268 6.08063 30.4047C6.3595 30.6254 6.75426 30.504 6.96102 30.1343ZM13.459 9.07502C13.033 9.00828 13.015 9.00045 13.2155 8.96933C13.5997 8.90965 14.5068 8.99098 15.1319 9.14113C16.5912 9.49149 17.9191 10.3891 19.3365 11.9832L19.713 12.4067L20.2518 12.3192C22.5213 11.9508 24.83 12.2436 26.7611 13.1446C27.2924 13.3925 28.1299 13.886 28.2345 14.0128C28.2678 14.0532 28.3292 14.3133 28.3705 14.5909C28.514 15.5513 28.4422 16.2874 28.1514 16.8372C27.9932 17.1364 27.9844 17.2312 28.0907 17.4873C28.1756 17.6916 28.4124 17.8428 28.6469 17.8425C29.1267 17.8418 29.6432 17.0583 29.8826 15.968L29.9776 15.5349L30.166 15.7504C31.1989 16.9326 32.0103 18.5447 32.1497 19.6922L32.1859 19.9914L32.0124 19.7194C31.7134 19.2515 31.4133 18.9328 31.0287 18.6758C30.3358 18.2126 29.6028 18.055 27.6621 17.9517C25.9093 17.8584 24.9174 17.7071 23.9337 17.3831C22.2599 16.832 21.4163 16.0979 19.4282 13.4633C18.5452 12.2931 17.9994 11.6456 17.4565 11.1242C16.2228 9.93947 15.0107 9.31814 13.459 9.07502ZM28.6298 11.6878C28.674 10.9037 28.7793 10.3865 28.991 9.91412C29.0747 9.72715 29.1532 9.57412 29.1652 9.57412C29.1775 9.57412 29.141 9.71213 29.0843 9.88077C28.9305 10.3392 28.9052 10.9662 29.0113 11.6957C29.1457 12.6213 29.2223 12.7548 30.1908 13.7546C30.6451 14.2236 31.1735 14.8151 31.3651 15.069L31.7134 15.5308L31.3651 15.2008C30.9391 14.7973 29.9596 14.0103 29.7433 13.8978C29.5981 13.8223 29.5765 13.8236 29.4871 13.9136C29.4047 13.9965 29.3872 14.1211 29.3758 14.71C29.3579 15.6279 29.2342 16.217 28.9352 16.8061C28.7735 17.1247 28.748 17.0567 28.8943 16.6971C29.0036 16.4286 29.0146 16.3105 29.0139 15.422C29.0122 13.6367 28.8022 13.2075 27.5716 12.4722C27.2601 12.286 26.7463 12.0173 26.4302 11.8752C26.1144 11.7331 25.8633 11.6094 25.8723 11.6002C25.9072 11.5651 27.1074 11.9189 27.5904 12.1066C28.3089 12.3858 28.4274 12.422 28.5147 12.3883C28.5731 12.3657 28.6015 12.1936 28.6298 11.6878ZM13.0024 10.3172C12.8866 11.6956 13.4216 13.5394 14.2864 14.742C14.9568 15.6742 15.996 16.3986 16.7632 16.4686C17.2655 16.5144 17.4165 16.3555 17.1892 16.0204C16.8737 15.5549 16.4857 14.8383 16.383 14.5315C16.3192 14.3408 16.1806 13.7778 16.0749 13.2803C15.7142 11.5817 15.3596 10.9202 14.5406 10.4178C14.2421 10.2347 13.6047 9.99506 13.2351 9.92697L13.0382 9.89067L13.0024 10.3172ZM27.581 23.6922C23.5395 22.0486 22.116 20.622 22.116 18.2148C22.116 17.8605 22.1283 17.5707 22.1429 17.5707C22.1577 17.5707 22.314 17.6876 22.4903 17.8305C23.3098 18.4944 24.2276 18.778 26.7683 19.1523C28.2631 19.3728 29.1044 19.5506 29.8806 19.8107C32.3472 20.637 33.8734 22.3138 34.2374 24.5979C34.3431 25.2616 34.2811 26.5061 34.1097 27.1621C33.9743 27.6802 33.5611 28.6139 33.4516 28.6498C33.4212 28.6597 33.3914 28.5422 33.3837 28.3822C33.3422 27.5245 32.913 26.6896 32.1925 26.064C31.3731 25.3529 30.2723 24.7869 27.581 23.6922ZM24.5485 23.5114C24.6052 23.6821 24.6931 24.0706 24.7437 24.375C25.0674 26.3209 24.0561 27.8931 22.089 28.5023C21.8807 28.5668 21.0605 28.729 20.2661 28.8625C18.6581 29.133 17.9404 29.3245 17.2194 29.6753C16.7081 29.9241 16.0891 30.2967 16.1259 30.3337C16.1377 30.3457 16.2544 30.3176 16.3852 30.2712C17.2944 29.9487 18.3062 29.7818 19.8436 29.701C20.4537 29.6691 21.1476 29.618 21.3857 29.5878C22.7553 29.4135 23.7046 28.9932 24.4428 28.2344C24.8535 27.812 25.0984 27.4186 25.2958 26.8638C25.4208 26.5119 25.4377 26.3812 25.4387 25.7577C25.4398 25.1224 25.4246 25.0062 25.289 24.6154C25.1115 24.1031 24.9021 23.7187 24.637 23.418L24.4454 23.2009L24.5485 23.5114ZM26.5964 27.6984C26.0593 26.5324 25.9361 25.4068 26.2302 24.357C26.2618 24.2447 26.3123 24.1529 26.3429 24.1529C26.3733 24.1529 26.4999 24.2222 26.6244 24.3067C26.8717 24.4749 27.3681 24.7583 28.6901 25.4864C30.3401 26.3949 31.2807 27.0984 31.9204 27.9023C32.4806 28.6062 32.8272 29.4079 32.994 30.3855C33.0886 30.9393 33.0332 32.2719 32.8926 32.8295C32.449 34.5878 31.418 35.9688 29.9476 36.7748C29.7322 36.8928 29.5388 36.9897 29.5177 36.9902C29.4969 36.9906 29.5754 36.7891 29.6922 36.5422C30.1868 35.4977 30.2432 34.4817 29.8693 33.351C29.6402 32.6586 29.1733 31.8137 28.2306 30.3857C27.1346 28.7256 26.8659 28.2838 26.5964 27.6984ZM16.4819 31.5226C14.7822 31.8015 12.9161 32.71 11.4164 33.9891L10.9699 34.37L11.3623 34.4319C13.41 34.7547 13.9614 35.0411 15.3817 36.5191C16.1991 37.3694 16.4752 37.5587 17.1532 37.7335C18.1489 37.9902 19.1305 37.5185 19.4672 36.6212C19.6176 36.2203 19.5975 35.5564 19.425 35.2231C19.0145 34.4293 17.8184 34.1728 17.2401 34.7542C16.7584 35.2385 16.8987 35.9681 17.4979 36.0935C17.635 36.1224 17.6311 36.1162 17.4629 36.0394C17.2007 35.9196 17.0868 35.7536 17.0853 35.4894C17.082 34.8699 17.7839 34.5221 18.4368 34.8195C18.9149 35.0376 19.1048 35.3223 19.1048 35.8214C19.1048 36.59 18.4571 37.1692 17.7034 37.0746C17.3005 37.0238 16.8078 36.7636 16.5436 36.462C15.8789 35.7027 16.1378 34.5046 17.066 34.0449C17.7726 33.695 18.7118 33.7812 19.4402 34.2629C20.277 34.8165 20.6329 35.3224 21.3536 36.9829C21.5883 37.5236 21.8903 38.1322 22.0246 38.3354C22.7074 39.3677 23.5254 39.874 24.5108 39.874C25.0543 39.874 25.4631 39.7737 25.9775 39.5144C26.3596 39.3215 26.9014 38.9551 26.8623 38.9159C26.8513 38.9048 26.6928 38.9546 26.51 39.0265C25.4342 39.4503 24.3405 39.4212 23.7053 38.9515C23.3053 38.656 22.9827 38.067 22.8169 37.3305C22.7882 37.203 22.6935 36.64 22.6064 36.0792C22.3855 34.658 22.1735 34.0192 21.6791 33.286C21.1731 32.536 20.2006 31.9065 19.1132 31.6254C18.4348 31.45 17.2145 31.4023 16.4819 31.5226ZM14.1013 20.5343C14.2481 19.9867 14.7223 19.4644 15.2101 19.3131C15.5203 19.2169 16.1615 19.2783 16.463 19.4331C17.0473 19.7331 17.4714 20.4165 17.3794 20.9099C17.2671 21.5114 16.3013 21.9927 15.1904 22.0006C14.623 22.0045 14.4134 21.9275 14.1967 21.6353C14.0626 21.4543 14.0118 20.8684 14.1013 20.5343ZM16.3138 19.6475C16.6052 19.8272 16.6801 20.093 16.5088 20.3388C16.3908 20.5082 16.0255 20.6691 15.7585 20.6691C15.3574 20.6691 14.9199 20.3814 14.9199 20.1179C14.9199 19.5885 15.759 19.3052 16.3138 19.6475ZM103.394 21.1634C102.487 18.1488 103.982 15.6483 107.171 14.8448C108.086 14.6143 112.227 14.7183 112.937 14.9897C113.197 15.0892 113.311 15.471 113.313 16.2556C113.315 16.8736 113.382 17.6241 113.463 17.9233C113.585 18.377 113.513 18.4663 113.035 18.459C112.601 18.4522 112.34 18.1985 111.974 17.4308C111.39 16.2046 110.683 15.8146 109.036 15.81C106.932 15.8039 105.393 17.22 105.644 18.9311C105.807 20.0445 106.92 21.1401 109.416 22.6462C111.792 24.0789 113.178 25.2571 113.73 26.3127C115.208 29.1348 113.946 32.1549 110.655 33.6766C108.966 34.4577 106.134 34.5384 104.144 33.8623L102.869 33.4293V31.3925C102.869 29.5478 102.913 29.3553 103.333 29.3553C103.685 29.3553 103.837 29.5878 103.96 30.3161C104.268 32.1269 105.644 33.2263 107.604 33.2263C109.524 33.2263 110.866 32.1773 111.38 30.2751C111.599 29.4648 111.561 29.166 111.127 28.2721C110.606 27.2004 109.71 26.4892 106.666 24.733C104.977 23.7583 103.782 22.4552 103.394 21.1634ZM43.7166 16.0483C43.3012 16.0483 43.1391 15.9125 43.1391 15.5644C43.1391 15.1035 43.3012 15.0805 46.5562 15.0805C49.5775 15.0805 49.9641 15.126 49.8948 15.4727C49.8514 15.6885 49.434 15.9878 48.9666 16.138L48.1166 16.4112L48.0441 22.5808C47.9955 26.6977 48.0638 29.0725 48.2492 29.7181C48.8004 31.6383 50.4817 32.7425 52.8539 32.7425C54.5053 32.7425 55.47 32.3564 56.6821 31.2098C57.9857 29.9771 58.1936 28.8058 58.1895 22.7183C58.1855 16.7137 58.0809 16.2181 56.7914 16.0935C56.2045 16.0367 56.0079 15.8999 56.0079 15.5491C56.0079 15.1117 56.2015 15.0805 58.9215 15.0805C61.6732 15.0805 61.8351 15.1073 61.8351 15.5644C61.8351 15.8625 61.6719 16.0497 61.4101 16.0519C60.2856 16.0618 60.265 16.1688 60.1136 22.7531C59.9566 29.5906 59.8099 30.4002 58.4242 32.0751C58.0246 32.5583 57.0715 33.2599 56.3065 33.6344C55.0597 34.2445 54.6631 34.3146 52.4871 34.3106C50.4813 34.3065 49.8481 34.2096 48.8451 33.7531C47.381 33.0866 46.4289 32.224 45.7269 30.9279C45.237 30.0231 45.1951 29.5335 45.0817 23.4034C44.9517 16.3865 44.8888 16.0483 43.7166 16.0483ZM66.437 16.0483C65.8819 16.0483 65.72 15.9389 65.72 15.5644C65.72 15.1107 65.8751 15.0817 68.2086 15.1003L70.6975 15.1202L71.8883 16.4915C72.5427 17.2457 74.6768 19.6049 76.63 21.7339C78.5835 23.8631 80.8261 26.3399 81.6135 27.2381C82.4011 28.1365 83.1423 28.8714 83.2608 28.8714C83.3825 28.8714 83.4432 26.3339 83.3998 23.0434L83.3232 17.2154L82.6419 16.6318C82.2672 16.3108 81.6939 16.0483 81.3673 16.0483C80.933 16.0483 80.7739 15.9166 80.7739 15.5576C80.7739 15.0851 80.8978 15.0694 84.1123 15.1342C86.8456 15.1894 87.4509 15.2656 87.4509 15.5545C87.4509 15.7604 87.1129 15.9764 86.6392 16.073C86.193 16.1639 85.7012 16.3643 85.5467 16.5181C85.3472 16.7168 85.2456 19.2851 85.1962 25.375L85.1266 33.9521H84.4229C83.8171 33.9521 83.096 33.2704 79.2406 29.0528C76.7773 26.3579 73.902 23.1553 72.8511 21.9358C71.8 20.7161 70.8582 19.7089 70.7581 19.6978C70.4762 19.6663 70.5444 30.5632 70.8327 31.5976C71.0575 32.4036 71.212 32.5423 72.1669 32.797C72.936 33.0019 73.2469 33.2098 73.2469 33.5185C73.2469 33.9149 72.9538 33.9521 69.8477 33.9521C66.6858 33.9521 66.4484 33.9206 66.4484 33.4986C66.4484 33.1897 66.6772 32.9994 67.1658 32.902C68.6484 32.6066 68.7468 32.1376 68.83 24.9696C68.8766 20.9549 68.8083 18.146 68.6492 17.5578C68.3698 16.5235 67.6734 16.0483 66.437 16.0483ZM91.8965 16.0483C91.3763 16.0483 91.2145 15.9334 91.2145 15.5644C91.2145 15.102 91.3763 15.0805 94.8565 15.0805C98.3365 15.0805 98.4986 15.102 98.4986 15.5644C98.4986 15.9193 98.3365 16.0483 97.8914 16.0483C97.5577 16.0483 97.0616 16.2704 96.7891 16.5419C96.3082 17.0211 96.2958 17.2595 96.3643 24.6669C96.431 31.8978 96.4595 32.3162 96.9059 32.6413C97.1652 32.83 97.6295 32.9844 97.9378 32.9844C98.3365 32.9844 98.4986 33.1239 98.4986 33.4684C98.4986 33.9307 98.3365 33.9521 94.8565 33.9521C91.4591 33.9521 91.2145 33.9217 91.2145 33.4993C91.2145 33.1587 91.4528 33.0083 92.1763 32.893C93.6131 32.664 93.6866 32.1953 93.597 23.8312C93.5254 17.1329 93.4946 16.7153 93.0498 16.3913C92.7904 16.2026 92.2715 16.0483 91.8965 16.0483ZM117.302 16.0483C116.97 16.0483 116.717 15.8642 116.638 15.5644C116.516 15.0965 116.631 15.0805 120.131 15.0805C123.588 15.0805 123.75 15.102 123.75 15.5644C123.75 15.9362 123.588 16.0483 123.051 16.0483C121.523 16.0483 121.557 16.325 123.871 22.6524C125.048 25.8732 126.191 28.9328 126.411 29.4513L126.811 30.3942L128.665 25.4592C130.848 19.6501 131.132 18.5759 130.761 17.5164C130.503 16.778 129.498 16.0483 128.74 16.0483C128.525 16.0483 128.363 15.8402 128.363 15.5644C128.363 15.1013 128.525 15.0805 132.127 15.0805C135.728 15.0805 135.89 15.1013 135.89 15.5644C135.89 15.9087 135.728 16.0483 135.33 16.0483C134.309 16.0483 133.859 16.5907 134.005 17.6446C134.156 18.7295 138.332 30.3895 138.508 30.215C138.792 29.9313 143.417 17.3792 143.417 16.89C143.417 16.3038 143.006 16.0483 142.062 16.0483C141.637 16.0483 141.475 15.915 141.475 15.5644C141.475 15.1073 141.637 15.0805 144.389 15.0805C146.86 15.0805 147.302 15.1376 147.302 15.456C147.302 15.6626 146.999 15.9367 146.629 16.0652C145.797 16.3543 145.588 16.6843 144.544 19.3576C144.085 20.5315 142.651 24.2054 141.355 27.5215C140.06 30.8379 138.944 33.696 138.876 33.8727C138.808 34.0496 138.406 34.1942 137.983 34.1942H137.215L135.471 29.6577C134.511 27.1628 133.378 24.2069 132.952 23.0892C132.223 21.1739 132.161 21.0907 131.887 21.6374C131.727 21.9568 130.574 24.9179 129.326 28.2178L127.056 34.2178L126.209 34.1455L125.362 34.0732L122.131 25.624C120.326 20.9035 118.666 16.926 118.369 16.6115C118.077 16.3016 117.597 16.0483 117.302 16.0483ZM165.851 16.1509C165.81 16.059 165.811 15.7287 165.811 15.7287C165.811 15.7287 165.801 15.6095 165.851 15.546C165.901 15.4826 165.919 15.481 166.097 15.464L166.099 15.4638C166.755 15.4015 168.07 15.2965 169.168 15.2486C169.268 15.2442 169.38 15.2392 169.501 15.2337L169.504 15.2336L169.505 15.2335L169.506 15.2334C170.714 15.1786 172.876 15.1053 174.362 15.1796C177.212 15.322 179.24 16.7 179.931 18.9771C180.622 21.2541 180.257 23.3915 179.315 24.7521C178.373 26.1127 176.789 27.2841 174.157 27.2079C171.983 27.145 171.402 26.738 170.937 26.413C170.839 26.3442 170.746 26.2791 170.645 26.2218V29.1256C170.667 31.1061 170.684 32.0573 170.837 32.4094C171.044 32.8834 171.511 33.1754 172.421 33.3992C172.421 33.3992 172.833 33.4958 172.939 33.5987C173.045 33.7016 173.045 33.9301 173.045 33.9301C173.045 33.9301 173.067 34.1438 172.982 34.2528C172.896 34.3617 172.731 34.3399 172.731 34.3399L168.701 34.3074L166.272 34.301C166.272 34.301 166.017 34.3499 165.921 34.2473C165.825 34.1446 165.834 33.9307 165.834 33.9307C165.834 33.9307 165.855 33.7003 165.967 33.5972C166.078 33.4939 166.493 33.3786 166.493 33.3786C167.43 33.1155 167.837 32.8372 168.049 32.3129C168.22 31.8901 168.221 31.1063 168.22 24.7095C168.218 18.6432 168.209 17.5116 168.07 17.1861C167.864 16.7044 167.349 16.5767 166.615 16.395L166.614 16.3949C166.469 16.3589 166.315 16.3207 166.153 16.2773C166.153 16.2773 165.892 16.2428 165.851 16.1509ZM177.585 21.1008C177.585 22.0956 177.568 23.653 176.509 24.6485C175.45 25.6439 173.365 25.9164 171.949 25.6392C171.503 25.5519 171.248 25.4173 171.052 25.3134L171.032 25.3031L170.67 25.1123L170.649 21.6173C170.635 19.4274 170.658 18.0007 170.71 17.7967C170.757 16.642 172.46 16.4984 173.293 16.5411C176.853 16.5411 177.482 19.541 177.585 21.1008ZM154.671 15.216C154.671 15.216 154.497 15.2827 154.233 15.3827L153.282 15.8737L152.598 17.5828C152.221 18.5227 151.533 20.2483 151.067 21.4173C150.22 23.5465 149.66 24.9454 149.072 26.4054C148.898 26.8349 148.375 28.1427 147.909 29.3117C147.443 30.4806 146.978 31.593 146.874 31.7838C146.857 31.8156 146.839 31.8498 146.82 31.8858C146.559 32.3756 146.106 33.2263 145.307 33.3549C145.307 33.3549 144.868 33.3981 144.705 33.5589C144.542 33.7198 144.558 33.8513 144.558 33.8513V34.0539C144.558 34.0539 144.573 34.1521 144.665 34.2009C144.757 34.25 144.882 34.2528 144.882 34.2528L147.806 34.2195H150.828C150.828 34.2195 151.042 34.2445 151.124 34.1762C151.207 34.1078 151.23 34.0064 151.23 34.0064V33.793C151.23 33.793 151.188 33.5617 151.068 33.4714C150.948 33.3812 150.5 33.3194 150.5 33.3194C149.29 33.1604 149.081 32.2453 149.231 31.4223C149.304 31.018 149.79 29.5224 150.338 28.0167L150.528 27.4963L153.694 27.4721C155.436 27.4588 156.94 27.4678 157.036 27.4922C157.174 27.5269 157.366 27.9177 157.931 29.3097C158.787 31.4186 158.856 31.6755 158.666 32.07C158.654 32.0941 158.642 32.1206 158.629 32.1491C158.451 32.5307 158.106 33.2721 157.235 33.3476C157.235 33.3476 156.774 33.3636 156.659 33.5016C156.544 33.6398 156.569 33.7987 156.569 33.7987V34.0098C156.569 34.0098 156.6 34.1335 156.659 34.1825C156.718 34.2315 156.819 34.2192 156.819 34.2192L159.693 34.1985L163.734 34.1983C163.734 34.1983 163.892 34.2152 163.936 34.1544C163.979 34.0933 163.988 34.0216 163.988 34.0216V33.7412C163.988 33.7412 163.97 33.5921 163.892 33.5099C163.815 33.4278 163.291 33.341 163.291 33.341C162.621 33.2331 162.288 32.6806 162.04 32.2691C161.976 32.1641 161.918 32.0684 161.862 31.9915C161.747 31.8347 161.336 30.9754 161.014 30.1489C160.693 29.3224 159.967 27.4554 159.401 26.0002C158.835 24.545 158.046 22.5149 157.647 21.4892C157.248 20.4633 156.49 18.5114 155.962 17.1515C155.875 16.9283 155.798 16.7279 155.728 16.5484L155.728 16.5476C155.374 15.6344 155.231 15.2659 155.192 15.216C155.065 15.054 154.671 15.216 154.671 15.216ZM154.482 20.773C154.355 20.4629 154.13 19.9067 153.984 19.5369C153.717 18.8648 153.616 18.71 153.533 18.8488C153.509 18.8894 153.341 19.3487 153.16 19.8697C151.988 23.2424 151.458 24.7611 151.351 25.0473C151.284 25.2272 151.23 25.4126 151.23 25.4593C151.23 25.5131 152.183 25.5444 153.816 25.5444C155.238 25.5444 156.402 25.5268 156.402 25.5052C156.402 25.4836 156.275 25.1617 156.12 24.7895C155.965 24.4173 155.585 23.4883 155.276 22.7249C154.967 21.9615 154.61 21.0832 154.482 20.773Z" fill="url(#paint0_linear_645_16022)"/>
</g>
<defs>
<linearGradient id="paint0_linear_645_16022" x1="-8.18729" y1="23.303" x2="219.625" y2="44.1806" gradientUnits="userSpaceOnUse">
<stop stop-color="#FEDBA8"/>
<stop offset="0.878478" stop-color="#CF75D5"/>
</linearGradient>
<clipPath id="clip0_645_16022">
<rect width="180.469" height="40" fill="white"/>
</clipPath>
</defs>
</svg>
